<svg width="30" height="11" viewBox="0 0 30 11" fill="none" xmlns="http://www.w3.org/2000/svg">
<path fill-rule="evenodd" clip-rule="evenodd" d="M24.2197 10.2803C23.9268 9.98744 23.9268 9.51256 24.2197 9.21967L28.1893 5.25L24.2197 1.28033C23.9268 0.987437 23.9268 0.512563 24.2197 0.21967C24.5126 -0.0732231 24.9874 -0.0732232 25.2803 0.21967L29.7803 4.71967C30.0732 5.01256 30.0732 5.48744 29.7803 5.78033L25.2803 10.2803C24.9874 10.5732 24.5126 10.5732 24.2197 10.2803Z" fill="#636363"/>
<path fill-rule="evenodd" clip-rule="evenodd" d="M12.2197 10.2803C11.9268 9.98744 11.9268 9.51256 12.2197 9.21967L16.1893 5.25L12.2197 1.28033C11.9268 0.987437 11.9268 0.512563 12.2197 0.21967C12.5126 -0.0732231 12.9874 -0.0732232 13.2803 0.21967L17.7803 4.71967C18.0732 5.01256 18.0732 5.48744 17.7803 5.78033L13.2803 10.2803C12.9874 10.5732 12.5126 10.5732 12.2197 10.2803Z" fill="#B7B7B7"/>
<path fill-rule="evenodd" clip-rule="evenodd" d="M0.21967 10.2803C-0.0732233 9.98744 -0.0732234 9.51256 0.21967 9.21967L4.18934 5.25L0.21967 1.28033C-0.0732237 0.987437 -0.0732238 0.512563 0.219669 0.21967C0.512563 -0.0732231 0.987436 -0.0732232 1.28033 0.21967L5.78033 4.71967C6.07322 5.01256 6.07322 5.48744 5.78033 5.78033L1.28033 10.2803C0.987437 10.5732 0.512563 10.5732 0.21967 10.2803Z" fill="#E5E5E5"/>
</svg>
