<svg width="90" height="30" viewBox="0 0 90 30" fill="none" xmlns="http://www.w3.org/2000/svg">
<path fill-rule="evenodd" clip-rule="evenodd" d="M7.09639 9.75e-05H81.9701V0C82.2376 0 82.5094 0 82.7769 0.0015C82.962 0.00269381 83.151 0.00584156 83.3375 0.00894854C83.3795 0.00964784 83.4214 0.0103451 83.4631 0.0110175C83.9619 0.0166033 84.4595 0.0609246 84.9516 0.143587C85.4456 0.228278 85.9243 0.386773 86.3718 0.613837C87.2669 1.07712 87.9955 1.81149 88.4549 2.71369C88.6794 3.16322 88.8348 3.64456 88.9157 4.14118C88.9987 4.63752 89.0448 5.13941 89.0538 5.64268C89.0567 5.87266 89.0567 6.10337 89.0567 6.33335C89.0625 6.60472 89.0625 6.87682 89.0625 7.15111V7.15219V22.8487V22.8498C89.0625 23.1263 89.0625 23.3969 89.0567 23.669C89.0567 23.9019 89.0567 24.1275 89.0538 24.3605C89.0448 24.8637 88.9986 25.3656 88.9157 25.8619C88.835 26.3588 88.6796 26.8404 88.4549 27.2901C88.2266 27.7377 87.9298 28.1463 87.5754 28.5008C87.2237 28.8585 86.8174 29.1569 86.3718 29.3849C85.9243 29.6125 85.4456 29.772 84.9516 29.858C84.4594 29.94 83.9618 29.9843 83.4631 29.9906C83.2363 29.9957 83.0037 29.9986 82.7769 29.9986C82.5094 30.0001 82.2376 30.0001 81.9701 30.0001H7.09639C6.82348 30.0001 6.55381 30.0001 6.28161 29.9986C6.05375 29.9986 5.82771 29.9957 5.59766 29.9906C5.09793 29.9839 4.59939 29.9396 4.10622 29.858C3.61377 29.7726 3.13686 29.6131 2.69145 29.3849C2.2455 29.1571 1.83876 28.8586 1.48673 28.5008C1.13146 28.1476 0.835314 27.7388 0.609818 27.2901C0.38338 26.8407 0.226508 26.3591 0.144649 25.8619C0.0617845 25.3656 0.0171933 24.8637 0.0112757 24.3605C0.00655697 24.2013 0.00472162 24.0456 0.00287173 23.8886C0.00201392 23.8159 0.001153 23.7428 0 23.669V6.33335C0.00116667 6.25963 0.0020343 6.18583 0.00290223 6.11201C0.00474188 5.95554 0.00658291 5.79895 0.0112757 5.64271C0.0171915 5.13949 0.0617826 4.63749 0.144649 4.14121C0.226735 3.6443 0.383597 3.16293 0.609818 2.71372C0.835417 2.26361 1.13152 1.85308 1.48673 1.4979C1.84009 1.14172 2.24658 0.843451 2.69145 0.613905C3.13686 0.386284 3.61383 0.227747 4.10622 0.143655C4.5993 0.0613547 5.09789 0.0170489 5.59766 0.0111225C5.64542 0.0103611 5.69301 0.00956998 5.74047 0.00878085C5.92164 0.00576888 6.10106 0.00278609 6.28161 0.0015975C6.55381 9.75e-05 6.82346 9.75e-05 7.09639 9.75e-05ZM5.61224 29.3359C5.83722 29.341 6.05851 29.3439 6.28527 29.3439L81.9701 29.3454L82.7769 29.3439C82.9986 29.3439 83.2268 29.341 83.4448 29.3359C83.9109 29.3301 84.376 29.2892 84.836 29.2135C85.268 29.1397 85.6866 29.0007 86.0775 28.8012C86.4633 28.6036 86.815 28.3446 87.119 28.0343C87.4236 27.7301 87.6787 27.3793 87.8749 26.995C88.0718 26.6008 88.2073 26.1783 88.2768 25.7425C88.3528 25.2829 88.3953 24.8183 88.404 24.3524C88.4069 24.1225 88.4069 23.899 88.4069 23.6551C88.4128 23.3871 88.4128 23.1212 88.4128 22.8487V7.15222C88.4128 6.88233 88.4128 6.61463 88.4069 6.33338C88.4069 6.10633 88.4069 5.87818 88.4047 5.66578C88.3959 5.19143 88.3526 4.71837 88.2754 4.25037C88.2052 3.82026 88.071 3.40331 87.8771 3.01368C87.4806 2.2345 86.8521 1.59986 86.0796 1.19873C85.6876 1.00034 85.2685 0.861856 84.836 0.787843C84.3787 0.712213 83.9163 0.67145 83.4529 0.6659L82.7733 0.656375H6.28564L5.61407 0.665533C5.14638 0.671372 4.67978 0.712502 4.21818 0.788578C3.79004 0.861675 3.37524 0.999195 2.98766 1.19653C2.6021 1.39558 2.24991 1.65434 1.94394 1.96339C1.63763 2.26952 1.38248 2.62358 1.1884 3.01185C0.991356 3.40419 0.854954 3.82456 0.783922 4.25842C0.707584 4.72262 0.666399 5.19199 0.660723 5.66248C0.656369 5.81482 0.64979 6.33338 0.64979 6.33338V23.6588C0.64979 23.6588 0.655967 24.1855 0.660686 24.3436C0.666613 24.8149 0.70804 25.285 0.784607 25.7499C0.855508 26.1826 0.991804 26.6017 1.18875 26.9928C1.38354 27.3813 1.64011 27.7351 1.94828 28.0402C2.25206 28.3488 2.60312 28.6063 2.98803 28.8026C3.3765 29.0006 3.79209 29.1391 4.22109 29.2135C4.68118 29.2888 5.14616 29.3297 5.61224 29.3359Z" fill="white"/>
<path fill-rule="evenodd" clip-rule="evenodd" d="M7.09639 9.75e-05H81.9701V0C82.2376 0 82.5094 0 82.7769 0.0015C82.962 0.00269381 83.151 0.00584156 83.3375 0.00894854C83.3795 0.00964784 83.4214 0.0103451 83.4631 0.0110175C83.9619 0.0166033 84.4595 0.0609246 84.9516 0.143587C85.4456 0.228278 85.9243 0.386773 86.3718 0.613837C87.2669 1.07712 87.9955 1.81149 88.4549 2.71369C88.6794 3.16322 88.8348 3.64456 88.9157 4.14118C88.9987 4.63752 89.0448 5.13941 89.0538 5.64268C89.0567 5.87266 89.0567 6.10337 89.0567 6.33335C89.0625 6.60472 89.0625 6.87682 89.0625 7.15111V7.15219V22.8487V22.8498C89.0625 23.1263 89.0625 23.3969 89.0567 23.669C89.0567 23.9019 89.0567 24.1275 89.0538 24.3605C89.0448 24.8637 88.9986 25.3656 88.9157 25.8619C88.835 26.3588 88.6796 26.8404 88.4549 27.2901C88.2266 27.7377 87.9298 28.1463 87.5754 28.5008C87.2237 28.8585 86.8174 29.1569 86.3718 29.3849C85.9243 29.6125 85.4456 29.772 84.9516 29.858C84.4594 29.94 83.9618 29.9843 83.4631 29.9906C83.2363 29.9957 83.0037 29.9986 82.7769 29.9986C82.5094 30.0001 82.2376 30.0001 81.9701 30.0001H7.09639C6.82348 30.0001 6.55381 30.0001 6.28161 29.9986C6.05375 29.9986 5.82771 29.9957 5.59766 29.9906C5.09793 29.9839 4.59939 29.9396 4.10622 29.858C3.61377 29.7726 3.13686 29.6131 2.69145 29.3849C2.2455 29.1571 1.83876 28.8586 1.48673 28.5008C1.13146 28.1476 0.835314 27.7388 0.609818 27.2901C0.38338 26.8407 0.226508 26.3591 0.144649 25.8619C0.0617845 25.3656 0.0171933 24.8637 0.0112757 24.3605C0.00655697 24.2013 0.00472162 24.0456 0.00287173 23.8886C0.00201392 23.8159 0.001153 23.7428 0 23.669V6.33335C0.00116667 6.25963 0.0020343 6.18583 0.00290223 6.11201C0.00474188 5.95554 0.00658291 5.79895 0.0112757 5.64271C0.0171915 5.13949 0.0617826 4.63749 0.144649 4.14121C0.226735 3.6443 0.383597 3.16293 0.609818 2.71372C0.835417 2.26361 1.13152 1.85308 1.48673 1.4979C1.84009 1.14172 2.24658 0.843451 2.69145 0.613905C3.13686 0.386284 3.61383 0.227747 4.10622 0.143655C4.5993 0.0613547 5.09789 0.0170489 5.59766 0.0111225C5.64542 0.0103611 5.69301 0.00956998 5.74047 0.00878085C5.92164 0.00576888 6.10106 0.00278609 6.28161 0.0015975C6.55381 9.75e-05 6.82346 9.75e-05 7.09639 9.75e-05ZM5.61224 29.3359C5.83722 29.341 6.05851 29.3439 6.28527 29.3439L81.9701 29.3454L82.7769 29.3439C82.9986 29.3439 83.2268 29.341 83.4448 29.3359C83.9109 29.3301 84.376 29.2892 84.836 29.2135C85.268 29.1397 85.6866 29.0007 86.0775 28.8012C86.4633 28.6036 86.815 28.3446 87.119 28.0343C87.4236 27.7301 87.6787 27.3793 87.8749 26.995C88.0718 26.6008 88.2073 26.1783 88.2768 25.7425C88.3528 25.2829 88.3953 24.8183 88.404 24.3524C88.4069 24.1225 88.4069 23.899 88.4069 23.6551C88.4128 23.3871 88.4128 23.1212 88.4128 22.8487V7.15222C88.4128 6.88233 88.4128 6.61463 88.4069 6.33338C88.4069 6.10633 88.4069 5.87818 88.4047 5.66578C88.3959 5.19143 88.3526 4.71837 88.2754 4.25037C88.2052 3.82026 88.071 3.40331 87.8771 3.01368C87.4806 2.2345 86.8521 1.59986 86.0796 1.19873C85.6876 1.00034 85.2685 0.861856 84.836 0.787843C84.3787 0.712213 83.9163 0.67145 83.4529 0.6659L82.7733 0.656375H6.28564L5.61407 0.665533C5.14638 0.671372 4.67978 0.712502 4.21818 0.788578C3.79004 0.861675 3.37524 0.999195 2.98766 1.19653C2.6021 1.39558 2.24991 1.65434 1.94394 1.96339C1.63763 2.26952 1.38248 2.62358 1.1884 3.01185C0.991356 3.40419 0.854954 3.82456 0.783922 4.25842C0.707584 4.72262 0.666399 5.19199 0.660723 5.66248C0.656369 5.81482 0.64979 6.33338 0.64979 6.33338V23.6588C0.64979 23.6588 0.655967 24.1855 0.660686 24.3436C0.666613 24.8149 0.70804 25.285 0.784607 25.7499C0.855508 26.1826 0.991804 26.6017 1.18875 26.9928C1.38354 27.3813 1.64011 27.7351 1.94828 28.0402C2.25206 28.3488 2.60312 28.6063 2.98803 28.8026C3.3765 29.0006 3.79209 29.1391 4.22109 29.2135C4.68118 29.2888 5.14616 29.3297 5.61224 29.3359Z" fill="#B7B7B7"/>
<path d="M18.6044 14.9171C18.6128 14.2662 18.7844 13.6279 19.1033 13.0617C19.4221 12.4955 19.878 12.0198 20.4283 11.6789C20.0787 11.1757 19.6175 10.7616 19.0812 10.4695C18.545 10.1774 17.9486 10.0153 17.3393 9.99604C16.0396 9.85857 14.7797 10.7797 14.1174 10.7797C13.4423 10.7797 12.4226 10.0097 11.3245 10.0325C10.6143 10.0556 9.92208 10.2637 9.31539 10.6366C8.70869 11.0094 8.20819 11.5343 7.86264 12.16C6.36583 14.7715 7.48232 18.6095 8.91616 20.7205C9.63355 21.7542 10.472 22.9088 11.569 22.8678C12.6426 22.823 13.0435 22.178 14.3394 22.178C15.6232 22.178 15.9993 22.8678 17.1187 22.8418C18.2706 22.823 18.9964 21.8035 19.6886 20.7601C20.2041 20.0236 20.6007 19.2095 20.8638 18.3482C20.1946 18.0629 19.6235 17.5855 19.2217 16.9753C18.8199 16.3652 18.6052 15.6494 18.6044 14.9171Z" fill="white"/>
<path d="M18.6044 14.9171C18.6128 14.2662 18.7844 13.6279 19.1033 13.0617C19.4221 12.4955 19.878 12.0198 20.4283 11.6789C20.0787 11.1757 19.6175 10.7616 19.0812 10.4695C18.545 10.1774 17.9486 10.0153 17.3393 9.99604C16.0396 9.85857 14.7797 10.7797 14.1174 10.7797C13.4423 10.7797 12.4226 10.0097 11.3245 10.0325C10.6143 10.0556 9.92208 10.2637 9.31539 10.6366C8.70869 11.0094 8.20819 11.5343 7.86264 12.16C6.36583 14.7715 7.48232 18.6095 8.91616 20.7205C9.63355 21.7542 10.472 22.9088 11.569 22.8678C12.6426 22.823 13.0435 22.178 14.3394 22.178C15.6232 22.178 15.9993 22.8678 17.1187 22.8418C18.2706 22.823 18.9964 21.8035 19.6886 20.7601C20.2041 20.0236 20.6007 19.2095 20.8638 18.3482C20.1946 18.0629 19.6235 17.5855 19.2217 16.9753C18.8199 16.3652 18.6052 15.6494 18.6044 14.9171Z" fill="#B7B7B7"/>
<path d="M16.4903 8.60773C17.1183 7.84793 17.4278 6.87132 17.3529 5.88531C16.3933 5.98688 15.5069 6.44903 14.8703 7.17968C14.5591 7.53662 14.3207 7.95188 14.1688 8.40172C14.0169 8.85155 13.9545 9.32715 13.9851 9.8013C14.4651 9.80628 14.9399 9.70145 15.3738 9.4947C15.8078 9.28796 16.1895 8.98469 16.4903 8.60773Z" fill="white"/>
<path d="M16.4903 8.60773C17.1183 7.84793 17.4278 6.87132 17.3529 5.88531C16.3933 5.98688 15.5069 6.44903 14.8703 7.17968C14.5591 7.53662 14.3207 7.95188 14.1688 8.40172C14.0169 8.85155 13.9545 9.32715 13.9851 9.8013C14.4651 9.80628 14.9399 9.70145 15.3738 9.4947C15.8078 9.28796 16.1895 8.98469 16.4903 8.60773Z" fill="#B7B7B7"/>
<path d="M31.4842 20.3549H27.9612L27.1152 22.8722H25.623L28.9599 13.5587H30.5102L33.8471 22.8722H32.3295L31.4842 20.3549ZM28.3261 19.1933H31.1186L29.742 15.1078H29.7034L28.3261 19.1933Z" fill="white"/>
<path d="M31.4842 20.3549H27.9612L27.1152 22.8722H25.623L28.9599 13.5587H30.5102L33.8471 22.8722H32.3295L31.4842 20.3549ZM28.3261 19.1933H31.1186L29.742 15.1078H29.7034L28.3261 19.1933Z" fill="#B7B7B7"/>
<path d="M41.0535 19.4774C41.0535 21.5875 39.9327 22.9432 38.2414 22.9432C37.8129 22.9658 37.3868 22.8663 37.0119 22.6562C36.6369 22.4461 36.3282 22.1339 36.1212 21.7552H36.0892V25.1185H34.7061V16.0819H36.0449V17.2113H36.0703C36.2869 16.8344 36.6007 16.5238 36.9786 16.3124C37.3564 16.101 37.784 15.9968 38.2159 16.0108C39.9261 16.0108 41.0535 17.3731 41.0535 19.4774ZM39.6318 19.4774C39.6318 18.1026 38.9268 17.1988 37.8511 17.1988C36.7942 17.1988 36.0834 18.1217 36.0834 19.4774C36.0834 20.8456 36.7942 21.7618 37.8511 21.7618C38.9268 21.7618 39.6318 20.8646 39.6318 19.4774H39.6318Z" fill="white"/>
<path d="M41.0535 19.4774C41.0535 21.5875 39.9327 22.9432 38.2414 22.9432C37.8129 22.9658 37.3868 22.8663 37.0119 22.6562C36.6369 22.4461 36.3282 22.1339 36.1212 21.7552H36.0892V25.1185H34.7061V16.0819H36.0449V17.2113H36.0703C36.2869 16.8344 36.6007 16.5238 36.9786 16.3124C37.3564 16.101 37.784 15.9968 38.2159 16.0108C39.9261 16.0108 41.0535 17.3731 41.0535 19.4774ZM39.6318 19.4774C39.6318 18.1026 38.9268 17.1988 37.8511 17.1988C36.7942 17.1988 36.0834 18.1217 36.0834 19.4774C36.0834 20.8456 36.7942 21.7618 37.8511 21.7618C38.9268 21.7618 39.6318 20.8646 39.6318 19.4774H39.6318Z" fill="#B7B7B7"/>
<path d="M48.4708 19.4774C48.4708 21.5875 47.3497 22.9432 45.6584 22.9432C45.2299 22.9658 44.8038 22.8663 44.4289 22.6562C44.0539 22.4461 43.7452 22.1339 43.5382 21.7552H43.5062V25.1185H42.123V16.0819H43.4619V17.2113H43.4873C43.7039 16.8344 44.0177 16.5238 44.3955 16.3124C44.7734 16.101 45.201 15.9968 45.6329 16.0108C47.3431 16.0108 48.4708 17.3731 48.4708 19.4774ZM47.0488 19.4774C47.0488 18.1026 46.3438 17.1988 45.268 17.1988C44.2112 17.1988 43.5004 18.1217 43.5004 19.4774C43.5004 20.8456 44.2112 21.7618 45.268 21.7618C46.3438 21.7618 47.0488 20.8646 47.0488 19.4774Z" fill="white"/>
<path d="M48.4708 19.4774C48.4708 21.5875 47.3497 22.9432 45.6584 22.9432C45.2299 22.9658 44.8038 22.8663 44.4289 22.6562C44.0539 22.4461 43.7452 22.1339 43.5382 21.7552H43.5062V25.1185H42.123V16.0819H43.4619V17.2113H43.4873C43.7039 16.8344 44.0177 16.5238 44.3955 16.3124C44.7734 16.101 45.201 15.9968 45.6329 16.0108C47.3431 16.0108 48.4708 17.3731 48.4708 19.4774ZM47.0488 19.4774C47.0488 18.1026 46.3438 17.1988 45.268 17.1988C44.2112 17.1988 43.5004 18.1217 43.5004 19.4774C43.5004 20.8456 44.2112 21.7618 45.268 21.7618C46.3438 21.7618 47.0488 20.8646 47.0488 19.4774Z" fill="#B7B7B7"/>
<path d="M53.3715 20.2772C53.4739 21.2008 54.3643 21.8072 55.581 21.8072C56.7468 21.8072 57.5856 21.2008 57.5856 20.368C57.5856 19.6451 57.0797 19.2122 55.8819 18.9156L54.6841 18.6248C52.987 18.2117 52.1991 17.4119 52.1991 16.1141C52.1991 14.5071 53.5888 13.4034 55.5614 13.4034C57.5151 13.4034 58.8539 14.5071 58.899 16.1141H57.5027C57.4192 15.1846 56.6567 14.6236 55.5425 14.6236C54.4283 14.6236 53.6658 15.1912 53.6658 16.0174C53.6658 16.6758 54.1528 17.0633 55.3441 17.3599L56.3623 17.6119C58.2586 18.0638 59.0458 18.8314 59.0458 20.1936C59.0458 21.9361 57.6692 23.0274 55.4785 23.0274C53.4288 23.0274 52.045 21.9617 51.9556 20.2771L53.3715 20.2772Z" fill="white"/>
<path d="M53.3715 20.2772C53.4739 21.2008 54.3643 21.8072 55.581 21.8072C56.7468 21.8072 57.5856 21.2008 57.5856 20.368C57.5856 19.6451 57.0797 19.2122 55.8819 18.9156L54.6841 18.6248C52.987 18.2117 52.1991 17.4119 52.1991 16.1141C52.1991 14.5071 53.5888 13.4034 55.5614 13.4034C57.5151 13.4034 58.8539 14.5071 58.899 16.1141H57.5027C57.4192 15.1846 56.6567 14.6236 55.5425 14.6236C54.4283 14.6236 53.6658 15.1912 53.6658 16.0174C53.6658 16.6758 54.1528 17.0633 55.3441 17.3599L56.3623 17.6119C58.2586 18.0638 59.0458 18.8314 59.0458 20.1936C59.0458 21.9361 57.6692 23.0274 55.4785 23.0274C53.4288 23.0274 52.045 21.9617 51.9556 20.2771L53.3715 20.2772Z" fill="#B7B7B7"/>
<path d="M62.0325 14.475V16.0819H63.3139V17.1857H62.0325V20.9291C62.0325 21.5106 62.2891 21.7816 62.8524 21.7816C63.0045 21.7789 63.1564 21.7682 63.3074 21.7494V22.8465C63.0541 22.8942 62.7967 22.9158 62.5391 22.911C61.1749 22.911 60.6428 22.3946 60.6428 21.0777V17.1857H59.6631V16.0819H60.6428V14.475H62.0325Z" fill="white"/>
<path d="M62.0325 14.475V16.0819H63.3139V17.1857H62.0325V20.9291C62.0325 21.5106 62.2891 21.7816 62.8524 21.7816C63.0045 21.7789 63.1564 21.7682 63.3074 21.7494V22.8465C63.0541 22.8942 62.7967 22.9158 62.5391 22.911C61.1749 22.911 60.6428 22.3946 60.6428 21.0777V17.1857H59.6631V16.0819H60.6428V14.475H62.0325Z" fill="#B7B7B7"/>
<path d="M64.0552 19.4774C64.0552 17.3409 65.3039 15.9984 67.251 15.9984C69.2047 15.9984 70.4476 17.3409 70.4476 19.4774C70.4476 21.6198 69.2113 22.9564 67.251 22.9564C65.2915 22.9564 64.0552 21.6197 64.0552 19.4774ZM69.0383 19.4774C69.0383 18.0118 68.3718 17.1469 67.251 17.1469C66.1303 17.1469 65.4638 18.0184 65.4638 19.4774C65.4638 20.9488 66.1303 21.8073 67.251 21.8073C68.3718 21.8073 69.0383 20.9488 69.0383 19.4774H69.0383Z" fill="white"/>
<path d="M64.0552 19.4774C64.0552 17.3409 65.3039 15.9984 67.251 15.9984C69.2047 15.9984 70.4476 17.3409 70.4476 19.4774C70.4476 21.6198 69.2113 22.9564 67.251 22.9564C65.2915 22.9564 64.0552 21.6197 64.0552 19.4774ZM69.0383 19.4774C69.0383 18.0118 68.3718 17.1469 67.251 17.1469C66.1303 17.1469 65.4638 18.0184 65.4638 19.4774C65.4638 20.9488 66.1303 21.8073 67.251 21.8073C68.3718 21.8073 69.0383 20.9488 69.0383 19.4774H69.0383Z" fill="#B7B7B7"/>
<path d="M71.5879 16.0819H72.9071V17.2376H72.9391C73.0283 16.8767 73.2382 16.5577 73.5334 16.3343C73.8285 16.1108 74.191 15.9966 74.5599 16.0108C74.7193 16.0103 74.8783 16.0277 75.0338 16.0628V17.3665C74.8326 17.3046 74.6227 17.2761 74.4123 17.2823C74.2114 17.2741 74.0111 17.3098 73.8251 17.387C73.6392 17.4641 73.472 17.5809 73.3351 17.7293C73.1982 17.8778 73.0947 18.0543 73.0319 18.2468C72.969 18.4393 72.9483 18.6432 72.971 18.8446V22.8722H71.5879L71.5879 16.0819Z" fill="white"/>
<path d="M71.5879 16.0819H72.9071V17.2376H72.9391C73.0283 16.8767 73.2382 16.5577 73.5334 16.3343C73.8285 16.1108 74.191 15.9966 74.5599 16.0108C74.7193 16.0103 74.8783 16.0277 75.0338 16.0628V17.3665C74.8326 17.3046 74.6227 17.2761 74.4123 17.2823C74.2114 17.2741 74.0111 17.3098 73.8251 17.387C73.6392 17.4641 73.472 17.5809 73.3351 17.7293C73.1982 17.8778 73.0947 18.0543 73.0319 18.2468C72.969 18.4393 72.9483 18.6432 72.971 18.8446V22.8722H71.5879L71.5879 16.0819Z" fill="#B7B7B7"/>
<path d="M81.411 20.8778C81.2249 22.1105 80.0336 22.9564 78.5095 22.9564C76.5492 22.9564 75.3325 21.6329 75.3325 19.5096C75.3325 17.3798 76.5558 15.9984 78.4513 15.9984C80.3156 15.9984 81.488 17.2889 81.488 19.3478V19.8253H76.7288V19.9095C76.7068 20.1594 76.7378 20.4112 76.8198 20.6481C76.9018 20.885 77.0329 21.1015 77.2044 21.2835C77.3758 21.4654 77.5837 21.6084 77.8142 21.7032C78.0448 21.7979 78.2927 21.8421 78.5415 21.8329C78.8683 21.8637 79.1963 21.7875 79.4767 21.6154C79.7571 21.4433 79.9748 21.1846 80.0976 20.8778L81.411 20.8778ZM76.7353 18.8512H80.1041C80.1166 18.6265 80.0827 18.4016 80.0048 18.1907C79.9269 17.9798 79.8066 17.7874 79.6514 17.6256C79.4962 17.4638 79.3095 17.336 79.103 17.2504C78.8965 17.1647 78.6746 17.123 78.4513 17.1278C78.2261 17.1265 78.0028 17.1701 77.7944 17.2561C77.586 17.3422 77.3965 17.469 77.237 17.6292C77.0774 17.7894 76.951 17.9799 76.8649 18.1896C76.7787 18.3994 76.7347 18.6242 76.7353 18.8512V18.8512Z" fill="white"/>
<path d="M81.411 20.8778C81.2249 22.1105 80.0336 22.9564 78.5095 22.9564C76.5492 22.9564 75.3325 21.6329 75.3325 19.5096C75.3325 17.3798 76.5558 15.9984 78.4513 15.9984C80.3156 15.9984 81.488 17.2889 81.488 19.3478V19.8253H76.7288V19.9095C76.7068 20.1594 76.7378 20.4112 76.8198 20.6481C76.9018 20.885 77.0329 21.1015 77.2044 21.2835C77.3758 21.4654 77.5837 21.6084 77.8142 21.7032C78.0448 21.7979 78.2927 21.8421 78.5415 21.8329C78.8683 21.8637 79.1963 21.7875 79.4767 21.6154C79.7571 21.4433 79.9748 21.1846 80.0976 20.8778L81.411 20.8778ZM76.7353 18.8512H80.1041C80.1166 18.6265 80.0827 18.4016 80.0048 18.1907C79.9269 17.9798 79.8066 17.7874 79.6514 17.6256C79.4962 17.4638 79.3095 17.336 79.103 17.2504C78.8965 17.1647 78.6746 17.123 78.4513 17.1278C78.2261 17.1265 78.0028 17.1701 77.7944 17.2561C77.586 17.3422 77.3965 17.469 77.237 17.6292C77.0774 17.7894 76.951 17.9799 76.8649 18.1896C76.7787 18.3994 76.7347 18.6242 76.7353 18.8512V18.8512Z" fill="#B7B7B7"/>
<path d="M28.1529 6.54835C28.4429 6.52738 28.7339 6.57153 29.0049 6.6776C29.2759 6.78368 29.5202 6.94904 29.7201 7.16176C29.92 7.37447 30.0705 7.62925 30.1609 7.9077C30.2512 8.18616 30.2791 8.48135 30.2426 8.77198C30.2426 10.2017 29.4758 11.0235 28.1529 11.0235H26.5488V6.54835H28.1529ZM27.2386 10.3906H28.0759C28.2831 10.4031 28.4905 10.3688 28.6829 10.2904C28.8753 10.2119 29.0479 10.0912 29.1882 9.93704C29.3285 9.78287 29.4329 9.59911 29.4939 9.39915C29.5548 9.19918 29.5707 8.98804 29.5404 8.7811C29.5685 8.57498 29.551 8.36515 29.4891 8.16665C29.4273 7.96815 29.3226 7.7859 29.1826 7.63295C29.0426 7.48 28.8708 7.36015 28.6795 7.28197C28.4882 7.20379 28.282 7.16923 28.0759 7.18076H27.2386V10.3906Z" fill="white"/>
<path d="M28.1529 6.54835C28.4429 6.52738 28.7339 6.57153 29.0049 6.6776C29.2759 6.78368 29.5202 6.94904 29.7201 7.16176C29.92 7.37447 30.0705 7.62925 30.1609 7.9077C30.2512 8.18616 30.2791 8.48135 30.2426 8.77198C30.2426 10.2017 29.4758 11.0235 28.1529 11.0235H26.5488V6.54835H28.1529ZM27.2386 10.3906H28.0759C28.2831 10.4031 28.4905 10.3688 28.6829 10.2904C28.8753 10.2119 29.0479 10.0912 29.1882 9.93704C29.3285 9.78287 29.4329 9.59911 29.4939 9.39915C29.5548 9.19918 29.5707 8.98804 29.5404 8.7811C29.5685 8.57498 29.551 8.36515 29.4891 8.16665C29.4273 7.96815 29.3226 7.7859 29.1826 7.63295C29.0426 7.48 28.8708 7.36015 28.6795 7.28197C28.4882 7.20379 28.282 7.16923 28.0759 7.18076H27.2386V10.3906Z" fill="#B7B7B7"/>
<path d="M31.0216 9.3334C31.0006 9.11146 31.0258 8.88753 31.0956 8.67598C31.1654 8.46443 31.2784 8.26992 31.4272 8.10494C31.576 7.93995 31.7574 7.80813 31.9597 7.71792C32.1621 7.62771 32.3809 7.58112 32.6021 7.58112C32.8234 7.58112 33.0422 7.62771 33.2445 7.71792C33.4468 7.80813 33.6282 7.93995 33.777 8.10494C33.9258 8.26992 34.0388 8.46443 34.1086 8.67598C34.1785 8.88753 34.2037 9.11146 34.1826 9.3334C34.2041 9.55557 34.1792 9.7798 34.1095 9.9917C34.0399 10.2036 33.927 10.3985 33.7781 10.5638C33.6293 10.7291 33.4478 10.8612 33.2452 10.9516C33.0427 11.042 32.8236 11.0887 32.6021 11.0887C32.3806 11.0887 32.1615 11.042 31.959 10.9516C31.7565 10.8612 31.575 10.7291 31.4261 10.5638C31.2773 10.3985 31.1644 10.2036 31.0947 9.9917C31.0251 9.7798 31.0002 9.55557 31.0216 9.3334ZM33.5023 9.3334C33.5023 8.60135 33.1759 8.17325 32.6032 8.17325C32.0283 8.17325 31.7049 8.60135 31.7049 9.33341C31.7049 10.0713 32.0283 10.4961 32.6032 10.4961C33.176 10.4961 33.5023 10.0684 33.5023 9.3334H33.5023Z" fill="white"/>
<path d="M31.0216 9.3334C31.0006 9.11146 31.0258 8.88753 31.0956 8.67598C31.1654 8.46443 31.2784 8.26992 31.4272 8.10494C31.576 7.93995 31.7574 7.80813 31.9597 7.71792C32.1621 7.62771 32.3809 7.58112 32.6021 7.58112C32.8234 7.58112 33.0422 7.62771 33.2445 7.71792C33.4468 7.80813 33.6282 7.93995 33.777 8.10494C33.9258 8.26992 34.0388 8.46443 34.1086 8.67598C34.1785 8.88753 34.2037 9.11146 34.1826 9.3334C34.2041 9.55557 34.1792 9.7798 34.1095 9.9917C34.0399 10.2036 33.927 10.3985 33.7781 10.5638C33.6293 10.7291 33.4478 10.8612 33.2452 10.9516C33.0427 11.042 32.8236 11.0887 32.6021 11.0887C32.3806 11.0887 32.1615 11.042 31.959 10.9516C31.7565 10.8612 31.575 10.7291 31.4261 10.5638C31.2773 10.3985 31.1644 10.2036 31.0947 9.9917C31.0251 9.7798 31.0002 9.55557 31.0216 9.3334ZM33.5023 9.3334C33.5023 8.60135 33.1759 8.17325 32.6032 8.17325C32.0283 8.17325 31.7049 8.60135 31.7049 9.33341C31.7049 10.0713 32.0283 10.4961 32.6032 10.4961C33.176 10.4961 33.5023 10.0684 33.5023 9.3334H33.5023Z" fill="#B7B7B7"/>
<path d="M38.3844 11.0234H37.6983L37.0056 8.53613H36.9533L36.2635 11.0234H35.584L34.6602 7.64624H35.331L35.9314 10.2232H35.9808L36.6698 7.64624H37.3044L37.9934 10.2232H38.0457L38.6432 7.64624H39.3046L38.3844 11.0234Z" fill="white"/>
<path d="M38.3844 11.0234H37.6983L37.0056 8.53613H36.9533L36.2635 11.0234H35.584L34.6602 7.64624H35.331L35.9314 10.2232H35.9808L36.6698 7.64624H37.3044L37.9934 10.2232H38.0457L38.6432 7.64624H39.3046L38.3844 11.0234Z" fill="#B7B7B7"/>
<path d="M40.0815 7.64621H40.7182V8.18271H40.7677C40.8515 7.99002 40.9929 7.82849 41.1722 7.72064C41.3515 7.61278 41.5597 7.56398 41.7678 7.58102C41.9309 7.56867 42.0946 7.59344 42.2469 7.65352C42.3991 7.71359 42.5361 7.80742 42.6475 7.92805C42.7589 8.04868 42.8419 8.19303 42.8904 8.35039C42.939 8.50776 42.9517 8.67411 42.9278 8.83712V11.0234H42.2664V9.00449C42.2664 8.46177 42.0324 8.19187 41.5432 8.19187C41.4325 8.18667 41.322 8.20566 41.2192 8.24753C41.1165 8.28941 41.0239 8.35317 40.9479 8.43446C40.8719 8.51575 40.8142 8.61264 40.7788 8.71849C40.7435 8.82433 40.7312 8.93664 40.743 9.0477V11.0234H40.0815L40.0815 7.64621Z" fill="white"/>
<path d="M40.0815 7.64621H40.7182V8.18271H40.7677C40.8515 7.99002 40.9929 7.82849 41.1722 7.72064C41.3515 7.61278 41.5597 7.56398 41.7678 7.58102C41.9309 7.56867 42.0946 7.59344 42.2469 7.65352C42.3991 7.71359 42.5361 7.80742 42.6475 7.92805C42.7589 8.04868 42.8419 8.19303 42.8904 8.35039C42.939 8.50776 42.9517 8.67411 42.9278 8.83712V11.0234H42.2664V9.00449C42.2664 8.46177 42.0324 8.19187 41.5432 8.19187C41.4325 8.18667 41.322 8.20566 41.2192 8.24753C41.1165 8.28941 41.0239 8.35317 40.9479 8.43446C40.8719 8.51575 40.8142 8.61264 40.7788 8.71849C40.7435 8.82433 40.7312 8.93664 40.743 9.0477V11.0234H40.0815L40.0815 7.64621Z" fill="#B7B7B7"/>
<path d="M43.9819 6.32788H44.6433V11.0234H43.9819V6.32788Z" fill="white"/>
<path d="M43.9819 6.32788H44.6433V11.0234H43.9819V6.32788Z" fill="#B7B7B7"/>
<path d="M45.5626 9.3334C45.5416 9.11145 45.5668 8.88751 45.6367 8.67595C45.7065 8.46439 45.8195 8.26988 45.9683 8.10489C46.1171 7.9399 46.2985 7.80807 46.5009 7.71786C46.7032 7.62765 46.922 7.58105 47.1433 7.58105C47.3646 7.58105 47.5834 7.62765 47.7857 7.71786C47.9881 7.80807 48.1695 7.9399 48.3183 8.10489C48.4671 8.26988 48.5801 8.46439 48.65 8.67595C48.7198 8.88751 48.745 9.11145 48.724 9.3334C48.7454 9.55558 48.7205 9.77981 48.6508 9.99171C48.5811 10.2036 48.4682 10.3985 48.3194 10.5638C48.1705 10.7291 47.989 10.8612 47.7864 10.9516C47.5839 11.042 47.3648 11.0887 47.1433 11.0887C46.9218 11.0887 46.7027 11.042 46.5002 10.9516C46.2976 10.8612 46.1161 10.7291 45.9672 10.5638C45.8184 10.3985 45.7055 10.2036 45.6358 9.99171C45.5661 9.77981 45.5412 9.55558 45.5626 9.3334ZM48.0433 9.3334C48.0433 8.60135 47.7169 8.17325 47.1442 8.17325C46.5693 8.17325 46.2459 8.60135 46.2459 9.33341C46.2459 10.0713 46.5693 10.4961 47.1442 10.4961C47.7169 10.4961 48.0433 10.0684 48.0433 9.3334H48.0433Z" fill="white"/>
<path d="M45.5626 9.3334C45.5416 9.11145 45.5668 8.88751 45.6367 8.67595C45.7065 8.46439 45.8195 8.26988 45.9683 8.10489C46.1171 7.9399 46.2985 7.80807 46.5009 7.71786C46.7032 7.62765 46.922 7.58105 47.1433 7.58105C47.3646 7.58105 47.5834 7.62765 47.7857 7.71786C47.9881 7.80807 48.1695 7.9399 48.3183 8.10489C48.4671 8.26988 48.5801 8.46439 48.65 8.67595C48.7198 8.88751 48.745 9.11145 48.724 9.3334C48.7454 9.55558 48.7205 9.77981 48.6508 9.99171C48.5811 10.2036 48.4682 10.3985 48.3194 10.5638C48.1705 10.7291 47.989 10.8612 47.7864 10.9516C47.5839 11.042 47.3648 11.0887 47.1433 11.0887C46.9218 11.0887 46.7027 11.042 46.5002 10.9516C46.2976 10.8612 46.1161 10.7291 45.9672 10.5638C45.8184 10.3985 45.7055 10.2036 45.6358 9.99171C45.5661 9.77981 45.5412 9.55558 45.5626 9.3334ZM48.0433 9.3334C48.0433 8.60135 47.7169 8.17325 47.1442 8.17325C46.5693 8.17325 46.2459 8.60135 46.2459 9.33341C46.2459 10.0713 46.5693 10.4961 47.1442 10.4961C47.7169 10.4961 48.0433 10.0684 48.0433 9.3334H48.0433Z" fill="#B7B7B7"/>
<path d="M49.4204 10.0684C49.4204 9.46044 49.8696 9.10998 50.6669 9.06017L51.5747 9.00744V8.71594C51.5747 8.35925 51.3407 8.15783 50.8886 8.15783C50.5194 8.15783 50.2635 8.29443 50.1901 8.5332H49.5498C49.6174 7.95312 50.1589 7.58105 50.9191 7.58105C51.7593 7.58105 52.2332 8.00256 52.2332 8.71594V11.0234H51.5965V10.5488H51.5442C51.438 10.7191 51.2888 10.8579 51.112 10.951C50.9351 11.0442 50.7369 11.0884 50.5375 11.0791C50.3969 11.0938 50.2547 11.0787 50.1201 11.0347C49.9856 10.9906 49.8617 10.9187 49.7564 10.8235C49.6512 10.7283 49.5669 10.6119 49.509 10.4818C49.4512 10.3517 49.421 10.2109 49.4204 10.0684ZM51.5747 9.77978V9.49743L50.7563 9.55016C50.2948 9.58129 50.0855 9.73949 50.0855 10.0372C50.0855 10.3412 50.3471 10.5181 50.7069 10.5181C50.8123 10.5288 50.9188 10.5181 51.0201 10.4865C51.1213 10.4549 51.2152 10.4032 51.2961 10.3343C51.3771 10.2654 51.4435 10.1808 51.4913 10.0856C51.5392 9.9903 51.5676 9.88631 51.5747 9.77978Z" fill="white"/>
<path d="M49.4204 10.0684C49.4204 9.46044 49.8696 9.10998 50.6669 9.06017L51.5747 9.00744V8.71594C51.5747 8.35925 51.3407 8.15783 50.8886 8.15783C50.5194 8.15783 50.2635 8.29443 50.1901 8.5332H49.5498C49.6174 7.95312 50.1589 7.58105 50.9191 7.58105C51.7593 7.58105 52.2332 8.00256 52.2332 8.71594V11.0234H51.5965V10.5488H51.5442C51.438 10.7191 51.2888 10.8579 51.112 10.951C50.9351 11.0442 50.7369 11.0884 50.5375 11.0791C50.3969 11.0938 50.2547 11.0787 50.1201 11.0347C49.9856 10.9906 49.8617 10.9187 49.7564 10.8235C49.6512 10.7283 49.5669 10.6119 49.509 10.4818C49.4512 10.3517 49.421 10.2109 49.4204 10.0684ZM51.5747 9.77978V9.49743L50.7563 9.55016C50.2948 9.58129 50.0855 9.73949 50.0855 10.0372C50.0855 10.3412 50.3471 10.5181 50.7069 10.5181C50.8123 10.5288 50.9188 10.5181 51.0201 10.4865C51.1213 10.4549 51.2152 10.4032 51.2961 10.3343C51.3771 10.2654 51.4435 10.1808 51.4913 10.0856C51.5392 9.9903 51.5676 9.88631 51.5747 9.77978Z" fill="#B7B7B7"/>
<path d="M53.1025 9.33339C53.1025 8.26625 53.6469 7.59022 54.4937 7.59022C54.7031 7.5805 54.911 7.63105 55.093 7.73597C55.275 7.84089 55.4236 7.99584 55.5214 8.18272H55.5709V6.32788H56.2323V11.0234H55.5985V10.4899H55.5461C55.4407 10.6755 55.287 10.8285 55.1015 10.9324C54.9159 11.0362 54.7058 11.087 54.4937 11.0791C53.6411 11.0791 53.1025 10.4031 53.1025 9.33339ZM53.7858 9.33339C53.7858 10.0497 54.1209 10.4807 54.6812 10.4807C55.2387 10.4807 55.5832 10.0435 55.5832 9.33632C55.5832 8.63246 55.2351 8.18898 54.6812 8.18898C54.1245 8.18898 53.7858 8.62293 53.7858 9.33339H53.7858Z" fill="white"/>
<path d="M53.1025 9.33339C53.1025 8.26625 53.6469 7.59022 54.4937 7.59022C54.7031 7.5805 54.911 7.63105 55.093 7.73597C55.275 7.84089 55.4236 7.99584 55.5214 8.18272H55.5709V6.32788H56.2323V11.0234H55.5985V10.4899H55.5461C55.4407 10.6755 55.287 10.8285 55.1015 10.9324C54.9159 11.0362 54.7058 11.087 54.4937 11.0791C53.6411 11.0791 53.1025 10.4031 53.1025 9.33339ZM53.7858 9.33339C53.7858 10.0497 54.1209 10.4807 54.6812 10.4807C55.2387 10.4807 55.5832 10.0435 55.5832 9.33632C55.5832 8.63246 55.2351 8.18898 54.6812 8.18898C54.1245 8.18898 53.7858 8.62293 53.7858 9.33339H53.7858Z" fill="#B7B7B7"/>
<path d="M58.9684 9.3334C58.9473 9.11146 58.9725 8.88753 59.0424 8.67598C59.1122 8.46443 59.2252 8.26992 59.374 8.10494C59.5228 7.93995 59.7042 7.80813 59.9065 7.71792C60.1088 7.62771 60.3277 7.58112 60.5489 7.58112C60.7701 7.58112 60.989 7.62771 61.1913 7.71792C61.3936 7.80813 61.575 7.93995 61.7238 8.10494C61.8726 8.26992 61.9856 8.46443 62.0554 8.67598C62.1253 8.88753 62.1505 9.11146 62.1294 9.3334C62.1509 9.55557 62.126 9.7798 62.0563 9.9917C61.9866 10.2036 61.8738 10.3985 61.7249 10.5638C61.5761 10.7291 61.3945 10.8612 61.192 10.9516C60.9895 11.042 60.7704 11.0887 60.5489 11.0887C60.3274 11.0887 60.1083 11.042 59.9058 10.9516C59.7033 10.8612 59.5217 10.7291 59.3729 10.5638C59.224 10.3985 59.1112 10.2036 59.0415 9.9917C58.9718 9.7798 58.9469 9.55557 58.9684 9.3334ZM61.4491 9.3334C61.4491 8.60135 61.1227 8.17325 60.55 8.17325C59.9751 8.17325 59.6517 8.60135 59.6517 9.33341C59.6517 10.0713 59.9751 10.4961 60.55 10.4961C61.1227 10.4961 61.4491 10.0684 61.4491 9.3334Z" fill="white"/>
<path d="M58.9684 9.3334C58.9473 9.11146 58.9725 8.88753 59.0424 8.67598C59.1122 8.46443 59.2252 8.26992 59.374 8.10494C59.5228 7.93995 59.7042 7.80813 59.9065 7.71792C60.1088 7.62771 60.3277 7.58112 60.5489 7.58112C60.7701 7.58112 60.989 7.62771 61.1913 7.71792C61.3936 7.80813 61.575 7.93995 61.7238 8.10494C61.8726 8.26992 61.9856 8.46443 62.0554 8.67598C62.1253 8.88753 62.1505 9.11146 62.1294 9.3334C62.1509 9.55557 62.126 9.7798 62.0563 9.9917C61.9866 10.2036 61.8738 10.3985 61.7249 10.5638C61.5761 10.7291 61.3945 10.8612 61.192 10.9516C60.9895 11.042 60.7704 11.0887 60.5489 11.0887C60.3274 11.0887 60.1083 11.042 59.9058 10.9516C59.7033 10.8612 59.5217 10.7291 59.3729 10.5638C59.224 10.3985 59.1112 10.2036 59.0415 9.9917C58.9718 9.7798 58.9469 9.55557 58.9684 9.3334ZM61.4491 9.3334C61.4491 8.60135 61.1227 8.17325 60.55 8.17325C59.9751 8.17325 59.6517 8.60135 59.6517 9.33341C59.6517 10.0713 59.9751 10.4961 60.55 10.4961C61.1227 10.4961 61.4491 10.0684 61.4491 9.3334Z" fill="#B7B7B7"/>
<path d="M63.0171 7.64621H63.6538V8.18271H63.7032C63.7871 7.99002 63.9285 7.82849 64.1078 7.72064C64.287 7.61278 64.4952 7.56398 64.7033 7.58102C64.8664 7.56867 65.0301 7.59344 65.1824 7.65352C65.3347 7.71359 65.4716 7.80742 65.583 7.92805C65.6944 8.04868 65.7775 8.19303 65.826 8.35039C65.8745 8.50776 65.8873 8.67411 65.8634 8.83712V11.0234H65.2019V9.00449C65.2019 8.46177 64.9679 8.19187 64.4788 8.19187C64.368 8.18667 64.2575 8.20566 64.1548 8.24753C64.052 8.28941 63.9595 8.35317 63.8834 8.43446C63.8074 8.51575 63.7498 8.61264 63.7144 8.71849C63.679 8.82433 63.6668 8.93664 63.6785 9.0477V11.0234H63.0171V7.64621Z" fill="white"/>
<path d="M63.0171 7.64621H63.6538V8.18271H63.7032C63.7871 7.99002 63.9285 7.82849 64.1078 7.72064C64.287 7.61278 64.4952 7.56398 64.7033 7.58102C64.8664 7.56867 65.0301 7.59344 65.1824 7.65352C65.3347 7.71359 65.4716 7.80742 65.583 7.92805C65.6944 8.04868 65.7775 8.19303 65.826 8.35039C65.8745 8.50776 65.8873 8.67411 65.8634 8.83712V11.0234H65.2019V9.00449C65.2019 8.46177 64.9679 8.19187 64.4788 8.19187C64.368 8.18667 64.2575 8.20566 64.1548 8.24753C64.052 8.28941 63.9595 8.35317 63.8834 8.43446C63.8074 8.51575 63.7498 8.61264 63.7144 8.71849C63.679 8.82433 63.6668 8.93664 63.6785 9.0477V11.0234H63.0171V7.64621Z" fill="#B7B7B7"/>
<path d="M69.6004 6.80542V7.66162H70.3265V8.22302H69.6004V9.9596C69.6004 10.3134 69.7451 10.4683 70.0743 10.4683C70.1586 10.468 70.2428 10.4629 70.3265 10.4529V11.0081C70.2078 11.0295 70.0874 11.0409 69.9667 11.0421C69.2312 11.0421 68.9383 10.7814 68.9383 10.1302V8.22299H68.4062V7.66159H68.9383V6.80542H69.6004Z" fill="white"/>
<path d="M69.6004 6.80542V7.66162H70.3265V8.22302H69.6004V9.9596C69.6004 10.3134 69.7451 10.4683 70.0743 10.4683C70.1586 10.468 70.2428 10.4629 70.3265 10.4529V11.0081C70.2078 11.0295 70.0874 11.0409 69.9667 11.0421C69.2312 11.0421 68.9383 10.7814 68.9383 10.1302V8.22299H68.4062V7.66159H68.9383V6.80542H69.6004Z" fill="#B7B7B7"/>
<path d="M71.23 6.32788H71.8856V8.18897H71.9379C72.0258 7.99448 72.1711 7.83203 72.354 7.72377C72.5369 7.61551 72.7484 7.5667 72.9598 7.58399C73.122 7.57509 73.2842 7.60238 73.4347 7.66392C73.5853 7.72545 73.7205 7.8197 73.8307 7.93996C73.941 8.06021 74.0235 8.2035 74.0725 8.3596C74.1215 8.5157 74.1356 8.68077 74.114 8.84302V11.0234H73.4519V9.00744C73.4519 8.46801 73.2026 8.19482 72.7353 8.19482C72.6216 8.18542 72.5072 8.20117 72.4002 8.24096C72.2932 8.28075 72.1961 8.34362 72.1158 8.42518C72.0354 8.50673 71.9737 8.60499 71.9349 8.7131C71.8962 8.8212 71.8813 8.93653 71.8914 9.05102V11.0234H71.23L71.23 6.32788Z" fill="white"/>
<path d="M71.23 6.32788H71.8856V8.18897H71.9379C72.0258 7.99448 72.1711 7.83203 72.354 7.72377C72.5369 7.61551 72.7484 7.5667 72.9598 7.58399C73.122 7.57509 73.2842 7.60238 73.4347 7.66392C73.5853 7.72545 73.7205 7.8197 73.8307 7.93996C73.941 8.06021 74.0235 8.2035 74.0725 8.3596C74.1215 8.5157 74.1356 8.68077 74.114 8.84302V11.0234H73.4519V9.00744C73.4519 8.46801 73.2026 8.19482 72.7353 8.19482C72.6216 8.18542 72.5072 8.20117 72.4002 8.24096C72.2932 8.28075 72.1961 8.34362 72.1158 8.42518C72.0354 8.50673 71.9737 8.60499 71.9349 8.7131C71.8962 8.8212 71.8813 8.93653 71.8914 9.05102V11.0234H71.23L71.23 6.32788Z" fill="#B7B7B7"/>
<path d="M77.9707 10.1116C77.8808 10.4202 77.6861 10.6872 77.4206 10.8658C77.1552 11.0444 76.8358 11.1233 76.5185 11.0886C76.2977 11.0945 76.0783 11.0519 75.8754 10.9637C75.6726 10.8756 75.4913 10.744 75.344 10.5782C75.1967 10.4123 75.087 10.2161 75.0225 10.0033C74.9579 9.79041 74.9402 9.56594 74.9703 9.34546C74.9409 9.12429 74.959 8.89934 75.0234 8.68584C75.0878 8.47233 75.1969 8.27526 75.3434 8.10795C75.49 7.94065 75.6704 7.80702 75.8727 7.71611C76.0749 7.62521 76.2941 7.57915 76.5156 7.58105C77.4481 7.58105 78.0107 8.22305 78.0107 9.28355V9.51612H75.6441V9.55347C75.6338 9.6774 75.6492 9.80215 75.6895 9.91971C75.7298 10.0373 75.794 10.1451 75.878 10.2361C75.9621 10.3272 76.0641 10.3996 76.1775 10.4487C76.2909 10.4977 76.4132 10.5223 76.5366 10.521C76.6949 10.5401 76.8551 10.5114 76.9971 10.4385C77.1391 10.3656 77.2564 10.2518 77.334 10.1115L77.9707 10.1116ZM75.6441 9.02319H77.3369C77.3452 8.90984 77.3299 8.79599 77.292 8.68895C77.2541 8.58191 77.1943 8.48405 77.1167 8.40166C77.039 8.31927 76.945 8.25416 76.8409 8.21053C76.7367 8.1669 76.6247 8.14571 76.5119 8.14831C76.3975 8.14686 76.284 8.16851 76.178 8.21197C76.0721 8.25542 75.9758 8.31982 75.8949 8.40135C75.8141 8.48289 75.7502 8.57991 75.7071 8.68671C75.6641 8.79351 75.6426 8.90791 75.6441 9.02319H75.6441Z" fill="white"/>
<path d="M77.9707 10.1116C77.8808 10.4202 77.6861 10.6872 77.4206 10.8658C77.1552 11.0444 76.8358 11.1233 76.5185 11.0886C76.2977 11.0945 76.0783 11.0519 75.8754 10.9637C75.6726 10.8756 75.4913 10.744 75.344 10.5782C75.1967 10.4123 75.087 10.2161 75.0225 10.0033C74.9579 9.79041 74.9402 9.56594 74.9703 9.34546C74.9409 9.12429 74.959 8.89934 75.0234 8.68584C75.0878 8.47233 75.1969 8.27526 75.3434 8.10795C75.49 7.94065 75.6704 7.80702 75.8727 7.71611C76.0749 7.62521 76.2941 7.57915 76.5156 7.58105C77.4481 7.58105 78.0107 8.22305 78.0107 9.28355V9.51612H75.6441V9.55347C75.6338 9.6774 75.6492 9.80215 75.6895 9.91971C75.7298 10.0373 75.794 10.1451 75.878 10.2361C75.9621 10.3272 76.0641 10.3996 76.1775 10.4487C76.2909 10.4977 76.4132 10.5223 76.5366 10.521C76.6949 10.5401 76.8551 10.5114 76.9971 10.4385C77.1391 10.3656 77.2564 10.2518 77.334 10.1115L77.9707 10.1116ZM75.6441 9.02319H77.3369C77.3452 8.90984 77.3299 8.79599 77.292 8.68895C77.2541 8.58191 77.1943 8.48405 77.1167 8.40166C77.039 8.31927 76.945 8.25416 76.8409 8.21053C76.7367 8.1669 76.6247 8.14571 76.5119 8.14831C76.3975 8.14686 76.284 8.16851 76.178 8.21197C76.0721 8.25542 75.9758 8.31982 75.8949 8.40135C75.8141 8.48289 75.7502 8.57991 75.7071 8.68671C75.6641 8.79351 75.6426 8.90791 75.6441 9.02319H75.6441Z" fill="#B7B7B7"/>
</svg>
