<svg width="64" height="64" viewBox="0 0 64 64" fill="none" xmlns="http://www.w3.org/2000/svg">
<circle cx="32" cy="32" r="32" fill="#A98D4B"/>
<circle cx="32" cy="32" r="24.5" stroke="white"/>
<path fill-rule="evenodd" clip-rule="evenodd" d="M32.9054 22.1352C32.4055 21.6353 31.595 21.6353 31.0952 22.1352C30.5953 22.635 30.5953 23.4455 31.0952 23.9454L37.8701 30.7203H23.0403C22.3333 30.7203 21.7603 31.2933 21.7603 32.0003C21.7603 32.7072 22.3333 33.2803 23.0403 33.2803H37.8701L31.0952 40.0552C30.5953 40.555 30.5953 41.3655 31.0952 41.8654C31.595 42.3652 32.4055 42.3652 32.9054 41.8654L41.8653 32.9053C42.3652 32.4055 42.3652 31.595 41.8653 31.0952L32.9054 22.1352Z" fill="white"/>
</svg>
