<svg width="40" height="40" viewBox="0 0 40 40" fill="none" xmlns="http://www.w3.org/2000/svg">
<circle cx="20" cy="20" r="19.5" fill="white" stroke="#A98D4B"/>
<path d="M23.375 21.4286H32V27.8571C32 29.0406 31.0346 30 29.8438 30H11.1562C9.96537 30 9 29.0406 9 27.8571V21.4286H17.625V22.3214C17.625 22.6173 17.8664 22.8571 18.1641 22.8571H22.8359C23.1336 22.8571 23.375 22.6173 23.375 22.3214V21.4286ZM32 16.4286V20H9V16.4286C9 15.2451 9.96537 14.2857 11.1562 14.2857H14.75V12.1429C14.75 10.9594 15.7154 10 16.9062 10H24.0938C25.2846 10 26.25 10.9594 26.25 12.1429V14.2857H29.8438C31.0346 14.2857 32 15.2451 32 16.4286ZM23.375 12.8571H17.625V14.2857H23.375V12.8571Z" fill="#A98D4B"/>
</svg>
