<svg width="18" height="20" viewBox="0 0 18 20" fill="none" xmlns="http://www.w3.org/2000/svg">
<path d="M17.0312 6.25H0.46875C0.210938 6.25 0 6.03906 0 5.78125V4.375C0 3.33984 0.839844 2.5 1.875 2.5H3.75V0.46875C3.75 0.210938 3.96094 0 4.21875 0H5.78125C6.03906 0 6.25 0.210938 6.25 0.46875V2.5H11.25V0.46875C11.25 0.210938 11.4609 0 11.7188 0H13.2812C13.5391 0 13.75 0.210938 13.75 0.46875V2.5H15.625C16.6602 2.5 17.5 3.33984 17.5 4.375V5.78125C17.5 6.03906 17.2891 6.25 17.0312 6.25ZM0.46875 7.5H17.0312C17.2891 7.5 17.5 7.71094 17.5 7.96875V18.125C17.5 19.1602 16.6602 20 15.625 20H1.875C0.839844 20 0 19.1602 0 18.125V7.96875C0 7.71094 0.210938 7.5 0.46875 7.5ZM5 15.4688C5 15.2109 4.78906 15 4.53125 15H2.96875C2.71094 15 2.5 15.2109 2.5 15.4688V17.0312C2.5 17.2891 2.71094 17.5 2.96875 17.5H4.53125C4.78906 17.5 5 17.2891 5 17.0312V15.4688ZM5 10.4688C5 10.2109 4.78906 10 4.53125 10H2.96875C2.71094 10 2.5 10.2109 2.5 10.4688V12.0312C2.5 12.2891 2.71094 12.5 2.96875 12.5H4.53125C4.78906 12.5 5 12.2891 5 12.0312V10.4688ZM10 15.4688C10 15.2109 9.78906 15 9.53125 15H7.96875C7.71094 15 7.5 15.2109 7.5 15.4688V17.0312C7.5 17.2891 7.71094 17.5 7.96875 17.5H9.53125C9.78906 17.5 10 17.2891 10 17.0312V15.4688ZM10 10.4688C10 10.2109 9.78906 10 9.53125 10H7.96875C7.71094 10 7.5 10.2109 7.5 10.4688V12.0312C7.5 12.2891 7.71094 12.5 7.96875 12.5H9.53125C9.78906 12.5 10 12.2891 10 12.0312V10.4688ZM15 15.4688C15 15.2109 14.7891 15 14.5312 15H12.9688C12.7109 15 12.5 15.2109 12.5 15.4688V17.0312C12.5 17.2891 12.7109 17.5 12.9688 17.5H14.5312C14.7891 17.5 15 17.2891 15 17.0312V15.4688ZM15 10.4688C15 10.2109 14.7891 10 14.5312 10H12.9688C12.7109 10 12.5 10.2109 12.5 10.4688V12.0312C12.5 12.2891 12.7109 12.5 12.9688 12.5H14.5312C14.7891 12.5 15 12.2891 15 12.0312V10.4688Z" fill="#A98D4B"/>
</svg>
