<svg width="16" height="16" viewBox="0 0 16 16" fill="none" xmlns="http://www.w3.org/2000/svg">
<path fill-rule="evenodd" clip-rule="evenodd" d="M0 8C0 3.576 3.576 0 8 0C12.424 0 16 3.576 16 8C16 12.424 12.424 16 8 16C3.576 16 0 12.424 0 8ZM10.312 11.4412C10.624 11.7532 11.128 11.7532 11.44 11.4412C11.744 11.1292 11.744 10.6172 11.44 10.3132L9.128 8.00121L11.44 5.68921C11.752 5.37721 11.752 4.87321 11.44 4.56121C11.128 4.24921 10.624 4.24921 10.312 4.56121L8 6.87321L5.688 4.56121C5.376 4.24921 4.872 4.24921 4.56 4.56121C4.41019 4.71067 4.32601 4.91359 4.32601 5.12521C4.32601 5.33682 4.41019 5.53974 4.56 5.68921L6.872 8.00121L4.56 10.3132C4.41019 10.4627 4.32601 10.6656 4.32601 10.8772C4.32601 11.0888 4.41019 11.2917 4.56 11.4412C4.872 11.7532 5.376 11.7532 5.688 11.4412L8 9.1292L10.312 11.4412Z" fill="#7D2B8B"/>
</svg>
