<svg width="16" height="16" viewBox="0 0 16 16" fill="none" xmlns="http://www.w3.org/2000/svg">
<path fill-rule="evenodd" clip-rule="evenodd" d="M0 8C0 3.58172 3.58172 0 8 0C12.4183 0 16 3.58172 16 8C16 12.4183 12.4183 16 8 16C3.58172 16 0 12.4183 0 8Z" fill="#A98D4B"/>
<path fill-rule="evenodd" clip-rule="evenodd" d="M11.9306 5.23438C12.243 5.54679 12.243 6.05333 11.9306 6.36575L6.9649 11.5657C6.65249 11.8782 6.14595 11.8782 5.83353 11.5657L3.43353 9.16575C3.12111 8.85333 3.12111 8.3468 3.43353 8.03438C3.74595 7.72196 4.25248 7.72196 4.5649 8.03438L6.39922 9.86869L10.7992 5.23438C11.1116 4.92196 11.6182 4.92196 11.9306 5.23438Z" fill="white"/>
</svg>
