<svg width="20" height="20" viewBox="0 0 20 20" fill="none" xmlns="http://www.w3.org/2000/svg">
<path fill-rule="evenodd" clip-rule="evenodd" d="M0 10C0 4.47715 4.47715 0 10 0C15.5228 0 20 4.47715 20 10C20 15.5228 15.5228 20 10 20C4.47715 20 0 15.5228 0 10Z" fill="#A98D4B"/>
<path fill-rule="evenodd" clip-rule="evenodd" d="M14.8278 6.40305C15.1828 6.75808 15.1828 7.33368 14.8278 7.6887L9.18495 13.5978C8.82993 13.9528 8.25432 13.9528 7.8993 13.5978L5.17203 10.8705C4.81701 10.5155 4.81701 9.9399 5.17203 9.58487C5.52705 9.22985 6.10265 9.22985 6.45768 9.58487L8.54213 11.6693L13.5421 6.40305C13.8971 6.04803 14.4728 6.04803 14.8278 6.40305Z" fill="white"/>
</svg>
