<svg width="50" height="50" viewBox="0 0 50 50" fill="none" xmlns="http://www.w3.org/2000/svg">
<circle cx="25" cy="25" r="25" fill="#F2EAF3"/>
<circle opacity="0.6" cx="25" cy="25" r="20" fill="#7D2B8B"/>
<path fill-rule="evenodd" clip-rule="evenodd" d="M23.7399 24.7399C25.878 24.7399 27.6098 23.0081 27.6098 20.8699C27.6098 18.7318 25.878 17 23.7399 17C21.6017 17 19.8699 18.7318 19.8699 20.8699C19.8699 23.0081 21.6017 24.7399 23.7399 24.7399ZM24.7073 32.4797L23.8753 31.6477C22.7337 30.506 22.7433 28.6485 23.8947 27.5262L24.7073 26.7329C24.33 26.6942 24.0494 26.6748 23.7399 26.6748C21.1567 26.6748 16 27.9712 16 30.5447V32.4797H24.7073ZM25.3747 30.2448L27.3774 32.2668C27.7547 32.6442 28.3739 32.6442 28.7512 32.2668L33.724 27.2553C34.0917 26.8876 34.0917 26.2878 33.724 25.9105L33.7144 25.9008C33.337 25.5235 32.7275 25.5235 32.3502 25.9008L28.0643 30.2158L26.7388 28.8903C26.3712 28.513 25.7617 28.513 25.3843 28.8903L25.3747 28.9C25.007 29.2677 25.007 29.8675 25.3747 30.2448Z" fill="white"/>
</svg>
