<svg width="30" height="30" viewBox="0 0 30 30" fill="none" xmlns="http://www.w3.org/2000/svg">
<circle cx="15" cy="15" r="15" fill="#FAFAFA"/>
<path fill-rule="evenodd" clip-rule="evenodd" d="M19.8463 8.80884C19.7796 8.80884 19.713 8.79217 19.6546 8.75883C18.0543 7.93362 16.6707 7.58354 15.012 7.58354C13.3616 7.58354 11.7947 7.9753 10.3694 8.75883C10.1693 8.86719 9.91926 8.79217 9.80257 8.59212C9.69422 8.39207 9.76923 8.13367 9.96927 8.02531C11.5196 7.18344 13.2199 6.75 15.012 6.75C16.7873 6.75 18.3377 7.14176 20.038 8.01698C20.2464 8.12534 20.3214 8.3754 20.2131 8.57545C20.138 8.72548 19.9963 8.80884 19.8463 8.80884ZM7.91938 13.1847C7.83603 13.1847 7.75268 13.1597 7.67767 13.1097C7.48596 12.9764 7.44429 12.718 7.57765 12.5263C8.40282 11.3595 9.45303 10.4426 10.7033 9.80089C13.3205 8.45068 16.6712 8.44235 19.2967 9.79255C20.547 10.4343 21.5972 11.3428 22.4224 12.5013C22.5557 12.6846 22.514 12.9514 22.3223 13.0847C22.1306 13.2181 21.8722 13.1764 21.7389 12.9847C20.9887 11.9345 20.0385 11.1094 18.9133 10.5343C16.5211 9.30915 13.4622 9.30915 11.0784 10.5427C9.9448 11.1261 8.9946 11.9595 8.24445 13.0097C8.17777 13.1264 8.05275 13.1847 7.91938 13.1847ZM12.8374 23.1201C12.9124 23.2035 13.0208 23.2451 13.1291 23.2451C13.2375 23.2451 13.3458 23.2035 13.4375 23.1201C13.5959 22.9534 13.5959 22.695 13.4375 22.5283C12.7957 21.8782 12.429 21.4698 11.8955 20.5113C11.3871 19.6111 11.1204 18.5025 11.1204 17.3023C11.1204 15.2852 12.8624 13.6432 15.0045 13.6432C17.1466 13.6432 18.8886 15.2852 18.8886 17.3023C18.8886 17.5357 19.072 17.719 19.3054 17.719C19.5387 17.719 19.7221 17.5357 19.7221 17.3023C19.7221 14.8268 17.605 12.8097 15.0045 12.8097C12.404 12.8097 10.2869 14.8268 10.2869 17.3023C10.2869 18.6442 10.5869 19.8945 11.162 20.9197C11.7205 21.9282 12.1122 22.395 12.8374 23.1201ZM19.1044 21.7031C18.1125 21.7031 17.2373 21.453 16.5205 20.9613C15.2786 20.1195 14.5367 18.7525 14.5367 17.3022C14.5367 17.0689 14.7201 16.8855 14.9535 16.8855C15.1869 16.8855 15.3702 17.0689 15.3702 17.3022C15.3702 18.4775 15.9704 19.586 16.9873 20.2695C17.579 20.6696 18.2709 20.8613 19.1044 20.8613C19.3044 20.8613 19.6378 20.8363 19.9712 20.7779C20.1962 20.7362 20.413 20.8863 20.4546 21.1196C20.4963 21.3447 20.3463 21.5614 20.1129 21.6031C19.6378 21.6948 19.221 21.7031 19.1044 21.7031ZM17.3214 23.4034C17.3547 23.4117 17.3964 23.4201 17.4298 23.4201C17.6048 23.4201 17.7798 23.295 17.8215 23.1033C17.8798 22.8866 17.7548 22.6533 17.5298 22.5949C16.3545 22.2698 15.596 21.8364 14.8042 21.0529C13.7957 20.0527 13.2456 18.7191 13.2456 17.2939C13.2456 16.402 14.0207 15.6769 14.9793 15.6769C15.9378 15.6769 16.7129 16.402 16.7129 17.2939C16.7129 18.6441 17.8632 19.7443 19.2801 19.7443C20.6971 19.7443 21.8473 18.6441 21.8473 17.2939C21.8473 13.6932 18.7634 10.7676 14.9709 10.7676C12.2787 10.7676 9.81987 12.2762 8.71131 14.6017C8.33624 15.3935 8.14453 16.302 8.14453 17.3022C8.14453 18.4274 8.34457 19.511 8.75299 20.6029C8.828 20.8112 9.06972 20.9279 9.28643 20.8446C9.50314 20.7696 9.6115 20.5278 9.52815 20.3111C9.02804 18.9775 8.9697 17.9523 8.9697 17.3022C8.9697 16.4354 9.1364 15.6435 9.46147 14.9684C10.4367 12.9263 12.6038 11.6094 14.9709 11.6094C18.3049 11.6094 21.0138 14.1599 21.0138 17.3022C21.0138 18.194 20.2387 18.9192 19.2801 18.9192C18.3216 18.9192 17.5464 18.194 17.5464 17.3022C17.5464 15.9519 16.3962 14.8517 14.9793 14.8517C13.5623 14.8517 12.4121 15.9519 12.4121 17.3022C12.4121 18.9525 13.0539 20.4945 14.2208 21.6531C15.1293 22.5449 15.9961 23.0367 17.3214 23.4034Z" fill="#7D2B8B"/>
<path d="M19.6546 8.75883L19.7539 8.58502L19.7463 8.58107L19.6546 8.75883ZM10.3694 8.75883L10.4646 8.93469L10.4657 8.93409L10.3694 8.75883ZM9.80257 8.59212L9.62662 8.68742L9.62982 8.69289L9.80257 8.59212ZM9.96927 8.02531L10.0645 8.20117L10.0647 8.20107L9.96927 8.02531ZM20.038 8.01698L20.1303 7.83953L20.1296 7.83915L20.038 8.01698ZM20.2131 8.57545L20.0371 8.48014L20.0342 8.48601L20.2131 8.57545ZM7.67767 13.1097L7.56344 13.2739L7.56673 13.2761L7.67767 13.1097ZM7.57765 12.5263L7.41435 12.4108L7.41347 12.4121L7.57765 12.5263ZM10.7033 9.80089L10.7946 9.97881L10.795 9.97863L10.7033 9.80089ZM19.2967 9.79255L19.2052 9.97041L19.2054 9.97048L19.2967 9.79255ZM22.4224 12.5013L22.2594 12.6173L22.2606 12.6189L22.4224 12.5013ZM22.3223 13.0847L22.2081 12.9205H22.2081L22.3223 13.0847ZM21.7389 12.9847L21.9031 12.8705L21.9016 12.8684L21.7389 12.9847ZM18.9133 10.5343L18.8221 10.7123L18.8223 10.7124L18.9133 10.5343ZM11.0784 10.5427L11.1699 10.7205L11.1703 10.7203L11.0784 10.5427ZM8.24445 13.0097L8.08171 12.8934L8.07583 12.9017L8.0708 12.9105L8.24445 13.0097ZM12.8374 23.1201L12.9862 22.9861L12.9788 22.9787L12.8374 23.1201ZM13.4375 23.1201L13.572 23.2681L13.5775 23.2632L13.5825 23.2579L13.4375 23.1201ZM13.4375 22.5283L13.5825 22.3906L13.5798 22.3878L13.4375 22.5283ZM11.8955 20.5113L12.0703 20.414L12.0697 20.4129L11.8955 20.5113ZM11.162 20.9197L11.337 20.8228L11.3365 20.8218L11.162 20.9197ZM16.5205 20.9613L16.6336 20.7964L16.6327 20.7957L16.5205 20.9613ZM16.9873 20.2695L17.0993 20.1038L17.0988 20.1035L16.9873 20.2695ZM19.9712 20.7779L20.0057 20.9749L20.0076 20.9746L19.9712 20.7779ZM20.4546 21.1196L20.2577 21.1548L20.258 21.1561L20.4546 21.1196ZM20.1129 21.6031L20.0777 21.4062L20.075 21.4067L20.1129 21.6031ZM17.3214 23.4034L17.268 23.5962L17.2729 23.5974L17.3214 23.4034ZM17.8215 23.1033L17.6281 23.0513L17.6261 23.0609L17.8215 23.1033ZM17.5298 22.5949L17.4765 22.7877L17.4796 22.7885L17.5298 22.5949ZM14.8042 21.0529L14.6634 21.1949L14.6635 21.1951L14.8042 21.0529ZM8.71131 14.6017L8.53078 14.5156L8.53057 14.5161L8.71131 14.6017ZM8.75299 20.6029L8.94118 20.5351L8.94031 20.5328L8.75299 20.6029ZM9.28643 20.8446L9.22097 20.6555L9.21464 20.6579L9.28643 20.8446ZM9.52815 20.3111L9.34087 20.3814L9.34148 20.3829L9.52815 20.3111ZM9.46147 14.9684L9.64167 15.0552L9.64194 15.0546L9.46147 14.9684ZM14.2208 21.6531L14.0799 21.795L14.0807 21.7958L14.2208 21.6531ZM19.5554 8.93247C19.6456 8.98403 19.7468 9.00884 19.8463 9.00884V8.60884C19.8125 8.60884 19.7803 8.6003 19.7538 8.58518L19.5554 8.93247ZM15.012 7.78354C16.6361 7.78354 17.9885 8.12473 19.5629 8.93658L19.7463 8.58107C18.1201 7.74252 16.7052 7.38354 15.012 7.38354V7.78354ZM10.4657 8.93409C11.8605 8.16733 13.3942 7.78354 15.012 7.78354V7.38354C13.3291 7.38354 11.7288 7.78327 10.273 8.58356L10.4657 8.93409ZM9.62982 8.69289C9.79817 8.98152 10.1649 9.09704 10.4646 8.93468L10.2741 8.58297C10.1737 8.63733 10.0404 8.60282 9.97533 8.49135L9.62982 8.69289ZM9.87401 7.84946C9.57552 8.01115 9.46648 8.39154 9.62671 8.68737L9.97843 8.49686C9.92196 8.3926 9.96295 8.2562 10.0645 8.20117L9.87401 7.84946ZM15.012 6.55C13.1868 6.55 11.4536 6.9917 9.87383 7.84955L10.0647 8.20107C11.5856 7.37518 13.2531 6.95 15.012 6.95V6.55ZM20.1296 7.83915C18.4032 6.95057 16.8217 6.55 15.012 6.55V6.95C16.753 6.95 18.2721 7.33296 19.9465 8.1948L20.1296 7.83915ZM20.3889 8.6707C20.551 8.37153 20.437 7.99902 20.1303 7.83954L19.9457 8.19442C20.0558 8.25165 20.0919 8.37927 20.0372 8.48019L20.3889 8.6707ZM19.8463 9.00884C20.0732 9.00884 20.2835 8.88168 20.3919 8.66489L20.0342 8.48601C19.9925 8.56929 19.9195 8.60884 19.8463 8.60884V9.00884ZM7.56673 13.2761C7.67355 13.3473 7.79531 13.3847 7.91938 13.3847V12.9847C7.87676 12.9847 7.83182 12.9721 7.7886 12.9433L7.56673 13.2761ZM7.41347 12.4121C7.21937 12.6911 7.27774 13.0751 7.56346 13.2739L7.79188 12.9455C7.69419 12.8776 7.6692 12.7449 7.74183 12.6405L7.41347 12.4121ZM10.612 9.62296C9.33243 10.2797 8.25773 11.2182 7.41435 12.4108L7.74094 12.6418C8.5479 11.5007 9.57364 10.6055 10.7946 9.97881L10.612 9.62296ZM19.3882 9.61469C16.705 8.23483 13.286 8.24341 10.6116 9.62314L10.795 9.97863C13.3549 8.65796 16.6374 8.64987 19.2052 9.97041L19.3882 9.61469ZM22.5853 12.3853C21.7416 11.2009 20.667 10.2711 19.388 9.61462L19.2054 9.97048C20.427 10.5975 21.4527 11.4847 22.2594 12.6173L22.5853 12.3853ZM22.4365 13.2489C22.7209 13.0511 22.783 12.6571 22.5841 12.3836L22.2606 12.6189C22.3285 12.7122 22.3072 12.8516 22.2081 12.9205L22.4365 13.2489ZM21.5747 13.0989C21.7735 13.3846 22.1575 13.443 22.4365 13.2489L22.2081 12.9205C22.1037 12.9932 21.971 12.9682 21.9031 12.8705L21.5747 13.0989ZM18.8223 10.7124C19.9183 11.2725 20.8441 12.0762 21.5761 13.1009L21.9016 12.8684C21.1333 11.7929 20.1588 10.9463 19.0043 10.3562L18.8223 10.7124ZM11.1703 10.7203C13.4964 9.51665 16.4871 9.51643 18.8221 10.7123L19.0045 10.3563C16.5552 9.10186 13.428 9.10164 10.9865 10.365L11.1703 10.7203ZM8.40719 13.1259C9.13954 12.1007 10.0657 11.2888 11.1699 10.7205L10.9868 10.3648C9.82393 10.9634 8.84967 11.8184 8.08171 12.8934L8.40719 13.1259ZM7.91938 13.3847C8.10928 13.3847 8.30884 13.3001 8.4181 13.1089L8.0708 12.9105C8.0467 12.9527 7.99621 12.9847 7.91938 12.9847V13.3847ZM13.1291 23.0451C13.0702 23.0451 13.0185 23.0224 12.986 22.9863L12.6887 23.2539C12.8063 23.3845 12.9713 23.4451 13.1291 23.4451V23.0451ZM13.303 22.9721C13.2456 23.0243 13.1844 23.0451 13.1291 23.0451V23.4451C13.2905 23.4451 13.446 23.3827 13.572 23.2681L13.303 22.9721ZM13.2925 22.6661C13.3775 22.7556 13.3775 22.8929 13.2925 22.9824L13.5825 23.2579C13.8142 23.014 13.8142 22.6345 13.5825 22.3906L13.2925 22.6661ZM11.7208 20.6085C12.2658 21.5879 12.6454 22.0107 13.2952 22.6688L13.5798 22.3878C12.946 21.7457 12.5921 21.3517 12.0703 20.414L11.7208 20.6085ZM10.9204 17.3023C10.9204 18.5312 11.1934 19.6747 11.7214 20.6096L12.0697 20.4129C11.5808 19.5474 11.3204 18.4739 11.3204 17.3023H10.9204ZM15.0045 13.4432C12.7633 13.4432 10.9204 15.1637 10.9204 17.3023H11.3204C11.3204 15.4067 12.9615 13.8432 15.0045 13.8432V13.4432ZM19.0886 17.3023C19.0886 15.1637 17.2457 13.4432 15.0045 13.4432V13.8432C17.0475 13.8432 18.6886 15.4067 18.6886 17.3023H19.0886ZM19.3054 17.519C19.1824 17.519 19.0886 17.4252 19.0886 17.3023H18.6886C18.6886 17.6461 18.9615 17.919 19.3054 17.919V17.519ZM19.5221 17.3023C19.5221 17.4252 19.4283 17.519 19.3054 17.519V17.919C19.6492 17.919 19.9221 17.6461 19.9221 17.3023H19.5221ZM15.0045 13.0097C17.5039 13.0097 19.5221 14.9463 19.5221 17.3023H19.9221C19.9221 14.7072 17.7062 12.6097 15.0045 12.6097V13.0097ZM10.4869 17.3023C10.4869 14.9463 12.5051 13.0097 15.0045 13.0097V12.6097C12.3028 12.6097 10.0869 14.7072 10.0869 17.3023H10.4869ZM11.3365 20.8218C10.7806 19.8308 10.4869 18.6153 10.4869 17.3023H10.0869C10.0869 18.6731 10.3933 19.9581 10.9876 21.0175L11.3365 20.8218ZM12.9788 22.9787C12.2641 22.264 11.8847 21.8119 11.337 20.8228L10.9871 21.0166C11.5563 22.0445 11.9604 22.5259 12.696 23.2615L12.9788 22.9787ZM16.4073 21.1262C17.1622 21.6441 18.0783 21.9031 19.1044 21.9031V21.5031C18.1467 21.5031 17.3124 21.262 16.6336 20.7964L16.4073 21.1262ZM14.3367 17.3022C14.3367 18.8217 15.1138 20.2494 16.4083 21.1268L16.6327 20.7957C15.4433 19.9895 14.7367 18.6834 14.7367 17.3022H14.3367ZM14.9535 16.6855C14.6097 16.6855 14.3367 16.9584 14.3367 17.3022H14.7367C14.7367 17.1793 14.8306 17.0855 14.9535 17.0855V16.6855ZM15.5702 17.3022C15.5702 16.9584 15.2973 16.6855 14.9535 16.6855V17.0855C15.0764 17.0855 15.1702 17.1793 15.1702 17.3022H15.5702ZM17.0988 20.1035C16.135 19.4557 15.5702 18.4083 15.5702 17.3022H15.1702C15.1702 18.5467 15.8057 19.7163 16.8757 20.4355L17.0988 20.1035ZM19.1044 20.6613C18.3035 20.6613 17.6524 20.4777 17.0993 20.1038L16.8752 20.4352C17.5057 20.8614 18.2382 21.0613 19.1044 21.0613V20.6613ZM19.9367 20.5809C19.6138 20.6374 19.2919 20.6613 19.1044 20.6613V21.0613C19.3168 21.0613 19.6618 21.0351 20.0057 20.9749L19.9367 20.5809ZM20.6515 21.0845C20.5908 20.7444 20.2715 20.5189 19.9348 20.5813L20.0076 20.9746C20.121 20.9536 20.2351 21.0281 20.2578 21.1548L20.6515 21.0845ZM20.1481 21.8C20.4881 21.7392 20.7136 21.4199 20.6513 21.0832L20.258 21.1561C20.279 21.2695 20.2044 21.3836 20.0777 21.4062L20.1481 21.8ZM19.1044 21.9031C19.228 21.9031 19.6586 21.8944 20.1508 21.7995L20.075 21.4067C19.617 21.4951 19.2141 21.5031 19.1044 21.5031V21.9031ZM17.4298 23.2201C17.4222 23.2201 17.4004 23.217 17.3699 23.2094L17.2729 23.5974C17.3091 23.6065 17.3706 23.6201 17.4298 23.6201V23.2201ZM17.6261 23.0609C17.6056 23.1552 17.5163 23.2201 17.4298 23.2201V23.6201C17.6932 23.6201 17.9541 23.4349 18.0169 23.1458L17.6261 23.0609ZM17.4796 22.7885C17.5915 22.8175 17.6593 22.9364 17.6284 23.0514L18.0146 23.1553C18.1004 22.8369 17.9182 22.489 17.58 22.4013L17.4796 22.7885ZM14.6635 21.1951C15.4815 22.0044 16.2707 22.4542 17.4765 22.7877L17.5831 22.4021C16.4383 22.0855 15.7106 21.6685 14.9449 20.9108L14.6635 21.1951ZM13.0456 17.2939C13.0456 18.7718 13.6165 20.1568 14.6634 21.1949L14.9451 20.9109C13.9748 19.9487 13.4456 18.6665 13.4456 17.2939H13.0456ZM14.9793 15.4769C13.9234 15.4769 13.0456 16.2788 13.0456 17.2939H13.4456C13.4456 16.5252 14.118 15.8769 14.9793 15.8769V15.4769ZM16.9129 17.2939C16.9129 16.2788 16.0351 15.4769 14.9793 15.4769V15.8769C15.8405 15.8769 16.5129 16.5252 16.5129 17.2939H16.9129ZM19.2801 19.5443C17.9649 19.5443 16.9129 18.5251 16.9129 17.2939H16.5129C16.5129 18.7631 17.7615 19.9443 19.2801 19.9443V19.5443ZM21.6473 17.2939C21.6473 18.5251 20.5954 19.5443 19.2801 19.5443V19.9443C20.7988 19.9443 22.0473 18.7631 22.0473 17.2939H21.6473ZM14.9709 10.9676C18.6629 10.9676 21.6473 13.8134 21.6473 17.2939H22.0473C22.0473 13.573 18.8638 10.5676 14.9709 10.5676V10.9676ZM8.89185 14.6877C9.96545 12.4356 12.3516 10.9676 14.9709 10.9676V10.5676C12.2058 10.5676 9.67429 12.1168 8.53078 14.5156L8.89185 14.6877ZM8.34453 17.3022C8.34453 16.3277 8.53125 15.449 8.89206 14.6873L8.53057 14.5161C8.14122 15.338 7.94453 16.2763 7.94453 17.3022H8.34453ZM8.94031 20.5328C8.53995 19.4624 8.34453 18.4026 8.34453 17.3022H7.94453C7.94453 18.4523 8.14919 19.5595 8.56566 20.6729L8.94031 20.5328ZM9.21464 20.6579C9.10404 20.7004 8.97872 20.6394 8.94117 20.5351L8.56481 20.6706C8.67729 20.983 9.0354 21.1554 9.35823 21.0312L9.21464 20.6579ZM9.34148 20.3829C9.38574 20.498 9.32686 20.6189 9.22101 20.6556L9.35185 21.0336C9.67942 20.9202 9.83725 20.5577 9.71481 20.2393L9.34148 20.3829ZM8.7697 17.3022C8.7697 17.9682 8.82993 19.0188 9.34088 20.3814L9.71541 20.2409C9.22616 18.9362 9.1697 17.9364 9.1697 17.3022H8.7697ZM9.28127 14.8816C8.94125 15.5878 8.7697 16.4101 8.7697 17.3022H9.1697C9.1697 16.4607 9.33154 15.6993 9.64167 15.0552L9.28127 14.8816ZM14.9709 11.4094C12.5317 11.4094 10.2915 12.7662 9.28099 14.8822L9.64194 15.0546C10.5818 13.0864 12.6759 11.8094 14.9709 11.8094V11.4094ZM21.2138 17.3022C21.2138 14.0383 18.4039 11.4094 14.9709 11.4094V11.8094C18.2059 11.8094 20.8138 14.2815 20.8138 17.3022H21.2138ZM19.2801 19.1192C20.3359 19.1192 21.2138 18.3172 21.2138 17.3022H20.8138C20.8138 18.0709 20.1414 18.7192 19.2801 18.7192V19.1192ZM17.3464 17.3022C17.3464 18.3172 18.2243 19.1192 19.2801 19.1192V18.7192C18.4189 18.7192 17.7464 18.0709 17.7464 17.3022H17.3464ZM14.9793 15.0517C16.2945 15.0517 17.3464 16.0709 17.3464 17.3022H17.7464C17.7464 15.8329 16.4979 14.6517 14.9793 14.6517V15.0517ZM12.6121 17.3022C12.6121 16.0709 13.664 15.0517 14.9793 15.0517V14.6517C13.4606 14.6517 12.2121 15.8329 12.2121 17.3022H12.6121ZM14.3617 21.5111C13.2327 20.3902 12.6121 18.8994 12.6121 17.3022H12.2121C12.2121 19.0057 12.8751 20.5988 14.0799 21.795L14.3617 21.5111ZM17.3747 23.2106C16.0798 22.8523 15.2435 22.3768 14.3609 21.5103L14.0807 21.7958C15.0151 22.713 15.9124 23.221 17.2681 23.5962L17.3747 23.2106Z" fill="#7D2B8B"/>
</svg>
