<svg width="40" height="40" viewBox="0 0 40 40" fill="none" xmlns="http://www.w3.org/2000/svg">
<circle cx="20" cy="20" r="20" fill="#A98D4B"/>
<path fill-rule="evenodd" clip-rule="evenodd" d="M12.7071 27.0711C12.3166 26.6805 12.3166 26.0474 12.7071 25.6568L25.435 12.9289C25.8256 12.5384 26.4587 12.5384 26.8492 12.9289C27.2398 13.3194 27.2398 13.9526 26.8492 14.3431L14.1213 27.0711C13.7308 27.4616 13.0976 27.4616 12.7071 27.0711Z" fill="white"/>
<path fill-rule="evenodd" clip-rule="evenodd" d="M12.7071 12.7071C13.0976 12.3166 13.7308 12.3166 14.1213 12.7071L26.8492 25.435C27.2397 25.8256 27.2397 26.4587 26.8492 26.8492C26.4587 27.2398 25.8255 27.2398 25.435 26.8492L12.7071 14.1213C12.3166 13.7308 12.3166 13.0976 12.7071 12.7071Z" fill="white"/>
</svg>
