<svg width="23" height="18" viewBox="0 0 23 18" fill="none" xmlns="http://www.w3.org/2000/svg">
<path d="M4.15385 2.07692C4.15385 3.22399 3.22399 4.15385 2.07692 4.15385C0.929856 4.15385 0 3.22399 0 2.07692C0 0.929856 0.929856 0 2.07692 0C3.22399 0 4.15385 0.929856 4.15385 2.07692ZM2.07692 6.92308C0.929856 6.92308 0 7.85293 0 9C0 10.1471 0.929856 11.0769 2.07692 11.0769C3.22399 11.0769 4.15385 10.1471 4.15385 9C4.15385 7.85293 3.22399 6.92308 2.07692 6.92308ZM2.07692 13.8462C0.929856 13.8462 0 14.776 0 15.9231C0 17.0701 0.929856 18 2.07692 18C3.22399 18 4.15385 17.0701 4.15385 15.9231C4.15385 14.776 3.22399 13.8462 2.07692 13.8462ZM6.23077 3.63462H21.4615C21.8439 3.63462 22.1538 3.32468 22.1538 2.94231V1.21154C22.1538 0.829168 21.8439 0.519231 21.4615 0.519231H6.23077C5.8484 0.519231 5.53846 0.829168 5.53846 1.21154V2.94231C5.53846 3.32468 5.8484 3.63462 6.23077 3.63462ZM6.23077 10.5577H21.4615C21.8439 10.5577 22.1538 10.2478 22.1538 9.86539V8.13462C22.1538 7.75225 21.8439 7.44231 21.4615 7.44231H6.23077C5.8484 7.44231 5.53846 7.75225 5.53846 8.13462V9.86539C5.53846 10.2478 5.8484 10.5577 6.23077 10.5577ZM6.23077 17.4808H21.4615C21.8439 17.4808 22.1538 17.1708 22.1538 16.7885V15.0577C22.1538 14.6753 21.8439 14.3654 21.4615 14.3654H6.23077C5.8484 14.3654 5.53846 14.6753 5.53846 15.0577V16.7885C5.53846 17.1708 5.8484 17.4808 6.23077 17.4808Z" fill="#7D2B8B"/>
</svg>
