<svg width="30" height="30" viewBox="0 0 30 30" fill="none" xmlns="http://www.w3.org/2000/svg">
<circle cx="15" cy="15" r="15" fill="#FAFAFA"/>
<path fill-rule="evenodd" clip-rule="evenodd" d="M9 9H21C21.825 9 22.5 9.675 22.5 10.5V19.5C22.5 20.325 21.825 21 21 21H9C8.175 21 7.5 20.325 7.5 19.5V10.5C7.5 9.675 8.175 9 9 9ZM15.795 15.2549L20.7 12.1874C20.8875 12.0674 21 11.8649 21 11.6474C21 11.1449 20.4525 10.8449 20.025 11.1074L15 14.2499L9.975 11.1074C9.5475 10.8449 9 11.1449 9 11.6474C9 11.8649 9.1125 12.0674 9.3 12.1874L14.205 15.2549C14.6925 15.5624 15.3075 15.5624 15.795 15.2549Z" fill="#7D2B8B"/>
</svg>
