<svg width="63" height="10" viewBox="0 0 63 10" fill="none" xmlns="http://www.w3.org/2000/svg">
<path fill-rule="evenodd" clip-rule="evenodd" d="M5 0C5.17301 0 5.33102 0.102793 5.40759 0.265164L6.70648 3.01924L9.61118 3.4636C9.78235 3.48979 9.92447 3.61538 9.97783 3.7876C10.0312 3.95982 9.98651 4.14881 9.86259 4.27513L7.76114 6.41737L8.25709 9.44381C8.28633 9.6223 8.21622 9.80269 8.07623 9.90913C7.93624 10.0156 7.75066 10.0296 7.59752 9.94529L5 8.5156L2.40248 9.94529C2.24934 10.0296 2.06376 10.0156 1.92377 9.90913C1.78378 9.80269 1.71366 9.6223 1.74291 9.44381L2.23886 6.41738L0.137407 4.27513C0.0134901 4.14881 -0.0311793 3.95982 0.0221741 3.7876C0.0755274 3.61538 0.217654 3.48979 0.388818 3.4636L3.29352 3.01924L4.59241 0.265164C4.66898 0.102793 4.82699 0 5 0Z" fill="#A98D4B"/>
<path fill-rule="evenodd" clip-rule="evenodd" d="M18 0C18.173 0 18.331 0.102793 18.4076 0.265164L19.7065 3.01924L22.6112 3.4636C22.7823 3.48979 22.9245 3.61538 22.9778 3.7876C23.0312 3.95982 22.9865 4.14881 22.8626 4.27513L20.7611 6.41737L21.2571 9.44381C21.2863 9.6223 21.2162 9.80269 21.0762 9.90913C20.9362 10.0156 20.7507 10.0296 20.5975 9.94529L18 8.5156L15.4025 9.94529C15.2493 10.0296 15.0638 10.0156 14.9238 9.90913C14.7838 9.80269 14.7137 9.6223 14.7429 9.44381L15.2389 6.41738L13.1374 4.27513C13.0135 4.14881 12.9688 3.95982 13.0222 3.7876C13.0755 3.61538 13.2177 3.48979 13.3888 3.4636L16.2935 3.01924L17.5924 0.265164C17.669 0.102793 17.827 0 18 0Z" fill="#A98D4B"/>
<path fill-rule="evenodd" clip-rule="evenodd" d="M31 0C31.173 0 31.331 0.102793 31.4076 0.265164L32.7065 3.01924L35.6112 3.4636C35.7823 3.48979 35.9245 3.61538 35.9778 3.7876C36.0312 3.95982 35.9865 4.14881 35.8626 4.27513L33.7611 6.41737L34.2571 9.44381C34.2863 9.6223 34.2162 9.80269 34.0762 9.90913C33.9362 10.0156 33.7507 10.0296 33.5975 9.94529L31 8.5156L28.4025 9.94529C28.2493 10.0296 28.0638 10.0156 27.9238 9.90913C27.7838 9.80269 27.7137 9.6223 27.7429 9.44381L28.2389 6.41738L26.1374 4.27513C26.0135 4.14881 25.9688 3.95982 26.0222 3.7876C26.0755 3.61538 26.2177 3.48979 26.3888 3.4636L29.2935 3.01924L30.5924 0.265164C30.669 0.102793 30.827 0 31 0Z" fill="#A98D4B"/>
<path fill-rule="evenodd" clip-rule="evenodd" d="M44 0C44.173 0 44.331 0.102793 44.4076 0.265164L45.7065 3.01924L48.6112 3.4636C48.7823 3.48979 48.9245 3.61538 48.9778 3.7876C49.0312 3.95982 48.9865 4.14881 48.8626 4.27513L46.7611 6.41737L47.2571 9.44381C47.2863 9.6223 47.2162 9.80269 47.0762 9.90913C46.9362 10.0156 46.7507 10.0296 46.5975 9.94529L44 8.5156L41.4025 9.94529C41.2493 10.0296 41.0638 10.0156 40.9238 9.90913C40.7838 9.80269 40.7137 9.6223 40.7429 9.44381L41.2389 6.41738L39.1374 4.27513C39.0135 4.14881 38.9688 3.95982 39.0222 3.7876C39.0755 3.61538 39.2177 3.48979 39.3888 3.4636L42.2935 3.01924L43.5924 0.265164C43.669 0.102793 43.827 0 44 0Z" fill="#A98D4B"/>
<path d="M59.2543 3.23253C59.3252 3.38302 59.4664 3.48834 59.6309 3.5135L62.4816 3.9496L60.4042 6.06726C60.2927 6.18098 60.242 6.34105 60.2677 6.49825L60.7531 9.46023L58.2411 8.07759C58.091 7.99497 57.909 7.99497 57.7589 8.07759L55.2469 9.46023L55.7323 6.49825C55.758 6.34105 55.7074 6.18098 55.5958 6.06726L53.5185 3.9496L56.3691 3.5135C56.5336 3.48834 56.6748 3.38302 56.7458 3.23253L58 0.573086L59.2543 3.23253ZM62.5356 3.95786C62.5356 3.95786 62.5355 3.95785 62.5355 3.95784L62.5356 3.95786ZM62.5056 3.92508C62.5056 3.92506 62.5057 3.92503 62.5057 3.92501L62.5056 3.92508ZM60.8386 9.50729L60.8384 9.50719L60.8386 9.50729Z" stroke="#A98D4B" stroke-linecap="round" stroke-linejoin="round"/>
<path d="M58 8.51563L55.4025 9.94532C55.2493 10.0296 55.0638 10.0156 54.9238 9.90916C54.7838 9.80272 54.7137 9.62233 54.7429 9.44384L55.2389 6.41739L53.1374 4.27515C53.0135 4.14882 52.9688 3.95984 53.0222 3.78761C53.0755 3.61539 53.2177 3.4898 53.3888 3.46361L56.2935 3.01925L57.5924 0.265165C57.669 0.102794 58 0 58 0V8.51563Z" fill="#A98D4B"/>
</svg>
