<svg width="16" height="15" viewBox="0 0 16 15" fill="none" xmlns="http://www.w3.org/2000/svg">
<path fill-rule="evenodd" clip-rule="evenodd" d="M9.71965 0.345857C10.2707 0.117524 10.8614 0 11.4579 0C12.0544 0 12.645 0.117524 13.1961 0.345857C13.747 0.574148 14.2476 0.908736 14.6693 1.33051C15.091 1.75215 15.4258 2.25297 15.6541 2.80394C15.8825 3.355 16 3.94565 16 4.54214C16 5.13864 15.8825 5.72929 15.6541 6.28035C15.4258 6.83136 15.0912 7.332 14.6694 7.75366L8.49379 13.9292C8.22098 14.2021 7.77865 14.2021 7.50583 13.9292L1.33025 7.75366C0.478506 6.90191 0 5.74669 0 4.54214C0 3.33759 0.478506 2.18237 1.33025 1.33063C2.182 0.47888 3.33722 0.00037359 4.54177 0.00037359C5.74632 0.00037359 6.90154 0.47888 7.75328 1.33063L7.99981 1.57716L8.24623 1.33074C8.66789 0.908914 9.16864 0.574169 9.71965 0.345857Z" fill="#A98D4B"/>
</svg>
