<svg width="50" height="50" viewBox="0 0 50 50" fill="none" xmlns="http://www.w3.org/2000/svg">
<circle cx="25" cy="25" r="25" fill="white"/>
<circle cx="25" cy="25" r="20" fill="#A98D4B"/>
<path fill-rule="evenodd" clip-rule="evenodd" d="M29.8463 18.8088C29.7796 18.8088 29.713 18.7922 29.6546 18.7588C28.0543 17.9336 26.6707 17.5835 25.012 17.5835C23.3616 17.5835 21.7947 17.9753 20.3694 18.7588C20.1693 18.8672 19.9193 18.7922 19.8026 18.5921C19.6942 18.3921 19.7692 18.1337 19.9693 18.0253C21.5196 17.1834 23.2199 16.75 25.012 16.75C26.7873 16.75 28.3377 17.1418 30.038 18.017C30.2464 18.1253 30.3214 18.3754 30.2131 18.5754C30.138 18.7255 29.9963 18.8088 29.8463 18.8088ZM17.9194 23.1847C17.836 23.1847 17.7527 23.1597 17.6777 23.1097C17.486 22.9764 17.4443 22.718 17.5776 22.5263C18.4028 21.3595 19.453 20.4426 20.7033 19.8009C23.3205 18.4507 26.6712 18.4423 29.2967 19.7926C30.547 20.4343 31.5972 21.3428 32.4224 22.5013C32.5557 22.6846 32.514 22.9514 32.3223 23.0847C32.1306 23.2181 31.8722 23.1764 31.7389 22.9847C30.9887 21.9345 30.0385 21.1094 28.9133 20.5343C26.5211 19.3091 23.4622 19.3091 21.0784 20.5427C19.9448 21.1261 18.9946 21.9595 18.2445 23.0097C18.1778 23.1264 18.0527 23.1847 17.9194 23.1847ZM22.8374 33.1201C22.9124 33.2035 23.0208 33.2451 23.1291 33.2451C23.2375 33.2451 23.3458 33.2035 23.4375 33.1201C23.5959 32.9534 23.5959 32.695 23.4375 32.5283C22.7957 31.8782 22.429 31.4698 21.8955 30.5113C21.3871 29.6111 21.1204 28.5025 21.1204 27.3023C21.1204 25.2852 22.8624 23.6432 25.0045 23.6432C27.1466 23.6432 28.8886 25.2852 28.8886 27.3023C28.8886 27.5357 29.072 27.719 29.3054 27.719C29.5387 27.719 29.7221 27.5357 29.7221 27.3023C29.7221 24.8268 27.605 22.8097 25.0045 22.8097C22.404 22.8097 20.2869 24.8268 20.2869 27.3023C20.2869 28.6442 20.5869 29.8945 21.162 30.9197C21.7205 31.9282 22.1122 32.395 22.8374 33.1201ZM29.1044 31.7031C28.1125 31.7031 27.2373 31.453 26.5205 30.9613C25.2786 30.1195 24.5367 28.7525 24.5367 27.3022C24.5367 27.0689 24.7201 26.8855 24.9535 26.8855C25.1869 26.8855 25.3702 27.0689 25.3702 27.3022C25.3702 28.4775 25.9704 29.586 26.9873 30.2695C27.579 30.6696 28.2709 30.8613 29.1044 30.8613C29.3044 30.8613 29.6378 30.8363 29.9712 30.7779C30.1962 30.7362 30.413 30.8863 30.4546 31.1196C30.4963 31.3447 30.3463 31.5614 30.1129 31.6031C29.6378 31.6948 29.221 31.7031 29.1044 31.7031ZM27.3214 33.4034C27.3547 33.4117 27.3964 33.4201 27.4298 33.4201C27.6048 33.4201 27.7798 33.295 27.8215 33.1033C27.8798 32.8866 27.7548 32.6533 27.5298 32.5949C26.3545 32.2698 25.596 31.8364 24.8042 31.0529C23.7957 30.0527 23.2456 28.7191 23.2456 27.2939C23.2456 26.402 24.0207 25.6769 24.9793 25.6769C25.9378 25.6769 26.7129 26.402 26.7129 27.2939C26.7129 28.6441 27.8632 29.7443 29.2801 29.7443C30.6971 29.7443 31.8473 28.6441 31.8473 27.2939C31.8473 23.6932 28.7634 20.7676 24.9709 20.7676C22.2787 20.7676 19.8199 22.2762 18.7113 24.6017C18.3362 25.3935 18.1445 26.302 18.1445 27.3022C18.1445 28.4274 18.3446 29.511 18.753 30.6029C18.828 30.8112 19.0697 30.9279 19.2864 30.8446C19.5031 30.7696 19.6115 30.5278 19.5281 30.3111C19.028 28.9775 18.9697 27.9523 18.9697 27.3022C18.9697 26.4354 19.1364 25.6435 19.4615 24.9684C20.4367 22.9263 22.6038 21.6094 24.9709 21.6094C28.3049 21.6094 31.0138 24.1599 31.0138 27.3022C31.0138 28.194 30.2387 28.9192 29.2801 28.9192C28.3216 28.9192 27.5464 28.194 27.5464 27.3022C27.5464 25.9519 26.3962 24.8517 24.9793 24.8517C23.5623 24.8517 22.4121 25.9519 22.4121 27.3022C22.4121 28.9525 23.0539 30.4945 24.2208 31.6531C25.1293 32.5449 25.9961 33.0367 27.3214 33.4034Z" fill="white"/>
<path d="M29.6546 18.7588L29.7539 18.585L29.7463 18.5811L29.6546 18.7588ZM20.3694 18.7588L20.4646 18.9347L20.4657 18.9341L20.3694 18.7588ZM19.8026 18.5921L19.6266 18.6874L19.6298 18.6929L19.8026 18.5921ZM19.9693 18.0253L20.0645 18.2012L20.0647 18.2011L19.9693 18.0253ZM30.038 18.017L30.1303 17.8395L30.1296 17.8392L30.038 18.017ZM30.2131 18.5754L30.0371 18.4801L30.0342 18.486L30.2131 18.5754ZM17.6777 23.1097L17.5634 23.2739L17.5667 23.2761L17.6777 23.1097ZM17.5776 22.5263L17.4143 22.4108L17.4135 22.4121L17.5776 22.5263ZM20.7033 19.8009L20.7946 19.9788L20.795 19.9786L20.7033 19.8009ZM29.2967 19.7926L29.2052 19.9704L29.2054 19.9705L29.2967 19.7926ZM32.4224 22.5013L32.2594 22.6173L32.2606 22.6189L32.4224 22.5013ZM32.3223 23.0847L32.2081 22.9205H32.2081L32.3223 23.0847ZM31.7389 22.9847L31.9031 22.8705L31.9016 22.8684L31.7389 22.9847ZM28.9133 20.5343L28.8221 20.7123L28.8223 20.7124L28.9133 20.5343ZM21.0784 20.5427L21.1699 20.7205L21.1703 20.7203L21.0784 20.5427ZM18.2445 23.0097L18.0817 22.8934L18.0758 22.9017L18.0708 22.9105L18.2445 23.0097ZM22.8374 33.1201L22.9862 32.9861L22.9788 32.9787L22.8374 33.1201ZM23.4375 33.1201L23.572 33.2681L23.5775 33.2632L23.5825 33.2579L23.4375 33.1201ZM23.4375 32.5283L23.5825 32.3906L23.5798 32.3878L23.4375 32.5283ZM21.8955 30.5113L22.0703 30.414L22.0697 30.4129L21.8955 30.5113ZM21.162 30.9197L21.337 30.8228L21.3365 30.8218L21.162 30.9197ZM26.5205 30.9613L26.6336 30.7964L26.6327 30.7957L26.5205 30.9613ZM26.9873 30.2695L27.0993 30.1038L27.0988 30.1035L26.9873 30.2695ZM29.9712 30.7779L30.0057 30.9749L30.0076 30.9746L29.9712 30.7779ZM30.4546 31.1196L30.2577 31.1548L30.258 31.1561L30.4546 31.1196ZM30.1129 31.6031L30.0777 31.4062L30.075 31.4067L30.1129 31.6031ZM27.3214 33.4034L27.268 33.5962L27.2729 33.5974L27.3214 33.4034ZM27.8215 33.1033L27.6281 33.0513L27.6261 33.0609L27.8215 33.1033ZM27.5298 32.5949L27.4765 32.7877L27.4796 32.7885L27.5298 32.5949ZM24.8042 31.0529L24.6634 31.1949L24.6635 31.1951L24.8042 31.0529ZM18.7113 24.6017L18.5308 24.5156L18.5306 24.5161L18.7113 24.6017ZM18.753 30.6029L18.9412 30.5351L18.9403 30.5328L18.753 30.6029ZM19.2864 30.8446L19.221 30.6555L19.2146 30.6579L19.2864 30.8446ZM19.5281 30.3111L19.3409 30.3814L19.3415 30.3829L19.5281 30.3111ZM19.4615 24.9684L19.6417 25.0552L19.6419 25.0546L19.4615 24.9684ZM24.2208 31.6531L24.0799 31.795L24.0807 31.7958L24.2208 31.6531ZM29.5554 18.9325C29.6456 18.984 29.7468 19.0088 29.8463 19.0088V18.6088C29.8125 18.6088 29.7803 18.6003 29.7538 18.5852L29.5554 18.9325ZM25.012 17.7835C26.6361 17.7835 27.9885 18.1247 29.5629 18.9366L29.7463 18.5811C28.1201 17.7425 26.7052 17.3835 25.012 17.3835V17.7835ZM20.4657 18.9341C21.8605 18.1673 23.3942 17.7835 25.012 17.7835V17.3835C23.3291 17.3835 21.7288 17.7833 20.273 18.5836L20.4657 18.9341ZM19.6298 18.6929C19.7982 18.9815 20.1649 19.097 20.4646 18.9347L20.2741 18.583C20.1737 18.6373 20.0404 18.6028 19.9753 18.4913L19.6298 18.6929ZM19.874 17.8495C19.5755 18.0111 19.4665 18.3915 19.6267 18.6874L19.9784 18.4969C19.922 18.3926 19.9629 18.2562 20.0645 18.2012L19.874 17.8495ZM25.012 16.55C23.1868 16.55 21.4536 16.9917 19.8738 17.8496L20.0647 18.2011C21.5856 17.3752 23.2531 16.95 25.012 16.95V16.55ZM30.1296 17.8392C28.4032 16.9506 26.8217 16.55 25.012 16.55V16.95C26.753 16.95 28.2721 17.333 29.9465 18.1948L30.1296 17.8392ZM30.3889 18.6707C30.551 18.3715 30.437 17.999 30.1303 17.8395L29.9457 18.1944C30.0558 18.2516 30.0919 18.3793 30.0372 18.4802L30.3889 18.6707ZM29.8463 19.0088C30.0732 19.0088 30.2835 18.8817 30.3919 18.6649L30.0342 18.486C29.9925 18.5693 29.9195 18.6088 29.8463 18.6088V19.0088ZM17.5667 23.2761C17.6736 23.3473 17.7953 23.3847 17.9194 23.3847V22.9847C17.8768 22.9847 17.8318 22.9721 17.7886 22.9433L17.5667 23.2761ZM17.4135 22.4121C17.2194 22.6911 17.2777 23.0751 17.5635 23.2739L17.7919 22.9455C17.6942 22.8776 17.6692 22.7449 17.7418 22.6405L17.4135 22.4121ZM20.612 19.623C19.3324 20.2797 18.2577 21.2182 17.4144 22.4108L17.7409 22.6418C18.5479 21.5007 19.5736 20.6055 20.7946 19.9788L20.612 19.623ZM29.3882 19.6147C26.705 18.2348 23.286 18.2434 20.6116 19.6231L20.795 19.9786C23.3549 18.658 26.6374 18.6499 29.2052 19.9704L29.3882 19.6147ZM32.5853 22.3853C31.7416 21.2009 30.667 20.2711 29.388 19.6146L29.2054 19.9705C30.427 20.5975 31.4527 21.4847 32.2594 22.6173L32.5853 22.3853ZM32.4365 23.2489C32.7209 23.0511 32.783 22.6571 32.5841 22.3836L32.2606 22.6189C32.3285 22.7122 32.3072 22.8516 32.2081 22.9205L32.4365 23.2489ZM31.5747 23.0989C31.7735 23.3846 32.1575 23.443 32.4365 23.2489L32.2081 22.9205C32.1037 22.9932 31.971 22.9682 31.9031 22.8705L31.5747 23.0989ZM28.8223 20.7124C29.9183 21.2725 30.8441 22.0762 31.5761 23.1009L31.9016 22.8684C31.1333 21.7929 30.1588 20.9463 29.0043 20.3562L28.8223 20.7124ZM21.1703 20.7203C23.4964 19.5166 26.4871 19.5164 28.8221 20.7123L29.0045 20.3563C26.5552 19.1019 23.428 19.1016 20.9865 20.365L21.1703 20.7203ZM18.4072 23.1259C19.1395 22.1007 20.0657 21.2888 21.1699 20.7205L20.9868 20.3648C19.8239 20.9634 18.8497 21.8184 18.0817 22.8934L18.4072 23.1259ZM17.9194 23.3847C18.1093 23.3847 18.3088 23.3001 18.4181 23.1089L18.0708 22.9105C18.0467 22.9527 17.9962 22.9847 17.9194 22.9847V23.3847ZM23.1291 33.0451C23.0702 33.0451 23.0185 33.0224 22.986 32.9863L22.6887 33.2539C22.8063 33.3845 22.9713 33.4451 23.1291 33.4451V33.0451ZM23.303 32.9721C23.2456 33.0243 23.1844 33.0451 23.1291 33.0451V33.4451C23.2905 33.4451 23.446 33.3827 23.572 33.2681L23.303 32.9721ZM23.2925 32.6661C23.3775 32.7556 23.3775 32.8929 23.2925 32.9824L23.5825 33.2579C23.8142 33.014 23.8142 32.6345 23.5825 32.3906L23.2925 32.6661ZM21.7208 30.6085C22.2658 31.5879 22.6454 32.0107 23.2952 32.6688L23.5798 32.3878C22.946 31.7457 22.5921 31.3517 22.0703 30.414L21.7208 30.6085ZM20.9204 27.3023C20.9204 28.5312 21.1934 29.6747 21.7214 30.6096L22.0697 30.4129C21.5808 29.5474 21.3204 28.4739 21.3204 27.3023H20.9204ZM25.0045 23.4432C22.7633 23.4432 20.9204 25.1637 20.9204 27.3023H21.3204C21.3204 25.4067 22.9615 23.8432 25.0045 23.8432V23.4432ZM29.0886 27.3023C29.0886 25.1637 27.2457 23.4432 25.0045 23.4432V23.8432C27.0475 23.8432 28.6886 25.4067 28.6886 27.3023H29.0886ZM29.3054 27.519C29.1824 27.519 29.0886 27.4252 29.0886 27.3023H28.6886C28.6886 27.6461 28.9615 27.919 29.3054 27.919V27.519ZM29.5221 27.3023C29.5221 27.4252 29.4283 27.519 29.3054 27.519V27.919C29.6492 27.919 29.9221 27.6461 29.9221 27.3023H29.5221ZM25.0045 23.0097C27.5039 23.0097 29.5221 24.9463 29.5221 27.3023H29.9221C29.9221 24.7072 27.7062 22.6097 25.0045 22.6097V23.0097ZM20.4869 27.3023C20.4869 24.9463 22.5051 23.0097 25.0045 23.0097V22.6097C22.3028 22.6097 20.0869 24.7072 20.0869 27.3023H20.4869ZM21.3365 30.8218C20.7806 29.8308 20.4869 28.6153 20.4869 27.3023H20.0869C20.0869 28.6731 20.3933 29.9581 20.9876 31.0175L21.3365 30.8218ZM22.9788 32.9787C22.2641 32.264 21.8847 31.8119 21.337 30.8228L20.9871 31.0166C21.5563 32.0445 21.9604 32.5259 22.696 33.2615L22.9788 32.9787ZM26.4073 31.1262C27.1622 31.6441 28.0783 31.9031 29.1044 31.9031V31.5031C28.1467 31.5031 27.3124 31.262 26.6336 30.7964L26.4073 31.1262ZM24.3367 27.3022C24.3367 28.8217 25.1138 30.2494 26.4083 31.1268L26.6327 30.7957C25.4433 29.9895 24.7367 28.6834 24.7367 27.3022H24.3367ZM24.9535 26.6855C24.6097 26.6855 24.3367 26.9584 24.3367 27.3022H24.7367C24.7367 27.1793 24.8306 27.0855 24.9535 27.0855V26.6855ZM25.5702 27.3022C25.5702 26.9584 25.2973 26.6855 24.9535 26.6855V27.0855C25.0764 27.0855 25.1702 27.1793 25.1702 27.3022H25.5702ZM27.0988 30.1035C26.135 29.4557 25.5702 28.4083 25.5702 27.3022H25.1702C25.1702 28.5467 25.8057 29.7163 26.8757 30.4355L27.0988 30.1035ZM29.1044 30.6613C28.3035 30.6613 27.6524 30.4777 27.0993 30.1038L26.8752 30.4352C27.5057 30.8614 28.2382 31.0613 29.1044 31.0613V30.6613ZM29.9367 30.5809C29.6138 30.6374 29.2919 30.6613 29.1044 30.6613V31.0613C29.3168 31.0613 29.6618 31.0351 30.0057 30.9749L29.9367 30.5809ZM30.6515 31.0845C30.5908 30.7444 30.2715 30.5189 29.9348 30.5813L30.0076 30.9746C30.121 30.9536 30.2351 31.0281 30.2578 31.1548L30.6515 31.0845ZM30.1481 31.8C30.4881 31.7392 30.7136 31.4199 30.6513 31.0832L30.258 31.1561C30.279 31.2695 30.2044 31.3836 30.0777 31.4062L30.1481 31.8ZM29.1044 31.9031C29.228 31.9031 29.6586 31.8944 30.1508 31.7995L30.075 31.4067C29.617 31.4951 29.2141 31.5031 29.1044 31.5031V31.9031ZM27.4298 33.2201C27.4222 33.2201 27.4004 33.217 27.3699 33.2094L27.2729 33.5974C27.3091 33.6065 27.3706 33.6201 27.4298 33.6201V33.2201ZM27.6261 33.0609C27.6056 33.1552 27.5163 33.2201 27.4298 33.2201V33.6201C27.6932 33.6201 27.9541 33.4349 28.0169 33.1458L27.6261 33.0609ZM27.4796 32.7885C27.5915 32.8175 27.6593 32.9364 27.6284 33.0514L28.0146 33.1553C28.1004 32.8369 27.9182 32.489 27.58 32.4013L27.4796 32.7885ZM24.6635 31.1951C25.4815 32.0044 26.2707 32.4542 27.4765 32.7877L27.5831 32.4021C26.4383 32.0855 25.7106 31.6685 24.9449 30.9108L24.6635 31.1951ZM23.0456 27.2939C23.0456 28.7718 23.6165 30.1568 24.6634 31.1949L24.9451 30.9109C23.9748 29.9487 23.4456 28.6665 23.4456 27.2939H23.0456ZM24.9793 25.4769C23.9234 25.4769 23.0456 26.2788 23.0456 27.2939H23.4456C23.4456 26.5252 24.118 25.8769 24.9793 25.8769V25.4769ZM26.9129 27.2939C26.9129 26.2788 26.0351 25.4769 24.9793 25.4769V25.8769C25.8405 25.8769 26.5129 26.5252 26.5129 27.2939H26.9129ZM29.2801 29.5443C27.9649 29.5443 26.9129 28.5251 26.9129 27.2939H26.5129C26.5129 28.7631 27.7615 29.9443 29.2801 29.9443V29.5443ZM31.6473 27.2939C31.6473 28.5251 30.5954 29.5443 29.2801 29.5443V29.9443C30.7988 29.9443 32.0473 28.7631 32.0473 27.2939H31.6473ZM24.9709 20.9676C28.6629 20.9676 31.6473 23.8134 31.6473 27.2939H32.0473C32.0473 23.573 28.8638 20.5676 24.9709 20.5676V20.9676ZM18.8918 24.6877C19.9655 22.4356 22.3516 20.9676 24.9709 20.9676V20.5676C22.2058 20.5676 19.6743 22.1168 18.5308 24.5156L18.8918 24.6877ZM18.3445 27.3022C18.3445 26.3277 18.5313 25.449 18.8921 24.6873L18.5306 24.5161C18.1412 25.338 17.9445 26.2763 17.9445 27.3022H18.3445ZM18.9403 30.5328C18.54 29.4624 18.3445 28.4026 18.3445 27.3022H17.9445C17.9445 28.4523 18.1492 29.5595 18.5657 30.6729L18.9403 30.5328ZM19.2146 30.6579C19.104 30.7004 18.9787 30.6394 18.9412 30.5351L18.5648 30.6706C18.6773 30.983 19.0354 31.1554 19.3582 31.0312L19.2146 30.6579ZM19.3415 30.3829C19.3857 30.498 19.3269 30.6189 19.221 30.6556L19.3519 31.0336C19.6794 30.9202 19.8373 30.5577 19.7148 30.2393L19.3415 30.3829ZM18.7697 27.3022C18.7697 27.9682 18.8299 29.0188 19.3409 30.3814L19.7154 30.2409C19.2262 28.9362 19.1697 27.9364 19.1697 27.3022H18.7697ZM19.2813 24.8816C18.9413 25.5878 18.7697 26.4101 18.7697 27.3022H19.1697C19.1697 26.4607 19.3315 25.6993 19.6417 25.0552L19.2813 24.8816ZM24.9709 21.4094C22.5317 21.4094 20.2915 22.7662 19.281 24.8822L19.6419 25.0546C20.5818 23.0864 22.6759 21.8094 24.9709 21.8094V21.4094ZM31.2138 27.3022C31.2138 24.0383 28.4039 21.4094 24.9709 21.4094V21.8094C28.2059 21.8094 30.8138 24.2815 30.8138 27.3022H31.2138ZM29.2801 29.1192C30.3359 29.1192 31.2138 28.3172 31.2138 27.3022H30.8138C30.8138 28.0709 30.1414 28.7192 29.2801 28.7192V29.1192ZM27.3464 27.3022C27.3464 28.3172 28.2243 29.1192 29.2801 29.1192V28.7192C28.4189 28.7192 27.7464 28.0709 27.7464 27.3022H27.3464ZM24.9793 25.0517C26.2945 25.0517 27.3464 26.0709 27.3464 27.3022H27.7464C27.7464 25.8329 26.4979 24.6517 24.9793 24.6517V25.0517ZM22.6121 27.3022C22.6121 26.0709 23.664 25.0517 24.9793 25.0517V24.6517C23.4606 24.6517 22.2121 25.8329 22.2121 27.3022H22.6121ZM24.3617 31.5111C23.2327 30.3902 22.6121 28.8994 22.6121 27.3022H22.2121C22.2121 29.0057 22.8751 30.5988 24.0799 31.795L24.3617 31.5111ZM27.3747 33.2106C26.0798 32.8523 25.2435 32.3768 24.3609 31.5103L24.0807 31.7958C25.0151 32.713 25.9124 33.221 27.2681 33.5962L27.3747 33.2106Z" fill="white"/>
</svg>
