<svg width="16" height="14" viewBox="0 0 16 14" fill="none" xmlns="http://www.w3.org/2000/svg">
<path fill-rule="evenodd" clip-rule="evenodd" d="M9.6276 0.342582C10.1734 0.116411 10.7585 0 11.3493 0C11.9402 0 12.5253 0.116411 13.0711 0.342582C13.6168 0.568711 14.1127 0.90013 14.5303 1.31791C14.9481 1.73556 15.2798 2.23164 15.5059 2.77738C15.7321 3.32322 15.8485 3.90828 15.8485 4.49913C15.8485 5.08997 15.7321 5.67503 15.5059 6.22087C15.2797 6.76667 14.9483 7.26256 14.5305 7.68023C14.5304 7.68027 14.5305 7.68019 14.5305 7.68023L8.41336 13.7973C8.14312 14.0676 7.70499 14.0676 7.43475 13.7973L1.31766 7.68023C0.473975 6.83655 0 5.69227 0 4.49913C0 3.30598 0.473975 2.16171 1.31766 1.31803C2.16134 0.474345 3.30561 0.000370052 4.49876 0.000370052C5.6919 0.000370052 6.83618 0.474345 7.67986 1.31803L7.92405 1.56222L8.16813 1.31814C8.16817 1.3181 8.1681 1.31818 8.16813 1.31814C8.5858 0.900306 9.08181 0.568732 9.6276 0.342582ZM11.3493 1.38396C10.9403 1.38396 10.5353 1.46455 10.1574 1.62113C9.77948 1.77771 9.43614 2.00721 9.14697 2.29652L8.41336 3.03013C8.14312 3.30036 7.70499 3.30036 7.43475 3.03013L6.70125 2.29663C6.11711 1.71249 5.32485 1.38433 4.49876 1.38433C3.67266 1.38433 2.8804 1.71249 2.29626 2.29663C1.71212 2.88077 1.38396 3.67303 1.38396 4.49913C1.38396 5.32522 1.71212 6.11749 2.29626 6.70162L7.92405 12.3294L13.5518 6.70162C13.8412 6.41245 14.0708 6.069 14.2273 5.6911C14.3839 5.31321 14.4645 4.90817 14.4645 4.49913C14.4645 4.09008 14.3839 3.68504 14.2273 3.30715C14.0708 2.92926 13.8413 2.58592 13.552 2.29675C13.2628 2.00744 12.9192 1.77771 12.5413 1.62113C12.1634 1.46455 11.7584 1.38396 11.3493 1.38396Z" fill="#A98D4B"/>
</svg>
