<svg width="30" height="30" viewBox="0 0 30 30" fill="none" xmlns="http://www.w3.org/2000/svg">
<circle cx="15" cy="15" r="15" fill="#FAFAFA"/>
<path fill-rule="evenodd" clip-rule="evenodd" d="M9.6 9H20.4C21.1425 9 21.75 9.6075 21.75 10.35V18.45C21.75 19.1925 21.1425 19.8 20.4 19.8H10.95L8.25 22.5L8.25675 10.35C8.25675 9.6075 8.8575 9 9.6 9ZM16.3497 14.9401L17.9562 16.2226C18.395 16.5736 19.0497 16.2631 19.0497 15.6961V13.1041C19.0497 12.5371 18.395 12.2266 17.9562 12.5776L16.3497 13.8601V12.3751C16.3497 12.0038 16.046 11.7001 15.6747 11.7001H11.6247C11.2535 11.7001 10.9497 12.0038 10.9497 12.3751V16.4251C10.9497 16.7963 11.2535 17.1001 11.6247 17.1001H15.6747C16.046 17.1001 16.3497 16.7963 16.3497 16.4251V14.9401Z" fill="#7D2B8B"/>
<path d="M17.9562 16.2226L16.3497 14.9401V16.4251C16.3497 16.7963 16.046 17.1001 15.6747 17.1001H11.6247C11.2535 17.1001 10.9497 16.7963 10.9497 16.4251V12.3751C10.9497 12.0038 11.2535 11.7001 11.6247 11.7001H15.6747C16.046 11.7001 16.3497 12.0038 16.3497 12.3751V13.8601L17.9562 12.5776C18.395 12.2266 19.0497 12.5371 19.0497 13.1041V15.6961C19.0497 16.2631 18.395 16.5736 17.9562 16.2226Z" fill="#A98D4B"/>
</svg>
