<svg width="18" height="18" viewBox="0 0 18 18" fill="none" xmlns="http://www.w3.org/2000/svg">
<path fill-rule="evenodd" clip-rule="evenodd" d="M11.2 3.2H14.4C15.288 3.2 16 3.912 16 4.8V13.6C16 14.488 15.288 15.2 14.4 15.2H1.6C0.712 15.2 0 14.488 0 13.6L0.008 4.8C0.008 3.912 0.712 3.2 1.6 3.2H4.8V1.6C4.8 0.711998 5.512 0 6.4 0H9.6C10.488 0 11.2 0.711998 11.2 1.6V3.2ZM6.39993 3.2011H9.59993V1.6011H6.39993V3.2011Z" fill="#A98D4B"/>
<circle cx="13" cy="13" r="5" fill="white"/>
<path fill-rule="evenodd" clip-rule="evenodd" d="M9.85721 12.9989C9.85721 11.1055 11.3925 9.57031 13.2858 9.57031C15.1791 9.57031 16.7144 11.1055 16.7144 12.9989C16.7144 14.8922 15.1791 16.4275 13.2858 16.4275C12.3372 16.4275 11.4839 16.0427 10.8629 15.4217L11.4039 14.8808C11.8839 15.3646 12.5505 15.6656 13.2858 15.6656C14.7601 15.6656 15.9525 14.4732 15.9525 12.9989C15.9525 11.5246 14.7601 10.3322 13.2858 10.3322C11.8115 10.3322 10.6191 11.5246 10.6191 12.9989H11.762L10.2382 14.5189L8.71436 12.9989H9.85721ZM12.905 13.3849V11.4802H13.4764V13.0611L14.8174 13.8573L14.524 14.3449L12.905 13.3849Z" fill="#7D2B8B"/>
</svg>
