<svg width="50" height="50" viewBox="0 0 50 50" fill="none" xmlns="http://www.w3.org/2000/svg">
<circle cx="25" cy="25" r="25" fill="#F2EAF3"/>
<circle opacity="0.7" cx="25" cy="25" r="20" fill="#7D2B8B"/>
<path fill-rule="evenodd" clip-rule="evenodd" d="M32.1998 16H21.3998C20.4098 16 19.5998 16.81 19.5998 17.8V28.6C19.5998 29.59 20.4098 30.4 21.3998 30.4H32.1998C33.1898 30.4 33.9998 29.59 33.9998 28.6V17.8C33.9998 16.81 33.1898 16 32.1998 16ZM16.9 19.6C16.405 19.6 16 20.005 16 20.5V32.2C16 33.19 16.81 34 17.8 34H29.5C29.995 34 30.4 33.595 30.4 33.1C30.4 32.605 29.995 32.2 29.5 32.2H18.7C18.205 32.2 17.8 31.795 17.8 31.3V20.5C17.8 20.005 17.395 19.6 16.9 19.6ZM23.1999 24.0999H30.3999C30.8949 24.0999 31.2999 23.6949 31.2999 23.1999C31.2999 22.7049 30.8949 22.2999 30.3999 22.2999H23.1999C22.7049 22.2999 22.2999 22.7049 22.2999 23.1999C22.2999 23.6949 22.7049 24.0999 23.1999 24.0999ZM26.7999 27.7H23.1999C22.7049 27.7 22.2999 27.295 22.2999 26.8C22.2999 26.305 22.7049 25.9 23.1999 25.9H26.7999C27.2949 25.9 27.6999 26.305 27.6999 26.8C27.6999 27.295 27.2949 27.7 26.7999 27.7ZM23.1999 20.5001H30.3999C30.8949 20.5001 31.2999 20.0951 31.2999 19.6001C31.2999 19.1051 30.8949 18.7001 30.3999 18.7001H23.1999C22.7049 18.7001 22.2999 19.1051 22.2999 19.6001C22.2999 20.0951 22.7049 20.5001 23.1999 20.5001Z" fill="white"/>
</svg>
