<svg width="30" height="30" viewBox="0 0 30 30" fill="none" xmlns="http://www.w3.org/2000/svg">
<path fill-rule="evenodd" clip-rule="evenodd" d="M15 0C6.71573 0 0 6.71573 0 15C0 23.2843 6.71573 30 15 30C23.2843 30 30 23.2843 30 15C30 6.71573 23.2843 0 15 0ZM15 27.9545C7.8454 27.9545 2.04545 22.1546 2.04545 15C2.04545 7.8454 7.8454 2.04545 15 2.04545C22.1546 2.04545 27.9545 7.8454 27.9545 15C27.9545 18.4358 26.5897 21.7308 24.1602 24.1602C21.7308 26.5897 18.4358 27.9545 15 27.9545Z" fill="#B7B7B7"/>
<path fill-rule="evenodd" clip-rule="evenodd" d="M13.9432 14.9316L18.6409 10.2339C18.9145 9.97892 19.0271 9.59494 18.9346 9.23258C18.8421 8.87022 18.5591 8.58726 18.1967 8.49472C17.8344 8.40218 17.4504 8.51481 17.1954 8.78843L11.0591 14.9248L12.6341 16.4998L17.2159 21.0816C17.4709 21.3552 17.8548 21.4679 18.2172 21.3753C18.5796 21.2828 18.8625 20.9998 18.9551 20.6375C19.0476 20.2751 18.935 19.8911 18.6614 19.6362L13.9432 14.9316Z" fill="#B7B7B7"/>
</svg>
