<svg width="40" height="40" viewBox="0 0 40 40" fill="none" xmlns="http://www.w3.org/2000/svg">
<circle cx="20" cy="20" r="20" transform="rotate(180 20 20)" fill="#A98D4B"/>
<path fill-rule="evenodd" clip-rule="evenodd" d="M19.2929 27.7071C19.6834 28.0976 20.3166 28.0976 20.7071 27.7071C21.0976 27.3166 21.0976 26.6834 20.7071 26.2929L15.4142 21L27 21C27.5523 21 28 20.5523 28 20C28 19.4477 27.5523 19 27 19L15.4142 19L20.7071 13.7071C21.0976 13.3166 21.0976 12.6834 20.7071 12.2929C20.3166 11.9024 19.6834 11.9024 19.2929 12.2929L12.2929 19.2929C11.9024 19.6834 11.9024 20.3166 12.2929 20.7071L19.2929 27.7071Z" fill="white"/>
</svg>
