<svg width="113" height="40" viewBox="0 0 113 40" fill="none" xmlns="http://www.w3.org/2000/svg">
<path fill-rule="evenodd" clip-rule="evenodd" d="M65.52 4.08C66.32 3.36 67.44 2.96 68.8 2.96C70.16 2.96 71.2 3.36 72 4.08C72.8 4.8 73.2 6 73.2 7.52H64.08C64.16 6 64.64 4.88 65.52 4.08ZM62.24 16.72C64 18.4 66.4 19.2 69.6 19.2C70.88 19.2 72.16 19.04 73.12 18.88C74.24 18.72 75.28 18.4 76.32 17.92V14.72C75.12 15.2 74.08 15.6 73.04 15.76C72.08 15.92 70.96 16.08 69.76 16.08C67.92 16.08 66.48 15.6 65.52 14.64C64.48 13.6 64 12.32 63.92 10.48H77.36V8.32C77.36 5.76 76.56 3.76 75.04 2.24C73.52 0.8 71.36 0 68.72 0C65.92 0 63.6 0.8 62.08 2.64C60.48 4.32 59.6 6.72 59.6 9.76C59.6 12.72 60.48 15.04 62.24 16.72ZM57.36 17.76C58.8 16.8 59.52 15.44 59.52 13.6C59.52 12.72 59.28 11.92 58.88 11.6C58.56 10.96 58 10.4 57.2 9.91999C56.4 9.43999 55.2 8.87999 53.52 8.31999C51.6 7.59999 50.24 7.03999 49.68 6.63999C49.12 6.23999 48.8 5.67999 48.8 5.11999C48.8 3.83999 49.92 3.27999 52.16 3.27999C53.68 3.27999 55.52 3.67999 57.68 4.47999L59.12 1.51999C57.04 0.639985 54.8 0.159985 52.4 0.159985C50 0.159985 48.16 0.559985 46.72 1.43999C45.36 2.31999 44.64 3.51999 44.64 5.11999C44.64 6.47999 45.04 7.51999 45.92 8.31999C46.8 9.11999 48.32 9.99999 50.64 10.8C51.7704 11.1768 52.6168 11.5536 53.313 11.8635L53.44 11.92C54.08 12.24 54.56 12.56 54.88 12.88C55.12 13.2 55.28 13.52 55.28 14C55.28 15.44 54 16.16 51.36 16.16C49.28 16.16 47.12 15.68 44.72 14.64V18.08C46.32 18.8 48.56 19.2 51.2 19.2C53.84 19.2 55.92 18.72 57.36 17.76ZM96.72 18.88H92.4V7.44C92.4 6 92.08 4.96 91.52 4.24C90.88 3.52 89.92 3.2 88.56 3.2C86.72 3.2 85.36 3.68 84.56 4.72C83.76 5.76 83.28 7.36 83.28 9.68V18.88H78.96V0.32H82.32L82.96 2.8H83.04C83.68 1.92 84.48 1.28 85.68 0.72C86.8 0.24 88.08 0 89.44 0C94.32 0 96.72 2.24 96.72 6.8V18.88ZM110.8 17.76C112.24 16.8 112.96 15.44 112.96 13.6C112.96 12.72 112.72 11.92 112.32 11.6C112 10.96 111.44 10.4 110.64 9.91999C109.84 9.43999 108.64 8.87999 106.96 8.31999C105.04 7.59999 103.68 7.03999 103.12 6.63999C102.56 6.23999 102.24 5.67999 102.24 5.11999C102.24 3.83999 103.36 3.27999 105.6 3.27999C107.12 3.27999 108.96 3.67999 111.12 4.47999L112.56 1.51999C110.48 0.639985 108.24 0.159985 105.84 0.159985C103.44 0.159985 101.6 0.559985 100.16 1.43999C98.8 2.31999 98.08 3.51999 98.08 5.11999C98.08 6.47999 98.48 7.51999 99.36 8.31999C100.24 9.11999 101.76 9.99999 104.08 10.8C105.21 11.1768 106.057 11.5536 106.753 11.8635L106.88 11.92C107.52 12.24 108 12.56 108.32 12.88C108.56 13.2 108.72 13.52 108.72 14C108.72 15.44 107.44 16.16 104.8 16.16C102.72 16.16 100.56 15.68 98.16 14.64V18.08C99.76 18.8 102 19.2 104.64 19.2C107.28 19.2 109.36 18.72 110.8 17.76ZM60.08 24.88C60.08 25.44 59.92 25.92 59.6 26.24C59.28 26.56 58.8 26.72 58.24 26.72C57.92 26.72 57.68 26.64 57.44 26.56C57.2 26.4 57.12 26.32 56.96 26.16C56.8 26 56.72 25.84 56.64 25.68L56.64 25.68C56.56 25.52 56.56 25.36 56.56 25.2C56.56 25.04 56.56 24.72 56.64 24.48C56.72 24.24 56.88 24 57.04 23.76C56.88 23.04 56.56 22.64 55.92 22.24C55.36 21.92 54.64 21.76 53.84 21.76C53.04 21.76 52.4 21.92 51.84 22.16C51.2 22.4 50.72 22.8 50.32 23.28C50.2501 23.3638 50.1778 23.4477 50.1048 23.5324C49.7596 23.9326 49.3981 24.3518 49.2 24.88C48.88 25.52 48.64 26.08 48.48 26.8C48.24 27.44 48.16 28.16 48.08 28.88L48.0558 29.0958C47.9846 29.7293 47.92 30.3046 47.92 30.88C47.92 32.16 48.08 33.28 48.24 34.16C48.4 35.04 48.8 35.76 49.28 36.32C49.68 36.88 50.24 37.28 50.8 37.52C51.44 37.76 52.08 37.92 52.8 37.92C53.28 37.92 53.84 37.84 54.4 37.68C54.96 37.52 55.52 37.28 56.08 36.88C56.64 36.48 57.12 36.08 57.6 35.44C57.9509 35.0306 58.2591 34.4928 58.587 33.9206C58.7076 33.7102 58.8309 33.4951 58.96 33.28L60.4 33.92C59.92 35.04 59.36 35.92 58.72 36.64C58.08 37.36 57.44 38 56.72 38.48C56 38.96 55.28 39.28 54.56 39.52C53.84 39.76 53.04 39.84 52.24 39.84C51.04 39.84 50 39.68 49.04 39.36C48.08 39.04 47.28 38.56 46.56 37.84C45.84 37.12 45.36 36.32 45.04 35.36C44.72 34.4 44.48 33.12 44.48 31.76C44.48 30.96 44.56 30.16 44.8 29.28C44.96 28.48 45.2 27.52 45.6 26.8C45.92 26 46.4 25.2 46.88 24.4C47.36 23.6 48 22.96 48.72 22.48C49.44 21.92 50.24 21.44 51.2 21.12C52.08 20.8 53.12 20.64 54.24 20.64C55.12 20.64 55.92 20.8 56.64 20.96C57.36 21.12 58.08 21.44 58.56 21.84C59.12 22.24 59.52 22.64 59.84 23.2C59.8603 23.3218 59.8857 23.4539 59.9124 23.5924L59.9124 23.5924C59.9909 23.9997 60.08 24.4621 60.08 24.88ZM73.28 22C73.84 22.08 74.32 22.16 74.72 22.32C74.72 23.44 74.56 24.64 74.32 25.84C74.08 27.04 73.76 28.32 73.44 29.44C73.04 30.64 72.64 31.68 72.16 32.8C71.68 33.84 71.2 34.8 70.64 35.6C70.08 36.4 69.52 37.04 68.88 37.52C68.32 38 67.68 38.24 67.04 38.24C66.56 38.24 66.08 38.08 65.76 37.84C65.44 37.52 65.2 37.2 64.96 36.72C64.9385 36.6447 64.917 36.5708 64.8956 36.4976L64.8956 36.4976L64.8956 36.4975C64.7584 36.0265 64.6292 35.5831 64.56 34.96C64.48 34.32 64.4 33.6 64.4 32.8C64.4 31.44 64.48 30.08 64.8 28.8C65.0359 27.5416 65.5812 26.3606 66.0556 25.3329L66.08 25.28C66.72 24.32 67.44 23.44 68.32 22.8C69.28 22.16 70.32 21.84 71.52 21.84C72.16 21.84 72.8 21.92 73.28 22ZM77.92 23.4799C78.02 22.72 78.12 21.96 78.24 21.2C77.36 20.96 76.48 20.8 75.52 20.88C75.3896 20.8691 75.2622 20.8583 75.1372 20.8476C74.3413 20.7797 73.6405 20.72 72.88 20.72C70.96 20.72 69.2 21.04 67.76 21.76C66.24 22.4 65.04 23.44 64.08 24.56C63.12 25.84 62.4 27.2 61.92 28.72C61.44 30.24 61.2 31.84 61.2 33.6C61.2 34.72 61.28 35.76 61.6 36.56C61.76 37.44 62.16 38.08 62.64 38.56C63.04 39.12 63.6 39.44 64.24 39.68C64.8 39.84 65.52 40 66.24 40C66.64 40 67.04 39.92 67.4399 39.84L67.44 39.84C67.64 39.76 67.86 39.68 68.08 39.6C68.3 39.52 68.52 39.44 68.72 39.36C69.2 39.12 69.6 38.88 70.08 38.48C70.64 38.08 71.04 37.6 71.52 36.96C72 36.32 72.4 35.6 72.88 34.72C73.36 33.84 73.84 32.8 74.24 31.6H74.4C74.3467 31.8933 74.2934 32.1954 74.24 32.4976L74.24 32.4978L74.24 32.498C74.1333 33.1024 74.0267 33.7067 73.92 34.24C73.76 35.04 73.68 35.84 73.68 36.56C73.68 37.12 73.76 37.52 73.84 37.92L73.84 37.92C73.92 38.32 74.08 38.72 74.32 38.96C74.48 39.2 74.72 39.44 75.2 39.6C75.68 39.76 76.08 39.84 76.64 39.84C77.36 39.84 78.16 39.68 78.72 39.28C79.28 38.88 79.84 38.32 80.24 37.84C80.64 37.2001 80.9599 36.6401 81.2799 36.0802L81.28 36.08C81.3449 35.8529 81.4229 35.639 81.4981 35.4329L81.4982 35.4327C81.6084 35.1306 81.7124 34.8453 81.76 34.56L80.64 34.4C80.5886 34.537 80.5409 34.6703 80.4945 34.8C80.3242 35.2761 80.1715 35.7027 79.92 36.08C79.8222 36.2267 79.7393 36.366 79.6622 36.4955L79.6622 36.4956C79.4872 36.7896 79.3422 37.0334 79.12 37.2C79.0343 37.2643 78.96 37.3229 78.8911 37.3772C78.7028 37.5257 78.5543 37.6429 78.32 37.76L78.32 37.76C78.08 37.84 77.84 37.92 77.6 37.92C77.28 37.92 77.12 37.92 76.96 37.76C76.92 37.68 76.86 37.6 76.8 37.52L76.8 37.52C76.74 37.44 76.68 37.36 76.64 37.28C76.56 37.12 76.48 36.88 76.48 36.64V35.92C76.48 35.36 76.48 34.56 76.64 33.52C76.7085 32.6302 76.8355 31.6232 76.9709 30.5492L76.9709 30.5491L76.971 30.549C76.9938 30.3678 77.0169 30.1848 77.04 30C77.0747 29.7222 77.1095 29.4368 77.145 29.1447L77.1451 29.1443L77.1451 29.1436C77.2733 28.0903 77.4122 26.9496 77.6 25.76C77.72 25 77.82 24.24 77.92 23.4799ZM93.84 22.96C93.8 22.96 93.76 22.94 93.72 22.92C93.68 22.9 93.64 22.88 93.6 22.88H93.36C92.72 22.88 92.16 23.12 91.6 23.6C91.04 24.08 90.48 24.72 90 25.44C89.52 26.24 89.04 27.12 88.56 28.16C88.1361 29.0785 87.837 30.0593 87.5524 30.9924L87.5523 30.9927C87.5147 31.116 87.4774 31.2386 87.44 31.36C87.12 32.48 86.88 33.52 86.72 34.72C86.48 35.84 86.4 36.88 86.4 37.84V38.32V38.72V39.04C86.4 39.2 86.4 39.28 86.48 39.44H83.2C83.2 39.2 83.12 38.96 83.12 38.96V37.84C83.12 37.44 83.12 36.96 83.2 36.32C83.2309 36.1039 83.2498 35.8639 83.2707 35.6001V35.6C83.3038 35.1803 83.3418 34.7003 83.44 34.16C83.469 33.8409 83.5085 33.5008 83.5509 33.1358L83.551 33.1355V33.1354C83.6255 32.4939 83.709 31.7757 83.76 30.96C83.8757 30.2659 83.9495 29.6137 84.0118 29.0637L84.0118 29.0637L84.0118 29.0634C84.0357 28.8528 84.0578 28.6572 84.08 28.48C84.16 27.84 84.24 27.28 84.32 26.8C84.3414 26.6715 84.3628 26.5546 84.3827 26.446L84.3828 26.4456C84.4371 26.1485 84.48 25.9143 84.48 25.68C84.56 25.44 84.56 25.2 84.56 24.96C84.56 24.72 84.56 24.64 84.64 24.48V24C84.64 23.84 84.64 23.52 84.56 23.36C84.56 23.2 84.48 22.96 84.4 22.88C84.36 22.8 84.3 22.74 84.24 22.68C84.18 22.62 84.12 22.56 84.08 22.48C83.92 22.4 83.76 22.32 83.52 22.32C83.28 22.32 83.04 22.4 82.8 22.48C82.5657 22.5971 82.4172 22.7142 82.2289 22.8627L82.2289 22.8628C82.16 22.9171 82.0857 22.9757 82 23.04C81.68 23.28 81.44 23.68 81.2 24.16C80.96 24.64 80.72 25.2 80.48 25.84L79.36 25.6C79.4075 25.3147 79.5116 25.0294 79.6218 24.7273L79.6218 24.7273C79.697 24.5211 79.7751 24.3071 79.84 24.08L79.84 24.0799L79.8401 24.0798C80.1601 23.5199 80.48 22.9599 80.88 22.32C81.28 21.84 81.84 21.28 82.4 20.88C82.96 20.48 83.76 20.32 84.48 20.32C85.04 20.32 85.44 20.4 85.92 20.56C86.32 20.72 86.64 20.96 86.8 21.28C87.04 21.6 87.2 22 87.28 22.4L87.28 22.4001C87.36 22.8801 87.44 23.36 87.44 23.92C87.44 24.5599 87.36 25.2798 87.28 25.9997V25.9998L87.28 26C87.2418 26.3822 87.167 26.7461 87.0907 27.1179L87.0907 27.118C87.0072 27.5245 86.9218 27.9404 86.88 28.4H87.04C87.6 26.8 88.24 25.52 88.88 24.48C89.52 23.44 90.16 22.64 90.8 22C91.44 21.44 92.08 20.96 92.8 20.72C93.44 20.48 94.16 20.32 94.8 20.32C95.2 20.32 95.6 20.4 95.92 20.48C96.0134 20.5267 96.1067 20.5666 96.1981 20.6056C96.4199 20.7003 96.63 20.79 96.8 20.96C97.009 21.0645 97.1157 21.2032 97.2314 21.3537C97.2928 21.4336 97.3568 21.5168 97.44 21.6C97.6 21.84 97.68 22.16 97.68 22.48C97.68 22.64 97.6 22.96 97.52 23.12C97.48 23.2 97.42 23.3 97.36 23.4C97.3 23.5 97.24 23.6 97.2 23.68C97.04 23.84 96.88 24 96.64 24.08C96.4 24.24 96.16 24.24 95.84 24.24C95.36 24.24 94.96 24.08 94.56 23.84C94 23.84 93.92 23.44 93.84 22.96ZM102.96 22.48C103.6 22 104.48 21.84 105.36 21.84C105.84 21.84 106.24 21.92 106.64 22C106.96 22.08 107.28 22.32 107.52 22.56C107.76 22.8 107.92 23.12 108.08 23.44C108.24 23.76 108.32 24.16 108.32 24.56C108.32 25.28 108.08 25.92 107.6 26.48C107.04 27.12 106.4 27.52 105.6 28C104.8 28.4 103.84 28.8 102.88 29.04C101.84 29.36 100.8 29.52 99.76 29.68L99.7661 29.6062C99.8442 28.6669 99.9282 27.6575 100.24 26.8C100.48 25.92 100.88 25.04 101.28 24.32C101.68 23.52 102.24 22.96 102.96 22.48ZM110.96 26.64C111.28 26.08 111.52 25.52 111.52 24.8C111.52 24.0629 111.384 23.3937 111.3 22.9802C111.293 22.9449 111.286 22.9114 111.28 22.88C110.88 22.4 110.48 21.92 110 21.6C109.44 21.28 108.88 21.04 108.16 20.88C107.52 20.72 106.8 20.64 106.08 20.64C104.96 20.64 104 20.8 103.04 21.12C102.08 21.44 101.28 21.84 100.56 22.32C99.84 22.8 99.2 23.44 98.64 24.16C98.16 24.88 97.68 25.68 97.28 26.48C96.9851 27.0697 96.8207 27.7464 96.6585 28.4138C96.6006 28.6518 96.5431 28.8887 96.48 29.12C96.24 30.08 96.16 30.96 96.16 31.92C96.16 33.12 96.24 34.24 96.56 35.2C96.88 36.16 97.28 36.96 97.92 37.68C98.56 38.4 99.36 38.88 100.24 39.28C101.12 39.68 102.24 39.84 103.52 39.84C105.36 39.84 106.96 39.36 108.4 38.48C109.76 37.6 111.04 36.16 112.16 34.24L110.8 33.52C110.32 34.32 109.84 34.96 109.36 35.52C108.88 36.08 108.32 36.56 107.76 36.88C107.2 37.2 106.56 37.52 106 37.68C105.44 37.84 104.8 37.92 104.24 37.92C102.64 37.92 101.44 37.28 100.72 36.16C100 35.04 99.6 33.28 99.6 30.96C100.48 30.88 101.36 30.8 102.24 30.64C103.12 30.56 104 30.32 104.88 30.08C105.84 29.84 106.64 29.6 107.44 29.28C107.524 29.2426 107.609 29.2052 107.695 29.1676C108.344 28.883 109.025 28.5839 109.52 28.16C110.08 27.68 110.64 27.2 110.96 26.64Z" fill="#A98D4B"/>
<path fill-rule="evenodd" clip-rule="evenodd" d="M25.1367 4.45226C27.03 7.99926 26.511 11.971 23.9774 13.3234C21.4438 14.6757 17.8551 12.8966 15.9618 9.34962C14.0685 5.80262 14.5875 1.83089 17.1211 0.478524C19.6547 -0.873845 23.2434 0.905258 25.1367 4.45226ZM35.52 18.8C33.84 16.48 31.36 15.28 28.16 15.28C25.52 15.28 23.44 16 21.76 17.28C20.16 18.72 18.48 21.28 16.8 25.2C16.6976 25.4234 16.5974 25.6424 16.4992 25.857L16.4985 25.8586L16.4984 25.8588C15.7531 27.4879 15.1253 28.86 14.56 29.92C13.84 31.04 13.28 31.76 12.56 32.32C12 32.8 11.2 33.04 10.24 33.04C7.68 33.04 6.32 31.28 6 27.92L0 25.6V26.16C0 30.64 0.96 34.08 2.88 36.4C4.8 38.8 7.6 40 11.2 40C12.96 40 14.56 39.68 15.76 39.04C17.04 38.4 18.16 37.44 19.12 36.24C20.08 34.96 21.2 32.96 22.4 30.24C23.76 26.96 24.88 24.8 25.76 23.84C26.56 22.8 27.52 22.32 28.64 22.32C30.96 22.32 32.16 24.16 32.16 27.92C32.16 30.4 31.28 33.44 29.68 37.04L35.6 39.36C37.28 35.84 38.24 32.08 38.24 28.08C38.08 24.24 37.2 21.12 35.52 18.8ZM6.8255 24.6837C8.51907 23.6423 8.67251 20.8149 7.16822 18.3687C5.66393 15.9224 3.07155 14.7836 1.37798 15.825C-0.315591 16.8664 -0.469032 19.6938 1.03526 22.14C2.53955 24.5863 5.13193 25.7252 6.8255 24.6837Z" fill="#A98D4B"/>
</svg>
