<svg width="70" height="70" viewBox="0 0 70 70" fill="none" xmlns="http://www.w3.org/2000/svg">
<circle cx="35" cy="35" r="34.5" fill="#FAFAFA" stroke="#7D2B8B"/>
<circle cx="35" cy="35" r="30" fill="white"/>
<path fill-rule="evenodd" clip-rule="evenodd" d="M37.3683 31.5225V20.5961C37.3683 19.633 38.2209 18.8751 39.1683 19.0172C45.2946 19.8856 49.9998 25.1593 49.9998 31.5225H37.3683ZM50 33.1014C50 36.0067 49.0053 38.6909 47.3474 40.8225C48.8 42.1172 49.5737 44.1541 49.0211 46.3488C48.5158 48.3383 46.8737 49.9172 44.8684 50.3435C41.5842 51.0383 38.6316 48.7962 38.2053 45.733H34.9211C34.4947 48.812 31.5263 51.0541 28.2105 50.3277C26.2211 49.8856 24.5789 48.2909 24.1053 46.3014C23.4737 43.6646 24.7526 41.2014 26.8526 40.0804C26.4895 39.5278 23.5053 33.1014 23.5053 33.1014H21.5789C20.7105 33.1014 20 32.3909 20 31.5225C20 30.6541 20.7105 29.9436 21.5789 29.9436H24.5158C25.1158 29.9436 25.6842 30.2909 25.9368 30.8436L27.0105 33.1014H50ZM29.4736 47.3117C28.1631 47.3117 27.1052 46.2539 27.1052 44.9433C27.1052 43.6328 28.1631 42.5749 29.4736 42.5749C30.7842 42.5749 31.8421 43.6328 31.8421 44.9433C31.8421 46.2539 30.7842 47.3117 29.4736 47.3117ZM41.3157 44.9433C41.3157 46.2539 42.3736 47.3117 43.6841 47.3117C44.9946 47.3117 46.0525 46.2539 46.0525 44.9433C46.0525 43.6328 44.9946 42.5749 43.6841 42.5749C42.3736 42.5749 41.3157 43.6328 41.3157 44.9433Z" fill="#A98D4B"/>
<path fill-rule="evenodd" clip-rule="evenodd" d="M37.3683 31.5225V20.5961C37.3683 19.633 38.2209 18.8751 39.1683 19.0172C45.2946 19.8856 49.9998 25.1593 49.9998 31.5225H37.3683ZM50 33.1014C50 36.0067 49.0053 38.6909 47.3474 40.8225C48.8 42.1172 49.5737 44.1541 49.0211 46.3488C48.5158 48.3383 46.8737 49.9172 44.8684 50.3435C41.5842 51.0383 38.6316 48.7962 38.2053 45.733H34.9211C34.4947 48.812 31.5263 51.0541 28.2105 50.3277C26.2211 49.8856 24.5789 48.2909 24.1053 46.3014C23.4737 43.6646 24.7526 41.2014 26.8526 40.0804C26.4895 39.5278 23.5053 33.1014 23.5053 33.1014H21.5789C20.7105 33.1014 20 32.3909 20 31.5225C20 30.6541 20.7105 29.9436 21.5789 29.9436H24.5158C25.1158 29.9436 25.6842 30.2909 25.9368 30.8436L27.0105 33.1014H50ZM29.4736 47.3117C28.1631 47.3117 27.1052 46.2539 27.1052 44.9433C27.1052 43.6328 28.1631 42.5749 29.4736 42.5749C30.7842 42.5749 31.8421 43.6328 31.8421 44.9433C31.8421 46.2539 30.7842 47.3117 29.4736 47.3117ZM41.3157 44.9433C41.3157 46.2539 42.3736 47.3117 43.6841 47.3117C44.9946 47.3117 46.0525 46.2539 46.0525 44.9433C46.0525 43.6328 44.9946 42.5749 43.6841 42.5749C42.3736 42.5749 41.3157 43.6328 41.3157 44.9433Z" fill="#7D2B8B"/>
</svg>
