<svg width="50" height="50" viewBox="0 0 50 50" fill="none" xmlns="http://www.w3.org/2000/svg">
<circle cx="25" cy="25" r="25" fill="#7D2B8B"/>
<circle cx="24.9999" cy="24.9999" r="20.9286" stroke="white" stroke-opacity="0.25"/>
<path fill-rule="evenodd" clip-rule="evenodd" d="M26.6912 22.5159V14.7114C26.6912 14.0234 27.3002 13.4821 27.9769 13.5836C32.3528 14.2039 35.7137 17.9708 35.7137 22.5159H26.6912ZM35.7137 23.6435C35.7137 25.7187 35.0032 27.636 33.819 29.1585C34.8566 30.0833 35.4092 31.5382 35.0145 33.1059C34.6536 34.5269 33.4806 35.6548 32.0483 35.9593C29.7024 36.4555 27.5934 34.854 27.2889 32.666H24.943C24.6385 34.8653 22.5182 36.4668 20.1498 35.948C18.7288 35.6322 17.5558 34.4931 17.2175 33.0721C16.7664 31.1886 17.6799 29.4292 19.1799 28.6285C18.9205 28.2337 16.7889 23.6435 16.7889 23.6435H15.413C14.7927 23.6435 14.2852 23.136 14.2852 22.5157C14.2852 21.8954 14.7927 21.3879 15.413 21.3879H17.5107C17.9393 21.3879 18.3453 21.636 18.5258 22.0307L19.2927 23.6435H35.7137ZM21.0518 33.7939C20.1157 33.7939 19.36 33.0383 19.36 32.1022C19.36 31.1661 20.1157 30.4105 21.0518 30.4105C21.9878 30.4105 22.7435 31.1661 22.7435 32.1022C22.7435 33.0383 21.9878 33.7939 21.0518 33.7939ZM29.5106 32.1022C29.5106 33.0383 30.2662 33.7939 31.2023 33.7939C32.1384 33.7939 32.894 33.0383 32.894 32.1022C32.894 31.1661 32.1384 30.4105 31.2023 30.4105C30.2662 30.4105 29.5106 31.1661 29.5106 32.1022Z" fill="white"/>
</svg>
