<svg width="12" height="12" viewBox="0 0 12 12" fill="none" xmlns="http://www.w3.org/2000/svg">
<path d="M11.5641 0.576804L9.12661 0.0143156C8.86178 -0.0466206 8.58991 0.0916578 8.4821 0.34009L7.35712 2.96503C7.25868 3.19472 7.32431 3.46424 7.51884 3.62127L8.93912 4.78375C8.09539 6.58137 6.6212 8.07664 4.78608 8.93678L3.62361 7.5165C3.46423 7.32197 3.19705 7.25635 2.96737 7.35479L0.342424 8.47976C0.0916485 8.58992 -0.0466299 8.86178 0.0143063 9.12662L0.576795 11.5641C0.635387 11.8172 0.860382 12 1.12522 12C7.12744 12 12 7.13682 12 1.12523C12 0.862735 11.8195 0.635396 11.5641 0.576804Z" fill="#A98D4B"/>
</svg>
