<svg width="12" height="12" viewBox="0 0 12 12" fill="none" xmlns="http://www.w3.org/2000/svg">
<path fill-rule="evenodd" clip-rule="evenodd" d="M6 0C2.688 0 0 2.688 0 6C0 9.312 2.688 12 6 12C9.312 12 12 9.312 12 6C12 2.688 9.312 0 6 0ZM6.00072 1.80063C6.99672 1.80063 7.80072 2.60463 7.80072 3.60063C7.80072 4.59663 6.99672 5.40063 6.00072 5.40063C5.00472 5.40063 4.20072 4.59663 4.20072 3.60063C4.20072 2.60463 5.00472 1.80063 6.00072 1.80063ZM2.39874 8.38841C3.17274 9.55241 4.49874 10.3204 5.99874 10.3204C7.49874 10.3204 8.82474 9.55241 9.59874 8.38841C9.58074 7.19441 7.19274 6.54041 5.99874 6.54041C4.79874 6.54041 2.41674 7.19441 2.39874 8.38841Z" fill="#A98D4B"/>
</svg>
