<svg width="22" height="22" viewBox="0 0 22 22" fill="none" xmlns="http://www.w3.org/2000/svg">
<path fill-rule="evenodd" clip-rule="evenodd" d="M11 7.33333C8.97496 7.33333 7.33333 8.97496 7.33333 11C7.33333 13.025 8.97496 14.6667 11 14.6667C13.025 14.6667 14.6667 13.025 14.6667 11C14.6667 8.97496 13.025 7.33333 11 7.33333ZM5.5 11C5.5 7.96243 7.96243 5.5 11 5.5C14.0376 5.5 16.5 7.96243 16.5 11C16.5 14.0376 14.0376 16.5 11 16.5C7.96243 16.5 5.5 14.0376 5.5 11Z" fill="white"/>
<path fill-rule="evenodd" clip-rule="evenodd" d="M11 0C11.5063 0 11.9167 0.410406 11.9167 0.916667V2.75C11.9167 3.25626 11.5063 3.66667 11 3.66667C10.4937 3.66667 10.0833 3.25626 10.0833 2.75V0.916667C10.0833 0.410406 10.4937 0 11 0Z" fill="white"/>
<path fill-rule="evenodd" clip-rule="evenodd" d="M11 18.3333C11.5063 18.3333 11.9167 18.7437 11.9167 19.25V21.0833C11.9167 21.5896 11.5063 22 11 22C10.4937 22 10.0833 21.5896 10.0833 21.0833V19.25C10.0833 18.7437 10.4937 18.3333 11 18.3333Z" fill="white"/>
<path fill-rule="evenodd" clip-rule="evenodd" d="M3.22015 3.22015C3.57813 2.86217 4.15853 2.86217 4.51651 3.22015L5.81818 4.52182C6.17616 4.8798 6.17616 5.4602 5.81818 5.81818C5.4602 6.17616 4.8798 6.17616 4.52182 5.81818L3.22015 4.51651C2.86217 4.15853 2.86217 3.57813 3.22015 3.22015Z" fill="white"/>
<path fill-rule="evenodd" clip-rule="evenodd" d="M16.1818 16.1818C16.5398 15.8238 17.1202 15.8238 17.4782 16.1818L18.7799 17.4835C19.1378 17.8415 19.1378 18.4219 18.7799 18.7799C18.4219 19.1378 17.8415 19.1378 17.4835 18.7799L16.1818 17.4782C15.8238 17.1202 15.8238 16.5398 16.1818 16.1818Z" fill="white"/>
<path fill-rule="evenodd" clip-rule="evenodd" d="M0 11C0 10.4937 0.410406 10.0833 0.916667 10.0833H2.75C3.25626 10.0833 3.66667 10.4937 3.66667 11C3.66667 11.5063 3.25626 11.9167 2.75 11.9167H0.916667C0.410406 11.9167 0 11.5063 0 11Z" fill="white"/>
<path fill-rule="evenodd" clip-rule="evenodd" d="M18.3333 11C18.3333 10.4937 18.7437 10.0833 19.25 10.0833H21.0833C21.5896 10.0833 22 10.4937 22 11C22 11.5063 21.5896 11.9167 21.0833 11.9167H19.25C18.7437 11.9167 18.3333 11.5063 18.3333 11Z" fill="white"/>
<path fill-rule="evenodd" clip-rule="evenodd" d="M5.81818 16.1818C6.17616 16.5398 6.17616 17.1202 5.81818 17.4782L4.51651 18.7799C4.15853 19.1378 3.57813 19.1378 3.22015 18.7799C2.86217 18.4219 2.86217 17.8415 3.22015 17.4835L4.52182 16.1818C4.8798 15.8238 5.4602 15.8238 5.81818 16.1818Z" fill="white"/>
<path fill-rule="evenodd" clip-rule="evenodd" d="M18.7797 3.22013C19.1377 3.57811 19.1377 4.15851 18.7797 4.51649L17.4781 5.81815C17.1201 6.17614 16.5397 6.17614 16.1817 5.81815C15.8237 5.46017 15.8237 4.87977 16.1817 4.52179L17.4834 3.22013C17.8413 2.86214 18.4217 2.86214 18.7797 3.22013Z" fill="white"/>
</svg>
