<svg width="16" height="17" viewBox="0 0 16 17" fill="none" xmlns="http://www.w3.org/2000/svg">
<path fill-rule="evenodd" clip-rule="evenodd" d="M16 11.4286C15.5959 11.4286 15.2083 11.268 14.9225 10.9823C14.6367 10.6965 14.4762 10.3089 14.4762 9.90476V6.09524C14.4762 4.47868 13.834 2.92833 12.6909 1.78525C11.5479 0.642175 9.99751 0 8.38095 0C6.76439 0 5.21405 0.642175 4.07097 1.78525C2.92789 2.92833 2.28571 4.47868 2.28571 6.09524V9.90476C2.28571 10.3089 2.12517 10.6965 1.8394 10.9823C1.55363 11.268 1.16604 11.4286 0.761905 11.4286C0.341116 11.4286 0 11.7697 0 12.1905C0 12.6113 0.341116 12.9524 0.761905 12.9524H16V11.4286ZM6.68056 14.579C7.04454 14.3679 7.51077 14.4918 7.72191 14.8558C7.78888 14.9712 7.88501 15.0671 8.00068 15.1337C8.11634 15.2003 8.24747 15.2354 8.38095 15.2354C8.51443 15.2354 8.64557 15.2003 8.76123 15.1337C8.87689 15.0671 8.97302 14.9712 9.04 14.8558C9.25114 14.4918 9.71737 14.3679 10.0813 14.579C10.4453 14.7902 10.5692 15.2564 10.3581 15.6204C10.1572 15.9668 9.86877 16.2543 9.52178 16.4541C9.17479 16.654 8.78139 16.7592 8.38095 16.7592C7.98052 16.7592 7.58711 16.654 7.24012 16.4541C6.89313 16.2543 6.60474 15.9668 6.40381 15.6204C6.19267 15.2564 6.31657 14.7902 6.68056 14.579Z" fill="#A98D4B"/>
</svg>
