<svg width="70" height="70" viewBox="0 0 70 70" fill="none" xmlns="http://www.w3.org/2000/svg">
<circle cx="35" cy="35" r="35" fill="#7D2B8B"/>
<circle cx="35" cy="35" r="29.5" stroke="white" stroke-opacity="0.25"/>
<path d="M27.7375 26.6333V24.3174H23.5488V30.7261L27.7375 26.6333Z" fill="white"/>
<path d="M34.9996 31.6302C34.2764 31.6302 33.6879 32.2187 33.6879 32.9417C33.6879 33.665 34.2764 34.2534 34.9996 34.2534C35.7229 34.2534 36.3111 33.665 36.3111 32.9417C36.3113 32.2187 35.7229 31.6302 34.9996 31.6302Z" fill="white"/>
<path d="M46.4519 35.6528L48.7686 37.9164L50 36.6562L35 22L20 36.6564L21.2314 37.9167L23.5481 35.6528V48.5446H31.2271V39.2652H38.7729V48.5446H46.4519V35.6528ZM35 36.0154C33.3051 36.0154 31.9263 34.6366 31.9263 32.9419C31.9263 31.2471 33.3051 29.8683 35 29.8683C36.6949 29.8683 38.0734 31.2471 38.0734 32.9419C38.0737 34.6366 36.6949 36.0154 35 36.0154Z" fill="white"/>
<path d="M32.9889 41.0272H37.011V48.5446H32.9889V41.0272Z" fill="white"/>
</svg>
