<svg width="30" height="30" viewBox="0 0 30 30" fill="none" xmlns="http://www.w3.org/2000/svg">
<circle cx="15" cy="15" r="15" fill="#FAFAFA"/>
<path fill-rule="evenodd" clip-rule="evenodd" d="M11.0958 6.75H19.037C19.9105 6.75 20.6252 7.425 20.6252 8.25V21.75C20.6252 22.575 19.9105 23.25 19.037 23.25H11.0958C10.2223 23.25 9.50757 22.575 9.50757 21.75V20.25C9.50757 19.8375 9.86492 19.5 10.3017 19.5C10.7385 19.5 11.0958 19.8375 11.0958 20.25V21H19.037V9H11.0958V9.75C11.0958 10.1625 10.7385 10.5 10.3017 10.5C9.86492 10.5 9.50757 10.1625 9.50757 9.75V8.25C9.50757 7.425 10.2223 6.75 11.0958 6.75ZM12.525 14.25V13.125C12.525 12.075 11.4132 11.25 10.3015 11.25C9.18971 11.25 8.07794 12.075 8.07794 13.125V14.25C7.60147 14.25 7.125 14.7 7.125 15.15V17.775C7.125 18.3 7.60147 18.75 8.07794 18.75H12.4456C13.0015 18.75 13.4779 18.3 13.4779 17.85V15.225C13.4779 14.7 13.0015 14.25 12.525 14.25ZM11.4927 14.25H9.11035V13.125C9.11035 12.525 9.66623 12.15 10.3015 12.15C10.9368 12.15 11.4927 12.525 11.4927 13.125V14.25Z" fill="#7D2B8B"/>
<path fill-rule="evenodd" clip-rule="evenodd" d="M12.547 12.875V14C13.0234 14 13.4999 14.45 13.4999 14.975V17.6C13.4999 18.05 13.0234 18.5 12.4676 18.5H8.09991C7.62344 18.5 7.14697 18.05 7.14697 17.525V14.9C7.14697 14.45 7.62344 14 8.09991 14V12.875C8.09991 11.825 9.21168 11 10.3234 11C11.4352 11 12.547 11.825 12.547 12.875ZM8.98524 14H11.3676V12.875C11.3676 12.275 10.8117 11.9 10.1764 11.9C9.54112 11.9 8.98524 12.275 8.98524 12.875V14Z" fill="#A98D4B"/>
</svg>
