<svg width="12" height="10" viewBox="0 0 12 10" fill="none" xmlns="http://www.w3.org/2000/svg">
<path d="M10.2947 2.14286H1.78572C1.58839 2.14286 1.42857 1.98304 1.42857 1.78571C1.42857 1.58839 1.58839 1.42857 1.78572 1.42857H10.3572C10.5545 1.42857 10.7143 1.26875 10.7143 1.07143C10.7143 0.479688 10.2346 0 9.64286 0H1.42857C0.639509 0 0 0.639509 0 1.42857V8.57143C0 9.36049 0.639509 10 1.42857 10H10.2947C10.9201 10 11.4286 9.51942 11.4286 8.92857V3.21429C11.4286 2.62344 10.9201 2.14286 10.2947 2.14286ZM9.28572 6.78571C8.8913 6.78571 8.57143 6.46585 8.57143 6.07143C8.57143 5.67701 8.8913 5.35714 9.28572 5.35714C9.68014 5.35714 10 5.67701 10 6.07143C10 6.46585 9.68014 6.78571 9.28572 6.78571Z" fill="#A98D4B"/>
</svg>
