<svg width="13" height="14" viewBox="0 0 13 14" fill="none" xmlns="http://www.w3.org/2000/svg">
<path d="M11.9219 4.375H0.328125C0.147656 4.375 0 4.22734 0 4.04688V3.0625C0 2.33789 0.587891 1.75 1.3125 1.75H2.625V0.328125C2.625 0.147656 2.77266 0 2.95312 0H4.04688C4.22734 0 4.375 0.147656 4.375 0.328125V1.75H7.875V0.328125C7.875 0.147656 8.02266 0 8.20312 0H9.29688C9.47734 0 9.625 0.147656 9.625 0.328125V1.75H10.9375C11.6621 1.75 12.25 2.33789 12.25 3.0625V4.04688C12.25 4.22734 12.1023 4.375 11.9219 4.375ZM0.328125 5.25H11.9219C12.1023 5.25 12.25 5.39766 12.25 5.57812V12.6875C12.25 13.4121 11.6621 14 10.9375 14H1.3125C0.587891 14 0 13.4121 0 12.6875V5.57812C0 5.39766 0.147656 5.25 0.328125 5.25ZM3.5 10.8281C3.5 10.6477 3.35234 10.5 3.17188 10.5H2.07812C1.89766 10.5 1.75 10.6477 1.75 10.8281V11.9219C1.75 12.1023 1.89766 12.25 2.07812 12.25H3.17188C3.35234 12.25 3.5 12.1023 3.5 11.9219V10.8281ZM3.5 7.32812C3.5 7.14766 3.35234 7 3.17188 7H2.07812C1.89766 7 1.75 7.14766 1.75 7.32812V8.42188C1.75 8.60234 1.89766 8.75 2.07812 8.75H3.17188C3.35234 8.75 3.5 8.60234 3.5 8.42188V7.32812ZM7 10.8281C7 10.6477 6.85234 10.5 6.67188 10.5H5.57812C5.39766 10.5 5.25 10.6477 5.25 10.8281V11.9219C5.25 12.1023 5.39766 12.25 5.57812 12.25H6.67188C6.85234 12.25 7 12.1023 7 11.9219V10.8281ZM7 7.32812C7 7.14766 6.85234 7 6.67188 7H5.57812C5.39766 7 5.25 7.14766 5.25 7.32812V8.42188C5.25 8.60234 5.39766 8.75 5.57812 8.75H6.67188C6.85234 8.75 7 8.60234 7 8.42188V7.32812ZM10.5 10.8281C10.5 10.6477 10.3523 10.5 10.1719 10.5H9.07812C8.89766 10.5 8.75 10.6477 8.75 10.8281V11.9219C8.75 12.1023 8.89766 12.25 9.07812 12.25H10.1719C10.3523 12.25 10.5 12.1023 10.5 11.9219V10.8281ZM10.5 7.32812C10.5 7.14766 10.3523 7 10.1719 7H9.07812C8.89766 7 8.75 7.14766 8.75 7.32812V8.42188C8.75 8.60234 8.89766 8.75 9.07812 8.75H10.1719C10.3523 8.75 10.5 8.60234 10.5 8.42188V7.32812Z" fill="#A98D4B"/>
</svg>
