<svg width="12" height="10" viewBox="0 0 12 10" fill="none" xmlns="http://www.w3.org/2000/svg">
<path d="M7.14287 5.71429H11.4286V8.92857C11.4286 9.52031 10.9489 10 10.3572 10H1.07143C0.479688 10 0 9.52031 0 8.92857V5.71429H4.28572V6.16071C4.28572 6.30864 4.40566 6.42857 4.55358 6.42857H6.87501C7.02294 6.42857 7.14287 6.30864 7.14287 6.16071V5.71429ZM11.4286 3.21429V5H0V3.21429C0 2.62254 0.479688 2.14286 1.07143 2.14286H2.85715V1.07143C2.85715 0.479688 3.33684 0 3.92858 0H7.50001C8.09176 0 8.57144 0.479688 8.57144 1.07143V2.14286H10.3572C10.9489 2.14286 11.4286 2.62254 11.4286 3.21429ZM7.14287 1.42857H4.28572V2.14286H7.14287V1.42857Z" fill="#A98D4B"/>
</svg>
