<svg width="9" height="10" viewBox="0 0 9 10" fill="none" xmlns="http://www.w3.org/2000/svg">
<path fill-rule="evenodd" clip-rule="evenodd" d="M7.99999 1H7.49999V0H6.49999V1H2.5V0H1.5V1H0.999999C0.445 1 0.00499999 1.45 0.00499999 2L0 9C0 9.55 0.445 10 0.999999 10H7.99999C8.54999 10 8.99999 9.55 8.99999 9V2C8.99999 1.45 8.54999 1 7.99999 1ZM3.00019 4.49974H2.00018V5.49973H3.00019V4.49974ZM4.99948 4.49974H3.99947V5.49973H4.99948V4.49974ZM6.00053 4.49974H7.00054V5.49973H6.00053V4.49974ZM1.00053 8.99917H8.00055V3.49921H1.00053V8.99917Z" fill="#A98D4B"/>
</svg>
