<svg width="50" height="50" viewBox="0 0 50 50" fill="none" xmlns="http://www.w3.org/2000/svg">
<circle cx="25" cy="25" r="25" fill="#FAFAFA"/>
<circle cx="25" cy="25" r="20" fill="#7D2B8B"/>
<path fill-rule="evenodd" clip-rule="evenodd" d="M25 19C21.3636 19 18.2582 21.2618 17 24.4545C18.2582 27.6473 21.3636 29.9091 25 29.9091C28.6364 29.9091 31.7418 27.6473 33 24.4545C31.7418 21.2618 28.6364 19 25 19ZM25.0001 28.0908C22.9929 28.0908 21.3638 26.4618 21.3638 24.4545C21.3638 22.4472 22.9929 20.8181 25.0001 20.8181C27.0074 20.8181 28.6365 22.4472 28.6365 24.4545C28.6365 26.4618 27.0074 28.0908 25.0001 28.0908ZM22.8185 24.4548C22.8185 23.2475 23.793 22.2729 25.0003 22.2729C26.2076 22.2729 27.1821 23.2475 27.1821 24.4548C27.1821 25.662 26.2076 26.6366 25.0003 26.6366C23.793 26.6366 22.8185 25.662 22.8185 24.4548Z" fill="white"/>
</svg>
