<svg width="50" height="50" viewBox="0 0 50 50" fill="none" xmlns="http://www.w3.org/2000/svg">
<circle cx="25" cy="25" r="25" fill="#F2EAF3"/>
<circle cx="25" cy="25" r="19" fill="#7D2B8B"/>
<rect x="16.5" y="19.5" width="17" height="10.25" rx="1.5" stroke="white"/>
<path d="M27.9812 26.6222C29.3381 26.6222 30.4399 25.4627 30.4399 24.047C30.4399 22.6191 29.3381 21.4719 27.9812 21.4719C26.6242 21.4719 25.5224 22.6313 25.5224 24.047C25.534 25.4627 26.6358 26.6222 27.9812 26.6222ZM27.9812 22.4361C28.8278 22.4361 29.5121 23.1561 29.5121 24.0348C29.5121 24.9136 28.8278 25.6336 27.9812 25.6336C27.1345 25.6336 26.4502 24.9136 26.4502 24.0348C26.4618 23.1561 27.1461 22.4361 27.9812 22.4361ZM29.0946 26.854C28.967 26.8174 28.8278 26.8296 28.7118 26.9029L27.9812 27.3666L27.2505 26.9029C27.1345 26.8296 26.9953 26.8174 26.8678 26.854C26.1603 27.0859 23.8755 27.9524 23.8755 29.2705C23.8755 29.539 24.0843 29.7587 24.3394 29.7587H31.6229C31.8781 29.7587 32.0869 29.539 32.0869 29.2705C32.0869 27.9646 29.8021 27.0981 29.0946 26.854ZM25.1861 28.7823C25.5804 28.465 26.2415 28.1233 26.9605 27.8548L27.7492 28.3552C27.9 28.4528 28.0856 28.4528 28.2247 28.3552L29.0134 27.8548C29.7325 28.1111 30.3935 28.465 30.7879 28.7823H25.1861Z" fill="white"/>
<line x1="18.75" y1="23" x2="22.25" y2="23" stroke="white" stroke-linecap="round" stroke-linejoin="round"/>
<line x1="18.7495" y1="25.25" x2="22.2495" y2="25.25" stroke="white" stroke-linecap="round" stroke-linejoin="round"/>
<line x1="18.7495" y1="27.5" x2="21.1245" y2="27.5" stroke="white" stroke-linecap="round" stroke-linejoin="round"/>
</svg>
