<svg width="20" height="20" viewBox="0 0 20 20" fill="none" xmlns="http://www.w3.org/2000/svg">
<path fill-rule="evenodd" clip-rule="evenodd" d="M0 10C0 4.47715 4.47715 0 10 0C15.5228 0 20 4.47715 20 10C20 15.5228 15.5228 20 10 20C4.47715 20 0 15.5228 0 10Z" fill="#A98D4B"/>
<path fill-rule="evenodd" clip-rule="evenodd" d="M0 10C0 4.47715 4.47715 0 10 0C15.5228 0 20 4.47715 20 10C20 15.5228 15.5228 20 10 20C4.47715 20 0 15.5228 0 10Z" fill="#7D2B8B"/>
<path fill-rule="evenodd" clip-rule="evenodd" d="M14.9142 6.29297C15.3047 6.68349 15.3047 7.31666 14.9142 7.70718L8.70711 14.2072C8.31658 14.5977 7.68342 14.5977 7.29289 14.2072L4.29289 11.2072C3.90237 10.8167 3.90237 10.1835 4.29289 9.79297C4.68342 9.40245 5.31658 9.40245 5.70711 9.79297L8 12.0859L13.5 6.29297C13.8905 5.90244 14.5237 5.90244 14.9142 6.29297Z" fill="white"/>
</svg>
