<svg width="30" height="30" viewBox="0 0 30 30" fill="none" xmlns="http://www.w3.org/2000/svg">
<circle cx="15" cy="15" r="15" fill="#FAFAFA"/>
<path fill-rule="evenodd" clip-rule="evenodd" d="M15 8.25C15.2336 8.25 15.4469 8.38259 15.5503 8.59203L17.3037 12.1444L21.2251 12.7176C21.4562 12.7514 21.648 12.9134 21.7201 13.1355C21.7921 13.3576 21.7318 13.6014 21.5645 13.7643L18.7275 16.5275L19.3971 20.4312C19.4366 20.6615 19.3419 20.8941 19.1529 21.0314C18.9639 21.1687 18.7134 21.1868 18.5066 21.0781L15 19.234L11.4934 21.0781C11.2866 21.1868 11.0361 21.1687 10.8471 21.0314C10.6581 20.8941 10.5634 20.6615 10.6029 20.4312L11.2725 16.5275L8.4355 13.7643C8.26821 13.6014 8.20791 13.3576 8.27993 13.1355C8.35196 12.9134 8.54383 12.7514 8.7749 12.7176L12.6963 12.1444L14.4497 8.59203C14.5531 8.38259 14.7664 8.25 15 8.25Z" fill="#7D2B8B"/>
</svg>
