<svg width="50" height="50" viewBox="0 0 50 50" fill="none" xmlns="http://www.w3.org/2000/svg">
<circle cx="25" cy="25" r="25" fill="#FAFAFA"/>
<circle cx="25" cy="25" r="20" fill="#7D2B8B"/>
<path fill-rule="evenodd" clip-rule="evenodd" d="M24.75 19C24.9836 19 25.1969 19.1326 25.3003 19.342L27.0537 22.8944L30.9751 23.4676C31.2062 23.5014 31.398 23.6634 31.4701 23.8855C31.5421 24.1076 31.4818 24.3514 31.3145 24.5143L28.4775 27.2775L29.1471 31.1812C29.1866 31.4115 29.0919 31.6441 28.9029 31.7814C28.7139 31.9187 28.4634 31.9368 28.2566 31.8281L24.75 29.984L21.2434 31.8281C21.0366 31.9368 20.7861 31.9187 20.5971 31.7814C20.4081 31.6441 20.3134 31.4115 20.3529 31.1812L21.0225 27.2775L18.1855 24.5143C18.0182 24.3514 17.9579 24.1076 18.0299 23.8855C18.102 23.6634 18.2938 23.5014 18.5249 23.4676L22.4463 22.8944L24.1997 19.342C24.3031 19.1326 24.5164 19 24.75 19Z" fill="white"/>
</svg>
