<svg width="30" height="30" viewBox="0 0 30 30" fill="none" xmlns="http://www.w3.org/2000/svg">
<circle cx="15" cy="15" r="15" fill="#FAFAFA"/>
<path fill-rule="evenodd" clip-rule="evenodd" d="M16.9576 11.9025C16.9576 13.5062 15.6587 14.805 14.0551 14.805C12.4515 14.805 11.1526 13.5062 11.1526 11.9025C11.1526 10.2989 12.4515 9 14.0551 9C15.6587 9 16.9576 10.2989 16.9576 11.9025ZM14.1566 19.986L14.7807 20.61H8.25V19.1587C8.25 17.2286 12.1176 16.2562 14.055 16.2562C14.2872 16.2562 14.4977 16.2707 14.7807 16.2998L14.1711 16.8948C13.3076 17.7365 13.3004 19.1297 14.1566 19.986Z" fill="#7D2B8B"/>
<path d="M17.7393 19.9869C17.4563 20.2699 16.9919 20.2699 16.7089 19.9869L15.2068 18.4703C14.9311 18.1873 14.9311 17.7374 15.2068 17.4617L15.2141 17.4544C15.4971 17.1714 15.9542 17.1714 16.2299 17.4544L17.2241 18.4486L20.4386 15.2122C20.7216 14.9293 21.1787 14.9293 21.4617 15.2122L21.469 15.2195C21.7447 15.5025 21.7447 15.9524 21.469 16.2281L17.7393 19.9869Z" fill="#A98D4B"/>
</svg>
