<svg width="30" height="30" viewBox="0 0 30 30" fill="none" xmlns="http://www.w3.org/2000/svg">
<circle cx="15" cy="15" r="15" fill="#FAFAFA"/>
<circle cx="15" cy="15" r="5" fill="#A98D4B"/>
<path d="M12.4141 13L20.9998 21.5858" stroke="#A98D4B" stroke-width="2" stroke-linecap="round" stroke-linejoin="round"/>
<path fill-rule="evenodd" clip-rule="evenodd" d="M21.5 11.7628V20.8416L18.2684 17.6016C18.8675 16.6903 19.1375 15.5428 18.8591 14.3109C18.4963 12.6825 17.1294 11.4 15.4841 11.1216C12.6322 10.6406 10.1937 13.0284 10.565 15.855C10.835 17.8378 12.5478 19.3987 14.5475 19.4916C15.4841 19.5422 16.3531 19.2722 17.0788 18.7997L20.8166 22.5375C20.5297 22.7484 20.1922 22.875 19.8125 22.875H9.67906C8.75094 22.875 8 22.1156 8 21.1875L8.00844 7.6875C8.00844 6.75937 8.75937 6 9.6875 6H15.7372C16.1844 6 16.6147 6.17719 16.9269 6.49781L21.0022 10.5731C21.3228 10.8853 21.5 11.3156 21.5 11.7628ZM14.75 17.8125C13.3494 17.8125 12.2188 16.6819 12.2188 15.2812C12.2188 13.8806 13.3494 12.75 14.75 12.75C16.1506 12.75 17.2812 13.8806 17.2812 15.2812C17.2812 16.6819 16.1506 17.8125 14.75 17.8125Z" fill="#7D2B8B"/>
</svg>
