<svg width="30" height="30" viewBox="0 0 30 30" fill="none" xmlns="http://www.w3.org/2000/svg">
<path fill-rule="evenodd" clip-rule="evenodd" d="M15 0C6.71573 0 0 6.71573 0 15C0 23.2843 6.71573 30 15 30C23.2843 30 30 23.2843 30 15C30 6.71573 23.2843 0 15 0ZM15 27.9545C7.8454 27.9545 2.04545 22.1546 2.04545 15C2.04545 7.8454 7.8454 2.04545 15 2.04545C22.1546 2.04545 27.9545 7.8454 27.9545 15C27.9545 18.4358 26.5897 21.7308 24.1602 24.1602C21.7308 26.5897 18.4358 27.9545 15 27.9545Z" fill="#B7B7B7"/>
<path fill-rule="evenodd" clip-rule="evenodd" d="M13.7456 8.7823C13.3426 8.40681 12.7147 8.41789 12.3252 8.80736C11.9357 9.19683 11.9246 9.82479 12.3001 10.2278L16.8819 14.8096L12.3001 19.3914C11.9246 19.7944 11.9357 20.4223 12.3252 20.8118C12.7147 21.2013 13.3426 21.2123 13.7456 20.8368L19.7729 14.8096L18.3274 13.3641L13.7456 8.7823Z" fill="#B7B7B7"/>
</svg>
