<svg width="70" height="70" viewBox="0 0 70 70" fill="none" xmlns="http://www.w3.org/2000/svg">
<circle cx="35" cy="35" r="34.5" fill="#FAFAFA" stroke="#7D2B8B"/>
<circle cx="35" cy="35" r="30" fill="white"/>
<path d="M43.2102 34.4775H49.8244L48.6658 28.9157C48.5809 28.5081 48.2215 28.2162 47.8051 28.2162H37.6243L43.2102 34.4775Z" fill="#A98D4B"/>
<path d="M43.2102 34.4775H49.8244L48.6658 28.9157C48.5809 28.5081 48.2215 28.2162 47.8051 28.2162H37.6243L43.2102 34.4775Z" fill="#7D2B8B"/>
<path d="M32.3603 28.216H22.1962C21.7798 28.216 21.4204 28.5081 21.3355 28.9157L20.1769 34.4775H26.727L32.3603 28.216Z" fill="#A98D4B"/>
<path d="M32.3603 28.216H22.1962C21.7798 28.216 21.4204 28.5081 21.3355 28.9157L20.1769 34.4775H26.727L32.3603 28.216Z" fill="#7D2B8B"/>
<path d="M35 33.1807C34.5155 33.1807 34.1211 33.575 34.1211 34.0596C34.1211 34.5442 34.5155 34.9383 35 34.9383C35.4846 34.9383 35.879 34.5442 35.879 34.0596C35.879 33.5748 35.4846 33.1807 35 33.1807Z" fill="#A98D4B"/>
<path d="M35 33.1807C34.5155 33.1807 34.1211 33.575 34.1211 34.0596C34.1211 34.5442 34.5155 34.9383 35 34.9383C35.4846 34.9383 35.879 34.5442 35.879 34.0596C35.879 33.5748 35.4846 33.1807 35 33.1807Z" fill="#7D2B8B"/>
<path d="M34.0884 45.1372H35.8463V50H34.0884V45.1372Z" fill="#A98D4B"/>
<path d="M34.0884 45.1372H35.8463V50H34.0884V45.1372Z" fill="#7D2B8B"/>
<path d="M42.8165 36.2354C42.5661 36.2354 42.3273 36.1285 42.1607 35.9415L35.8795 28.9004V24.3945H39.8757C40.3307 24.3945 40.612 23.8987 40.3786 23.508L39.5955 22.1976L40.3786 20.8872C40.612 20.4965 40.3307 20.0007 39.8757 20.0007H35.0111C35.0077 20.0005 35.0042 20 35.0006 20C34.5151 20 34.1216 20.3935 34.1216 20.8789V28.886L27.7717 35.9443C27.6049 36.1297 27.3675 36.2354 27.1183 36.2354H20V49.121C20 49.6065 20.3935 50 20.8789 50H32.3306V44.2583C32.3306 43.773 32.724 43.3793 33.2095 43.3793H36.7253C37.2107 43.3793 37.6042 43.773 37.6042 44.2583V50H49.1222C49.6077 50 50.0011 49.6065 50.0011 49.121V36.2354H42.8165ZM25.3572 45.4302C25.3572 45.9157 24.9637 46.3091 24.4782 46.3091C23.993 46.3091 23.5993 45.9157 23.5993 45.4302V44.2583C23.5993 43.773 23.993 43.3793 24.4782 43.3793C24.9637 43.3793 25.3572 43.773 25.3572 44.2583V45.4302ZM25.3572 40.7427C25.3572 41.2282 24.9637 41.6217 24.4782 41.6217C23.993 41.6217 23.5993 41.2282 23.5993 40.7427V39.5708C23.5993 39.0856 23.993 38.6919 24.4782 38.6919C24.9637 38.6919 25.3572 39.0856 25.3572 39.5708V40.7427ZM28.8729 45.4302C28.8729 45.9157 28.4795 46.3091 27.994 46.3091C27.5088 46.3091 27.1151 45.9157 27.1151 45.4302V44.2583C27.1151 43.773 27.5088 43.3793 27.994 43.3793C28.4795 43.3793 28.8729 43.773 28.8729 44.2583V45.4302ZM28.8729 40.7427C28.8729 41.2282 28.4795 41.6217 27.994 41.6217C27.5088 41.6217 27.1151 41.2282 27.1151 40.7427V39.5708C27.1151 39.0856 27.5088 38.6919 27.994 38.6919C28.4795 38.6919 28.8729 39.0856 28.8729 39.5708V40.7427ZM34.0777 40.7427C34.0777 41.2282 33.6842 41.6217 33.1987 41.6217C32.7133 41.6217 32.3198 41.2282 32.3198 40.7427V39.5708C32.3198 39.0856 32.7133 38.6919 33.1987 38.6919C33.6842 38.6919 34.0777 39.0856 34.0777 39.5708V40.7427ZM32.3637 34.0594C32.3637 32.6055 33.5467 31.4228 35.0006 31.4228C36.4545 31.4228 37.6374 32.6055 37.6374 34.0594C37.6374 35.5135 36.4545 36.6962 35.0006 36.6962C33.5467 36.6962 32.3637 35.5135 32.3637 34.0594ZM37.6813 40.7427C37.6813 41.2282 37.2879 41.6217 36.8024 41.6217C36.3169 41.6217 35.9234 41.2282 35.9234 40.7427V39.5708C35.9234 39.0856 36.3169 38.6919 36.8024 38.6919C37.2879 38.6919 37.6813 39.0856 37.6813 39.5708V40.7427ZM42.6663 45.4302C42.6663 45.9157 42.2726 46.3091 41.7874 46.3091C41.3019 46.3091 40.9085 45.9157 40.9085 45.4302V44.2583C40.9085 43.773 41.3019 43.3793 41.7874 43.3793C42.2726 43.3793 42.6663 43.773 42.6663 44.2583V45.4302ZM42.6663 40.7427C42.6663 41.2282 42.2726 41.6217 41.7874 41.6217C41.3019 41.6217 40.9085 41.2282 40.9085 40.7427V39.5708C40.9085 39.0856 41.3019 38.6919 41.7874 38.6919C42.2726 38.6919 42.6663 39.0856 42.6663 39.5708V40.7427ZM46.1821 45.4302C46.1821 45.9157 45.7884 46.3091 45.3032 46.3091C44.8177 46.3091 44.4242 45.9157 44.4242 45.4302V44.2583C44.4242 43.773 44.8177 43.3793 45.3032 43.3793C45.7884 43.3793 46.1821 43.773 46.1821 44.2583V45.4302ZM46.1821 40.7427C46.1821 41.2282 45.7884 41.6217 45.3032 41.6217C44.8177 41.6217 44.4242 41.2282 44.4242 40.7427V39.5708C44.4242 39.0856 44.8177 38.6919 45.3032 38.6919C45.7884 38.6919 46.1821 39.0856 46.1821 39.5708V40.7427Z" fill="#A98D4B"/>
<path d="M42.8165 36.2354C42.5661 36.2354 42.3273 36.1285 42.1607 35.9415L35.8795 28.9004V24.3945H39.8757C40.3307 24.3945 40.612 23.8987 40.3786 23.508L39.5955 22.1976L40.3786 20.8872C40.612 20.4965 40.3307 20.0007 39.8757 20.0007H35.0111C35.0077 20.0005 35.0042 20 35.0006 20C34.5151 20 34.1216 20.3935 34.1216 20.8789V28.886L27.7717 35.9443C27.6049 36.1297 27.3675 36.2354 27.1183 36.2354H20V49.121C20 49.6065 20.3935 50 20.8789 50H32.3306V44.2583C32.3306 43.773 32.724 43.3793 33.2095 43.3793H36.7253C37.2107 43.3793 37.6042 43.773 37.6042 44.2583V50H49.1222C49.6077 50 50.0011 49.6065 50.0011 49.121V36.2354H42.8165ZM25.3572 45.4302C25.3572 45.9157 24.9637 46.3091 24.4782 46.3091C23.993 46.3091 23.5993 45.9157 23.5993 45.4302V44.2583C23.5993 43.773 23.993 43.3793 24.4782 43.3793C24.9637 43.3793 25.3572 43.773 25.3572 44.2583V45.4302ZM25.3572 40.7427C25.3572 41.2282 24.9637 41.6217 24.4782 41.6217C23.993 41.6217 23.5993 41.2282 23.5993 40.7427V39.5708C23.5993 39.0856 23.993 38.6919 24.4782 38.6919C24.9637 38.6919 25.3572 39.0856 25.3572 39.5708V40.7427ZM28.8729 45.4302C28.8729 45.9157 28.4795 46.3091 27.994 46.3091C27.5088 46.3091 27.1151 45.9157 27.1151 45.4302V44.2583C27.1151 43.773 27.5088 43.3793 27.994 43.3793C28.4795 43.3793 28.8729 43.773 28.8729 44.2583V45.4302ZM28.8729 40.7427C28.8729 41.2282 28.4795 41.6217 27.994 41.6217C27.5088 41.6217 27.1151 41.2282 27.1151 40.7427V39.5708C27.1151 39.0856 27.5088 38.6919 27.994 38.6919C28.4795 38.6919 28.8729 39.0856 28.8729 39.5708V40.7427ZM34.0777 40.7427C34.0777 41.2282 33.6842 41.6217 33.1987 41.6217C32.7133 41.6217 32.3198 41.2282 32.3198 40.7427V39.5708C32.3198 39.0856 32.7133 38.6919 33.1987 38.6919C33.6842 38.6919 34.0777 39.0856 34.0777 39.5708V40.7427ZM32.3637 34.0594C32.3637 32.6055 33.5467 31.4228 35.0006 31.4228C36.4545 31.4228 37.6374 32.6055 37.6374 34.0594C37.6374 35.5135 36.4545 36.6962 35.0006 36.6962C33.5467 36.6962 32.3637 35.5135 32.3637 34.0594ZM37.6813 40.7427C37.6813 41.2282 37.2879 41.6217 36.8024 41.6217C36.3169 41.6217 35.9234 41.2282 35.9234 40.7427V39.5708C35.9234 39.0856 36.3169 38.6919 36.8024 38.6919C37.2879 38.6919 37.6813 39.0856 37.6813 39.5708V40.7427ZM42.6663 45.4302C42.6663 45.9157 42.2726 46.3091 41.7874 46.3091C41.3019 46.3091 40.9085 45.9157 40.9085 45.4302V44.2583C40.9085 43.773 41.3019 43.3793 41.7874 43.3793C42.2726 43.3793 42.6663 43.773 42.6663 44.2583V45.4302ZM42.6663 40.7427C42.6663 41.2282 42.2726 41.6217 41.7874 41.6217C41.3019 41.6217 40.9085 41.2282 40.9085 40.7427V39.5708C40.9085 39.0856 41.3019 38.6919 41.7874 38.6919C42.2726 38.6919 42.6663 39.0856 42.6663 39.5708V40.7427ZM46.1821 45.4302C46.1821 45.9157 45.7884 46.3091 45.3032 46.3091C44.8177 46.3091 44.4242 45.9157 44.4242 45.4302V44.2583C44.4242 43.773 44.8177 43.3793 45.3032 43.3793C45.7884 43.3793 46.1821 43.773 46.1821 44.2583V45.4302ZM46.1821 40.7427C46.1821 41.2282 45.7884 41.6217 45.3032 41.6217C44.8177 41.6217 44.4242 41.2282 44.4242 40.7427V39.5708C44.4242 39.0856 44.8177 38.6919 45.3032 38.6919C45.7884 38.6919 46.1821 39.0856 46.1821 39.5708V40.7427Z" fill="#7D2B8B"/>
</svg>
