<svg width="50" height="50" viewBox="0 0 50 50" fill="none" xmlns="http://www.w3.org/2000/svg">
<circle cx="25" cy="25" r="25" fill="white"/>
<circle cx="25" cy="25" r="20" fill="#A98D4B"/>
<path d="M27.2494 17C24.0671 17 21.4803 19.624 21.4803 22.8249C21.4803 24.1834 21.9456 25.4117 22.7086 26.4166L17.2373 31.9438C16.9209 32.2788 16.9209 32.7998 17.2373 33.1162C17.4048 33.2837 17.6095 33.3581 17.8142 33.3581C18.0375 33.3581 18.2422 33.2837 18.4097 33.1162L23.881 27.5704C24.8301 28.259 25.984 28.6498 27.2308 28.6498C30.4131 28.6498 32.9999 26.0258 32.9999 22.8249C33.0185 19.6054 30.4317 17 27.2494 17ZM27.2494 27.1796C24.886 27.1796 22.9691 25.2256 22.9691 22.8249C22.9691 20.4242 24.886 18.4702 27.2494 18.4702C29.6129 18.4702 31.5297 20.4242 31.5297 22.8249C31.5297 25.2256 29.6129 27.1796 27.2494 27.1796ZM30.134 22.8994C30.0967 23.2157 29.8176 23.4577 29.5012 23.4577C29.464 23.4577 29.4454 23.4577 29.4082 23.4577C29.0546 23.4018 28.8127 23.0854 28.8499 22.7319C28.9801 21.7641 27.9008 21.2617 27.8449 21.2431C27.5286 21.0942 27.3797 20.7034 27.5286 20.387C27.6775 20.0706 28.0497 19.9218 28.3846 20.052C28.4591 20.0706 30.3945 20.9639 30.134 22.8994ZM28.7754 24.3137C28.9057 24.444 28.9988 24.6487 28.9988 24.8348C28.9988 25.0395 28.9243 25.2256 28.7754 25.3559C28.6452 25.4861 28.4405 25.5792 28.2544 25.5792C28.0683 25.5792 27.8636 25.5047 27.7333 25.3559C27.603 25.2256 27.51 25.0209 27.51 24.8348C27.51 24.6487 27.5844 24.444 27.7333 24.3137C27.8636 24.1834 28.0683 24.0904 28.2544 24.0904C28.4405 24.0904 28.6266 24.1648 28.7754 24.3137Z" fill="white"/>
</svg>
