<svg width="40" height="40" viewBox="0 0 40 40" fill="none" xmlns="http://www.w3.org/2000/svg">
<circle cx="20" cy="20" r="20" fill="url(#paint0_linear_3887_3361)"/>
<path fill-rule="evenodd" clip-rule="evenodd" d="M19.0001 12C15.134 12 12 15.134 12 19.0001C12 22.8661 15.134 26.0001 19.0001 26.0001C22.8661 26.0001 26.0001 22.8661 26.0001 19.0001C26.0001 15.134 22.8661 12 19.0001 12ZM10 19.0001C10 14.0295 14.0295 10 19.0001 10C23.9706 10 28.0001 14.0295 28.0001 19.0001C28.0001 23.9706 23.9706 28.0001 19.0001 28.0001C14.0295 28.0001 10 23.9706 10 19.0001Z" fill="white"/>
<path fill-rule="evenodd" clip-rule="evenodd" d="M23.9433 23.9428C24.3338 23.5523 24.967 23.5523 25.3575 23.9428L29.7075 28.2928C30.0981 28.6833 30.0981 29.3165 29.7075 29.707C29.317 30.0976 28.6838 30.0976 28.2933 29.707L23.9433 25.357C23.5528 24.9665 23.5528 24.3333 23.9433 23.9428Z" fill="white"/>
<defs>
<linearGradient id="paint0_linear_3887_3361" x1="-6.29166" y1="113.501" x2="8.48124" y2="116.247" gradientUnits="userSpaceOnUse">
<stop stop-color="#7D2B8B"/>
<stop offset="1" stop-color="#BD01AA"/>
</linearGradient>
</defs>
</svg>
