<svg width="142" height="142" viewBox="0 0 142 142" fill="none" xmlns="http://www.w3.org/2000/svg">
<path fill-rule="evenodd" clip-rule="evenodd" d="M63.899 14.1998C36.4509 14.1998 14.1998 36.4509 14.1998 63.899C14.1998 91.3471 36.4509 113.598 63.899 113.598C91.3471 113.598 113.598 91.3471 113.598 63.899C113.598 36.4509 91.3471 14.1998 63.899 14.1998ZM0 63.899C0 28.6086 28.6086 0 63.899 0C99.1895 0 127.798 28.6086 127.798 63.899C127.798 99.1895 99.1895 127.798 63.899 127.798C28.6086 127.798 0 99.1895 0 63.899Z" fill="#F7F7F7"/>
<path fill-rule="evenodd" clip-rule="evenodd" d="M98.9955 98.9936C101.768 96.2209 106.264 96.2209 109.036 98.9936L139.921 129.878C142.693 132.651 142.693 137.146 139.921 139.919C137.148 142.692 132.653 142.692 129.88 139.919L98.9955 109.034C96.2228 106.262 96.2228 101.766 98.9955 98.9936Z" fill="#F7F7F7"/>
</svg>
