<svg width="16" height="17" viewBox="0 0 16 17" fill="none" xmlns="http://www.w3.org/2000/svg">
<path d="M14.3616 9.53971L15.7977 10.3686C15.9617 10.4633 16.0378 10.659 15.9816 10.8399C15.6086 12.0409 14.9717 13.126 14.1388 14.0272C14.0764 14.0946 13.993 14.1389 13.9022 14.1527C13.8113 14.1665 13.7185 14.149 13.639 14.1031L12.204 13.2743C11.6002 13.7916 10.9061 14.193 10.1566 14.4581V16.1154C10.1566 16.2073 10.1253 16.2965 10.0679 16.3683C10.0104 16.4401 9.93029 16.4901 9.84061 16.5103C8.66269 16.7748 7.39759 16.7885 6.16023 16.5105C5.97523 16.469 5.84338 16.3051 5.84338 16.1155V14.4581C5.09383 14.193 4.39971 13.7917 3.79597 13.2743L2.361 14.1031C2.28144 14.149 2.18862 14.1665 2.0978 14.1527C2.00697 14.1389 1.92354 14.0946 1.86121 14.0272C1.02828 13.126 0.391366 12.0409 0.0183381 10.8399C-0.0378352 10.6591 0.0382868 10.4633 0.202291 10.3686L1.63837 9.53971C1.49413 8.7578 1.49413 7.9561 1.63837 7.1742L0.202325 6.34528C0.0383206 6.25062 -0.0378016 6.05487 0.0183717 5.87402C0.3914 4.67298 1.02828 3.58793 1.86124 2.68673C1.92358 2.61926 2.00701 2.57498 2.09783 2.56118C2.18865 2.54737 2.28147 2.56487 2.36104 2.61078L3.796 3.43956C4.39975 2.92226 5.09387 2.52093 5.84341 2.25578V0.59845C5.84341 0.506532 5.8747 0.417353 5.93213 0.345585C5.98956 0.273817 6.06971 0.223737 6.15939 0.203586C7.33731 -0.0609375 8.60241 -0.0746185 9.83977 0.20335C10.0248 0.244899 10.1566 0.408768 10.1566 0.598383V2.25575C10.9062 2.52088 11.6003 2.92221 12.204 3.43953L13.639 2.61075C13.7186 2.56483 13.8114 2.54734 13.9022 2.56114C13.993 2.57494 14.0765 2.61922 14.1388 2.6867C14.9717 3.5879 15.6086 4.67295 15.9817 5.87399C16.0378 6.05481 15.9617 6.25055 15.7977 6.34524L14.3616 7.17416C14.5059 7.95608 14.5059 8.75779 14.3616 9.53971ZM10.6958 8.35693C10.6958 6.87048 9.48645 5.66116 8 5.66116C6.51355 5.66116 5.30422 6.87048 5.30422 8.35693C5.30422 9.84339 6.51355 11.0527 8 11.0527C9.48645 11.0527 10.6958 9.84339 10.6958 8.35693Z" fill="#A98D4B"/>
</svg>
