<svg width="70" height="70" viewBox="0 0 70 70" fill="none" xmlns="http://www.w3.org/2000/svg">
<circle cx="35" cy="35" r="34.5" fill="#E5E5E5"/>
<circle cx="35" cy="35" r="34.5" fill="white"/>
<circle cx="35" cy="35" r="34.5" fill="#FAFAFA"/>
<circle cx="35" cy="35" r="34.5" stroke="#A98D4B"/>
<circle cx="35" cy="35" r="34.5" stroke="#7D2B8B"/>
<circle cx="35" cy="35" r="30" fill="#E5E5E5"/>
<circle cx="35" cy="35" r="30" fill="white"/>
<path d="M38.7969 20C32.9607 20 28.2167 24.8123 28.2167 30.6826C28.2167 33.1741 29.07 35.4266 30.4693 37.2696L20.4352 47.4061C19.8549 48.0205 19.8549 48.9761 20.4352 49.5563C20.7423 49.8635 21.1177 50 21.4932 50C21.9027 50 22.2782 49.8635 22.5853 49.5563L32.6195 39.3857C34.3601 40.6485 36.4761 41.3652 38.7628 41.3652C44.599 41.3652 49.343 36.5529 49.343 30.6826C49.3771 24.7782 44.6331 20 38.7969 20ZM38.7969 38.6689C34.4624 38.6689 30.9471 35.0853 30.9471 30.6826C30.9471 26.2799 34.4624 22.6963 38.7969 22.6963C43.1314 22.6963 46.6467 26.2799 46.6467 30.6826C46.6467 35.0853 43.1314 38.6689 38.7969 38.6689ZM44.087 30.8191C44.0188 31.3993 43.5068 31.843 42.9266 31.843C42.8584 31.843 42.8242 31.843 42.756 31.843C42.1075 31.7406 41.6638 31.1604 41.7321 30.5119C41.971 28.7372 39.9915 27.8157 39.8891 27.7816C39.3089 27.5085 39.0358 26.7918 39.3089 26.2116C39.5819 25.6314 40.2645 25.3584 40.8788 25.5973C41.0154 25.6314 44.5648 27.2696 44.087 30.8191ZM41.5956 33.413C41.8345 33.6519 42.0051 34.0273 42.0051 34.3686C42.0051 34.744 41.8686 35.0853 41.5956 35.3242C41.3566 35.5631 40.9812 35.7338 40.6399 35.7338C40.2986 35.7338 39.9232 35.5973 39.6843 35.3242C39.4454 35.0853 39.2747 34.7099 39.2747 34.3686C39.2747 34.0273 39.4113 33.6519 39.6843 33.413C39.9232 33.1741 40.2986 33.0034 40.6399 33.0034C40.9812 33.0034 41.3225 33.1399 41.5956 33.413Z" fill="#7D2B8B"/>
</svg>
