<svg width="70" height="70" viewBox="0 0 70 70" fill="none" xmlns="http://www.w3.org/2000/svg">
<circle cx="35" cy="35" r="34.5" fill="#E5E5E5"/>
<circle cx="35" cy="35" r="34.5" fill="white"/>
<circle cx="35" cy="35" r="34.5" fill="#FAFAFA"/>
<circle cx="35" cy="35" r="34.5" stroke="#A98D4B"/>
<circle cx="35" cy="35" r="34.5" stroke="#7D2B8B"/>
<circle cx="35" cy="35" r="30" fill="#E5E5E5"/>
<circle cx="35" cy="35" r="30" fill="white"/>
<path d="M34.6422 20C38.4147 20 41.4599 23.0453 41.4599 26.8178C41.4599 30.5903 38.4147 33.6356 34.6422 33.6356C30.8697 33.6356 27.8245 30.5903 27.8245 26.8178C27.8245 23.0453 30.8697 20 34.6422 20Z" fill="#7D2B8B"/>
<path d="M34.6355 49.9998C28.954 49.9998 23.9316 47.0909 21 42.6821C21.0682 38.1597 30.0903 35.6826 34.6355 35.6826C39.1579 35.6826 48.2028 38.1597 48.271 42.6821C45.3393 47.0909 40.3169 49.9998 34.6355 49.9998Z" fill="#7D2B8B"/>
</svg>
