<svg width="60" height="60" viewBox="0 0 60 60" fill="none" xmlns="http://www.w3.org/2000/svg">
<circle cx="30" cy="30" r="30" fill="url(#paint0_linear_329_404)"/>
<circle cx="30" cy="30" r="30" fill="#A98D4B"/>
<path d="M35.2542 22.5756C37.8509 21.5867 38.6577 17.923 37.0561 14.3925C35.4546 10.8619 32.0513 8.80155 29.4546 9.79047C26.858 10.7794 26.0512 14.4431 27.6527 17.9736C29.2542 21.5042 32.6575 23.5646 35.2542 22.5756Z" fill="white"/>
<path d="M46.7117 27.6079C45.0692 25.3504 42.6876 24.2217 39.6489 24.2217C37.1031 24.2217 35.1321 24.8989 33.4896 26.1781C31.9292 27.5326 30.3688 30.0158 28.7263 33.7783C27.9051 35.6595 27.166 37.1644 26.5911 38.2932C25.9341 39.3467 25.3592 40.0991 24.7022 40.6259C24.1273 41.0774 23.3882 41.3031 22.4848 41.3031C20.0211 41.3031 18.7071 39.6477 18.3786 36.412L12.5477 34.1545C12.5477 34.3802 12.5477 34.5307 12.5477 34.6812C12.5477 38.9704 13.4511 42.2814 15.34 44.5388C17.1467 46.8715 19.8568 48.0003 23.3061 48.0003C25.0307 48.0003 26.509 47.6993 27.6587 47.0973C28.8906 46.4953 29.9582 45.5923 30.8616 44.3883C31.7649 43.1843 32.8326 41.2279 33.9823 38.5942C35.2963 35.4337 36.3639 33.3268 37.1852 32.4238C37.9243 31.4456 38.9098 30.9941 39.9774 30.9941C42.1948 30.9941 43.3446 32.8 43.3446 36.412C43.3446 38.8199 42.5233 41.7546 40.9629 45.2161L46.6295 47.4735C48.272 44.0873 49.1754 40.4754 49.1754 36.6377C49.1754 32.8753 48.3542 29.8653 46.7117 27.6079Z" fill="white"/>
<path d="M18.8381 33.3689C20.5926 32.5887 20.9714 29.9862 19.6843 27.5561C18.3971 25.126 15.9313 23.7885 14.1768 24.5687C12.4223 25.349 12.0435 27.9514 13.3306 30.3815C14.6178 32.8116 17.0836 34.1491 18.8381 33.3689Z" fill="white"/>
<defs>
<linearGradient id="paint0_linear_329_404" x1="2.81725e-08" y1="60" x2="60.535" y2="59.7318" gradientUnits="userSpaceOnUse">
<stop stop-color="#7D2B8B"/>
<stop offset="1" stop-color="#C51B8B"/>
</linearGradient>
</defs>
</svg>
