<svg width="50" height="50" viewBox="0 0 50 50" fill="none" xmlns="http://www.w3.org/2000/svg">
<circle cx="25" cy="25" r="25" fill="white"/>
<circle cx="25" cy="25" r="20" fill="#A98D4B"/>
<path fill-rule="evenodd" clip-rule="evenodd" d="M18.6 18H31.4C32.28 18 33 18.72 33 19.6V29.2C33 30.08 32.28 30.8 31.4 30.8H20.2L17 34L17.008 19.6C17.008 18.72 17.72 18 18.6 18ZM26.5997 25.0401L28.5037 26.5601C29.0237 26.9761 29.7997 26.6081 29.7997 25.9361V22.8641C29.7997 22.1921 29.0237 21.8241 28.5037 22.2401L26.5997 23.7601V22.0001C26.5997 21.5601 26.2397 21.2001 25.7997 21.2001H20.9997C20.5597 21.2001 20.1997 21.5601 20.1997 22.0001V26.8001C20.1997 27.2401 20.5597 27.6001 20.9997 27.6001H25.7997C26.2397 27.6001 26.5997 27.2401 26.5997 26.8001V25.0401Z" fill="white"/>
</svg>
