<svg width="50" height="50" viewBox="0 0 50 50" fill="none" xmlns="http://www.w3.org/2000/svg">
<circle cx="25" cy="25" r="25" fill="#7D2B8B"/>
<circle cx="24.9999" cy="24.9999" r="20.9286" stroke="white" stroke-opacity="0.25"/>
<path fill-rule="evenodd" clip-rule="evenodd" d="M24.8925 13.5713C23.6696 13.5713 22.6783 14.5627 22.6783 15.7856C22.6783 17.0085 23.6696 17.9998 24.8925 17.9998C26.1154 17.9998 27.1068 17.0085 27.1068 15.7856C27.1068 14.5627 26.1154 13.5713 24.8925 13.5713ZM32.6425 24.5322C32.6425 23.9897 32.2439 23.5469 31.7125 23.4583C30.3286 23.2258 29.0222 22.484 28.1365 21.5098L26.7082 19.9266C26.52 19.7162 26.2875 19.5501 26.0329 19.4283C26.0274 19.4283 26.0246 19.4256 26.0218 19.4228C26.019 19.42 26.0163 19.4173 26.0107 19.4173H25.9997C25.59 19.1848 25.1361 19.0741 24.6158 19.1405C23.4865 19.2733 22.6783 20.2919 22.6783 21.4323V27.9644C22.6783 29.1822 23.6747 30.1786 24.8925 30.1786H30.4282V34.6072C30.4282 35.2161 30.9264 35.7143 31.5354 35.7143C32.1443 35.7143 32.6425 35.2161 32.6425 34.6072V29.6251C32.6425 28.4072 31.6461 27.4108 30.4282 27.4108H27.1068V23.5912C28.214 24.5101 29.7639 25.2962 31.3139 25.6062C32.0004 25.7501 32.6425 25.2297 32.6425 24.5322ZM22.6783 33.5001C24.1286 33.5001 25.3575 32.5701 25.8115 31.2859H28.1032C27.594 33.8101 25.3575 35.7144 22.6783 35.7144C19.6226 35.7144 17.1426 33.2344 17.1426 30.1787C17.1426 27.4994 19.0469 25.263 21.5711 24.7537V27.0455C20.2868 27.5105 19.3569 28.7284 19.3569 30.1787C19.3569 32.0166 20.8404 33.5001 22.6783 33.5001Z" fill="white"/>
</svg>
