<svg width="50" height="50" viewBox="0 0 50 50" fill="none" xmlns="http://www.w3.org/2000/svg">
<circle cx="25" cy="25" r="25" fill="white"/>
<circle cx="25" cy="25" r="20" fill="#A98D4B"/>
<path fill-rule="evenodd" clip-rule="evenodd" d="M25 18.25C25.2336 18.25 25.4469 18.3826 25.5503 18.592L27.3037 22.1444L31.2251 22.7176C31.4562 22.7514 31.648 22.9134 31.7201 23.1355C31.7921 23.3576 31.7318 23.6014 31.5645 23.7643L28.7275 26.5275L29.3971 30.4312C29.4366 30.6615 29.3419 30.8941 29.1529 31.0314C28.9639 31.1687 28.7134 31.1868 28.5066 31.0781L25 29.234L21.4934 31.0781C21.2866 31.1868 21.0361 31.1687 20.8471 31.0314C20.6581 30.8941 20.5634 30.6615 20.6029 30.4312L21.2725 26.5275L18.4355 23.7643C18.2682 23.6014 18.2079 23.3576 18.2799 23.1355C18.352 22.9134 18.5438 22.7514 18.7749 22.7176L22.6963 22.1444L24.4497 18.592C24.5531 18.3826 24.7664 18.25 25 18.25Z" fill="white"/>
</svg>
