<svg width="70" height="70" viewBox="0 0 70 70" fill="none" xmlns="http://www.w3.org/2000/svg">
<circle cx="35" cy="35" r="35" fill="#7D2B8B"/>
<circle cx="34.6667" cy="34.6667" r="29.5" stroke="white" stroke-opacity="0.25"/>
<path d="M51.3967 37.3729C48.8738 37.3729 47.7812 39.2926 46.4105 39.2926C42.7662 39.2926 46.0833 28.5833 46.0833 28.5833C46.0833 28.5833 34.1561 33.4444 34.1561 28.383C34.1561 26.206 36.3611 25.5726 36.3611 23.1582C36.3611 21.001 34.6527 19.8333 32.6265 19.8333C30.5208 19.8333 28.5939 20.9812 28.5939 23.2571C28.5939 25.7706 30.5207 26.859 30.5207 28.2246C30.5208 32.4551 19.8333 29.9662 19.8333 29.9662V50.215C19.8333 50.215 30.6879 52.7091 30.6879 48.4733C30.6879 47.1078 28.2573 46.0363 28.2573 43.5228C28.2573 41.2469 30.0347 40.099 32.1205 40.099C34.1666 40.099 35.875 41.2667 35.875 43.4239C35.875 45.8383 33.67 46.4717 33.67 48.6486C33.67 52.3433 41.5496 50.2121 44.6822 50.2121C44.6822 50.2121 42.5722 42.9143 46.2516 42.9143C48.4368 42.9143 49.0724 45.111 51.496 45.111C53.6613 45.1111 54.8333 43.4091 54.8333 41.3706C54.8333 39.2926 53.6811 37.3729 51.3967 37.3729Z" fill="white"/>
</svg>
