<svg width="50" height="50" viewBox="0 0 50 50" fill="none" xmlns="http://www.w3.org/2000/svg">
<circle cx="25" cy="25" r="25" fill="#F2EAF3"/>
<circle opacity="0.5" cx="25" cy="25" r="20" fill="#7D2B8B"/>
<path d="M23.0022 26.7836C25.3165 26.7836 27.1956 24.8063 27.1956 22.3918C27.1956 19.9565 25.3165 18 23.0022 18C20.6879 18 18.8088 19.9773 18.8088 22.3918C18.8286 24.8063 20.7077 26.7836 23.0022 26.7836ZM23.0022 19.6443C24.4462 19.6443 25.6132 20.8724 25.6132 22.371C25.6132 23.8696 24.4462 25.0977 23.0022 25.0977C21.5582 25.0977 20.3912 23.8696 20.3912 22.371C20.411 20.8724 21.578 19.6443 23.0022 19.6443ZM24.9011 27.1791C24.6835 27.1167 24.4462 27.1375 24.2484 27.2624L23.0022 28.0533L21.756 27.2624C21.5582 27.1375 21.3209 27.1167 21.1033 27.1791C19.8967 27.5746 16 29.0524 16 31.3004C16 31.7583 16.356 32.1329 16.7912 32.1329H29.2132C29.6483 32.1329 30.0044 31.7583 30.0044 31.3004C30.0044 29.0732 26.1077 27.5954 24.9011 27.1791ZM18.2352 30.4678C18.9077 29.9266 20.0352 29.3438 21.2615 28.8859L22.6066 29.7393C22.8637 29.9058 23.1802 29.9058 23.4176 29.7393L24.7626 28.8859C25.989 29.323 27.1165 29.9266 27.789 30.4678H18.2352ZM34 29.8433C34 30.1972 33.7429 30.4678 33.4066 30.4678H30.756C30.4198 30.4678 30.1626 30.1972 30.1626 29.8433C30.1626 29.4895 30.4198 29.2189 30.756 29.2189H32.5165C32.2198 28.8026 31.745 28.4696 31.1516 28.1366C30.8549 27.9701 30.756 27.5954 30.9143 27.304C31.0725 26.9918 31.4286 26.8877 31.7253 27.0542C32.5758 27.533 34 28.5529 34 29.8433ZM30.6769 24.3484C30.6769 23.4325 29.9648 22.704 29.1143 22.704C28.8967 22.704 28.6989 22.7457 28.5011 22.8289C28.2044 22.9538 27.8483 22.8081 27.7297 22.4959C27.611 22.1837 27.7494 21.809 28.0462 21.6841C28.3824 21.5384 28.7385 21.4552 29.1143 21.4552C30.6374 21.4552 31.8637 22.7457 31.8637 24.3484C31.8637 25.9511 30.6176 27.2416 29.1143 27.2416C28.3231 27.2416 27.5714 26.8877 27.0571 26.2633C26.8396 26.0135 26.8593 25.6181 27.1165 25.3891C27.3538 25.1601 27.7297 25.1809 27.9473 25.4515C28.244 25.8053 28.6791 26.0135 29.1341 26.0135C29.9648 25.9927 30.6769 25.2434 30.6769 24.3484Z" fill="white"/>
</svg>
