<svg width="24" height="24" viewBox="0 0 24 24" fill="none" xmlns="http://www.w3.org/2000/svg">
<path fill-rule="evenodd" clip-rule="evenodd" d="M15.996 3.0318C14.0621 2.1701 11.9014 1.95662 9.83626 2.42322C7.7711 2.88981 5.91209 4.01148 4.53649 5.62093C3.16089 7.23038 2.34241 9.24137 2.2031 11.354C2.0638 13.4666 2.61114 15.5677 3.76349 17.3438C4.91584 19.12 6.61147 20.476 8.59748 21.2098C10.5835 21.9435 12.7535 22.0156 14.7838 21.4153C16.8141 20.815 18.596 19.5744 19.8637 17.8787C21.1314 16.1829 21.817 14.1228 21.8182 12.0056V11.0026C21.8182 10.4001 22.3066 9.9117 22.9091 9.9117C23.5116 9.9117 24 10.4001 24 11.0026V12.0062C23.9985 14.5939 23.1606 17.1125 21.6112 19.1851C20.0618 21.2576 17.8839 22.7738 15.4024 23.5075C12.9209 24.2412 10.2687 24.1531 7.84136 23.2564C5.41402 22.3596 3.34158 20.7022 1.93315 18.5313C0.524719 16.3605 -0.144251 13.7925 0.0260121 11.2104C0.196275 8.62834 1.19665 6.17046 2.87793 4.20335C4.55922 2.23625 6.83134 0.865327 9.35542 0.295044C11.8795 -0.27524 14.5203 -0.0143272 16.884 1.03887C17.4343 1.28408 17.6817 1.929 17.4365 2.47934C17.1913 3.02967 16.5463 3.27702 15.996 3.0318Z" fill="#7D2B8B"/>
<path fill-rule="evenodd" clip-rule="evenodd" d="M15.996 3.0318C14.0621 2.1701 11.9014 1.95662 9.83626 2.42322C7.7711 2.88981 5.91209 4.01148 4.53649 5.62093C3.16089 7.23038 2.34241 9.24137 2.2031 11.354C2.0638 13.4666 2.61114 15.5677 3.76349 17.3438C4.91584 19.12 6.61147 20.476 8.59748 21.2098C10.5835 21.9435 12.7535 22.0156 14.7838 21.4153C16.8141 20.815 18.596 19.5744 19.8637 17.8787C21.1314 16.1829 21.817 14.1228 21.8182 12.0056V11.0026C21.8182 10.4001 22.3066 9.9117 22.9091 9.9117C23.5116 9.9117 24 10.4001 24 11.0026V12.0062C23.9985 14.5939 23.1606 17.1125 21.6112 19.1851C20.0618 21.2576 17.8839 22.7738 15.4024 23.5075C12.9209 24.2412 10.2687 24.1531 7.84136 23.2564C5.41402 22.3596 3.34158 20.7022 1.93315 18.5313C0.524719 16.3605 -0.144251 13.7925 0.0260121 11.2104C0.196275 8.62834 1.19665 6.17046 2.87793 4.20335C4.55922 2.23625 6.83134 0.865327 9.35542 0.295044C11.8795 -0.27524 14.5203 -0.0143272 16.884 1.03887C17.4343 1.28408 17.6817 1.929 17.4365 2.47934C17.1913 3.02967 16.5463 3.27702 15.996 3.0318Z" fill="#A98D4B"/>
<path fill-rule="evenodd" clip-rule="evenodd" d="M23.6805 2.50712C24.1067 2.93293 24.1071 3.62366 23.6812 4.0499L12.7721 14.9699C12.5676 15.1746 12.2901 15.2897 12.0006 15.2898C11.7112 15.2899 11.4336 15.1749 11.229 14.9703L7.95624 11.6975C7.53021 11.2715 7.53021 10.5808 7.95624 10.1548C8.38227 9.72874 9.07299 9.72874 9.49902 10.1548L12 12.6557L22.1377 2.50789C22.5635 2.08165 23.2542 2.08131 23.6805 2.50712Z" fill="#7D2B8B"/>
</svg>
