<svg width="50" height="50" viewBox="0 0 50 50" fill="none" xmlns="http://www.w3.org/2000/svg">
<circle cx="25" cy="25" r="25" fill="#7D2B8B"/>
<circle cx="24.9999" cy="24.9999" r="20.9286" stroke="white" stroke-opacity="0.25"/>
<path d="M35.1099 21.6799L25.3486 17.2308C25.0929 17.1131 24.814 17.1131 24.5816 17.2308L14.8202 21.6799C14.4948 21.8212 14.2856 22.1507 14.2856 22.5038C14.2856 22.8569 14.5181 23.1865 14.8434 23.3513L15.6801 23.7515V27.0471C15.6801 27.3766 15.9358 27.6356 16.2612 27.6356C16.5865 27.6356 16.8422 27.3766 16.8422 27.0471V24.387L18.2367 25.1403V29.1421C18.2367 29.3069 18.2832 29.4482 18.3761 29.5894C18.4691 29.7306 20.5841 32.9321 24.8605 32.9321C29.2531 32.9321 31.2751 29.7071 31.3681 29.5894C31.4378 29.4717 31.5075 29.3069 31.5075 29.1657V25.3051L35.2029 23.3984C35.5283 23.2336 35.7142 22.904 35.7142 22.5509C35.6677 22.1507 35.4353 21.8447 35.1099 21.6799ZM29.8574 28.8832C29.3926 29.4482 27.8121 31.2843 24.8605 31.2843C21.9785 31.2843 20.3284 29.4717 19.8636 28.8832V25.9878L24.5583 28.4124C24.6978 28.483 24.8372 28.5065 24.9767 28.5065C25.1161 28.5065 25.2788 28.483 25.4183 28.4124L29.8574 26.129V28.8832ZM24.9767 26.5056L17.3535 22.598L24.9767 19.114L32.5999 22.598L24.9767 26.5056ZM16.8422 28.4595C17.0049 28.6242 17.1211 28.8832 17.1211 29.1186C17.1211 29.354 17.0281 29.6129 16.8422 29.7777C16.6795 29.9424 16.4239 30.0602 16.1914 30.0602C15.959 30.0602 15.7034 29.966 15.5407 29.7777C15.378 29.6129 15.2618 29.354 15.2618 29.1186C15.2618 28.8832 15.3547 28.6242 15.5407 28.4595C15.7034 28.2947 15.959 28.177 16.1914 28.177C16.4239 28.177 16.6563 28.2711 16.8422 28.4595Z" fill="white"/>
</svg>
