<svg width="30" height="30" viewBox="0 0 30 30" fill="none" xmlns="http://www.w3.org/2000/svg">
<circle cx="15" cy="15" r="15" fill="#7D2B8B"/>
<path d="M21.2754 11.9952C21.2754 12.1304 21.2754 12.2657 21.2754 12.3816C21.2754 16.3816 18.2222 21 12.657 21C10.9372 21 9.35266 20.4976 8 19.6473C8.23188 19.6667 8.48309 19.686 8.71498 19.686C10.1256 19.686 11.4396 19.2029 12.4831 18.3913C11.1498 18.372 10.029 17.4831 9.66184 16.285C9.85507 16.3237 10.029 16.343 10.2415 16.343C10.5121 16.343 10.7826 16.3043 11.0338 16.2271C9.64251 15.9565 8.59903 14.7391 8.59903 13.2705C8.59903 13.2512 8.59903 13.2512 8.59903 13.2319C9.00483 13.4638 9.4686 13.599 9.97101 13.6184C9.15942 13.0773 8.61836 12.1498 8.61836 11.087C8.61836 10.5266 8.77295 10.0048 9.02415 9.56039C10.5121 11.3961 12.7536 12.5942 15.2657 12.7295C15.2077 12.5169 15.1884 12.2657 15.1884 12.0338C15.1884 10.3527 16.5411 9 18.2222 9C19.0918 9 19.8841 9.36715 20.4251 9.94686C21.1208 9.81159 21.7585 9.56039 22.3575 9.21256C22.1256 9.92754 21.6425 10.5072 21.0242 10.8937C21.6425 10.8164 22.2222 10.6618 22.7633 10.4106C22.3768 11.029 21.8744 11.57 21.2754 11.9952Z" fill="white"/>
</svg>
