<svg width="30" height="30" viewBox="0 0 30 30" fill="none" xmlns="http://www.w3.org/2000/svg">
<circle cx="15.0015" cy="15" r="12.5" fill="white"/>
<circle cx="15" cy="15" r="14.5" stroke="white"/>
<path d="M19.875 19.666H10.125C9.91875 19.666 9.75 19.8348 9.75 20.041V20.791C9.75 20.9973 9.91875 21.166 10.125 21.166H19.875C20.0813 21.166 20.25 20.9973 20.25 20.791V20.041C20.25 19.8348 20.0813 19.666 19.875 19.666ZM21.375 12.166C20.7539 12.166 20.25 12.6699 20.25 13.291C20.25 13.4574 20.2875 13.6121 20.3531 13.7551L18.6562 14.7723C18.2953 14.9879 17.8289 14.866 17.6203 14.5004L15.7102 11.1582C15.9609 10.952 16.125 10.6426 16.125 10.291C16.125 9.66992 15.6211 9.16602 15 9.16602C14.3789 9.16602 13.875 9.66992 13.875 10.291C13.875 10.6426 14.0391 10.952 14.2898 11.1582L12.3797 14.5004C12.1711 14.866 11.7023 14.9879 11.3438 14.7723L9.64922 13.7551C9.7125 13.6145 9.75234 13.4574 9.75234 13.291C9.75234 12.6699 9.24844 12.166 8.62734 12.166C8.00625 12.166 7.5 12.6699 7.5 13.291C7.5 13.9121 8.00391 14.416 8.625 14.416C8.68594 14.416 8.74688 14.4066 8.80547 14.3973L10.5 18.916H19.5L21.1945 14.3973C21.2531 14.4066 21.3141 14.416 21.375 14.416C21.9961 14.416 22.5 13.9121 22.5 13.291C22.5 12.6699 21.9961 12.166 21.375 12.166Z" fill="#A98D4B"/>
</svg>
