<svg width="30" height="30" viewBox="0 0 30 30" fill="none" xmlns="http://www.w3.org/2000/svg">
<circle cx="15" cy="15" r="15" fill="#FAFAFA"/>
<path fill-rule="evenodd" clip-rule="evenodd" d="M21.9714 13.359H18.9032V10.2908C18.9032 9.72596 18.4453 9.26807 17.8805 9.26807H9.01687C8.45203 9.26807 7.99414 9.72596 7.99414 10.2908V15.7453C7.99414 16.3102 8.45203 16.7681 9.01687 16.7681H9.21119L9.09187 17.0715C8.93074 17.4732 9.03995 17.9329 9.36455 18.2192C9.68915 18.5055 10.1588 18.5565 10.5373 18.3465L12.085 17.4874V19.8397C12.085 20.4045 12.5429 20.8624 13.1078 20.8624H17.6146L20.451 22.4374C20.8294 22.6474 21.2991 22.5964 21.6237 22.3101C21.9483 22.0238 22.0575 21.5641 21.8964 21.1624L21.7771 20.859H21.9714C22.5363 20.859 22.9941 20.4011 22.9941 19.8362V14.3817C22.9941 13.8169 22.5363 13.359 21.9714 13.359ZM21.9714 19.8363H20.2669L20.9487 21.5408L17.8805 19.8363H13.1078V14.3817H21.9714V19.8363Z" fill="#7D2B8B"/>
<path fill-rule="evenodd" clip-rule="evenodd" d="M14.4718 16.4273H20.6082C20.8906 16.4273 21.1195 16.1983 21.1195 15.9159C21.1195 15.6335 20.8906 15.4045 20.6082 15.4045H14.4718C14.1894 15.4045 13.9604 15.6335 13.9604 15.9159C13.9604 16.1983 14.1894 16.4273 14.4718 16.4273Z" fill="#A98D4B"/>
<path fill-rule="evenodd" clip-rule="evenodd" d="M14.4718 18.4726H20.6082C20.8906 18.4726 21.1195 18.2436 21.1195 17.9612C21.1195 17.6788 20.8906 17.4498 20.6082 17.4498H14.4718C14.1894 17.4498 13.9604 17.6788 13.9604 17.9612C13.9604 18.2436 14.1894 18.4726 14.4718 18.4726Z" fill="#A98D4B"/>
</svg>
