<svg width="50" height="50" viewBox="0 0 50 50" fill="none" xmlns="http://www.w3.org/2000/svg">
<circle cx="25" cy="25" r="25" fill="white"/>
<circle cx="25" cy="25" r="20" fill="#A98D4B"/>
<rect x="15.5" y="19.5" width="18.2" height="11" rx="1.5" stroke="white"/>
<path d="M27.7798 27.1301C29.2272 27.1301 30.4025 25.8933 30.4025 24.3833C30.4025 22.8601 29.2272 21.6365 27.7798 21.6365C26.3324 21.6365 25.1571 22.8732 25.1571 24.3833C25.1695 25.8933 26.3447 27.1301 27.7798 27.1301ZM27.7798 22.6649C28.6829 22.6649 29.4128 23.433 29.4128 24.3703C29.4128 25.3075 28.6829 26.0756 27.7798 26.0756C26.8767 26.0756 26.1468 25.3075 26.1468 24.3703C26.1592 23.433 26.8891 22.6649 27.7798 22.6649ZM28.9674 27.3774C28.8313 27.3383 28.6829 27.3514 28.5592 27.4295L27.7798 27.9241L27.0004 27.4295C26.8767 27.3514 26.7282 27.3383 26.5922 27.3774C25.8375 27.6247 23.4004 28.549 23.4004 29.955C23.4004 30.2414 23.6231 30.4757 23.8952 30.4757H31.6643C31.9365 30.4757 32.1592 30.2414 32.1592 29.955C32.1592 28.562 29.7221 27.6377 28.9674 27.3774ZM24.7983 29.4342C25.219 29.0958 25.9241 28.7313 26.6911 28.4449L27.5324 28.9786C27.6932 29.0828 27.8911 29.0828 28.0396 28.9786L28.8808 28.4449C29.6478 28.7182 30.353 29.0958 30.7736 29.4342H24.7983Z" fill="white"/>
<line x1="17.9004" y1="23.3" x2="21.7004" y2="23.3" stroke="white" stroke-linecap="round" stroke-linejoin="round"/>
<line x1="17.9004" y1="25.7" x2="21.7004" y2="25.7" stroke="white" stroke-linecap="round" stroke-linejoin="round"/>
<line x1="17.9004" y1="28.1001" x2="20.5004" y2="28.1001" stroke="white" stroke-linecap="round" stroke-linejoin="round"/>
</svg>
