<svg width="30" height="30" viewBox="0 0 30 30" fill="none" xmlns="http://www.w3.org/2000/svg">
<circle cx="15" cy="15" r="14.5" stroke="white"/>
<path d="M21.2425 20.8906C20.4824 20.8725 19.7404 20.8725 18.9804 20.8906C18.8175 20.8906 18.7813 20.8544 18.7813 20.6915C18.7813 19.3524 18.7813 17.9951 18.7813 16.6559C18.7813 16.3483 18.7632 16.0406 18.6727 15.7511C18.4013 14.81 17.3154 14.4662 16.5373 15.0996C16.121 15.4253 15.9581 15.8778 15.9581 16.4207C15.9581 17.6874 15.9581 18.9542 15.9581 20.221C15.9581 20.3839 15.9401 20.5468 15.9581 20.7277C15.9762 20.8725 15.9039 20.9087 15.7772 20.8906C14.999 20.8906 14.2389 20.8906 13.4608 20.8906C13.316 20.8906 13.2798 20.8544 13.2798 20.7096C13.2979 19.5695 13.2979 18.4294 13.2979 17.2712C13.2979 15.8597 13.2979 14.4481 13.2798 13.0546C13.2798 12.8918 13.316 12.8556 13.4608 12.8556C14.2389 12.8556 14.999 12.8556 15.7772 12.8556C15.922 12.8556 15.9581 12.8918 15.9581 13.0365C15.9581 13.3261 15.9581 13.6156 15.9581 13.9595C16.0124 13.9052 16.0305 13.8871 16.0486 13.869C16.7544 12.8375 17.7498 12.5479 18.9261 12.7289C20.2833 12.946 21.152 13.8871 21.3692 15.3348C21.4235 15.6787 21.4416 16.0225 21.4416 16.3664C21.4416 17.8141 21.4416 19.2438 21.4416 20.6915C21.4416 20.8363 21.4054 20.8906 21.2425 20.8906Z" fill="white"/>
<path d="M11.8321 16.9824C11.8321 18.2492 11.8321 19.516 11.8321 20.7827C11.8321 20.9456 11.7959 20.9999 11.6331 20.9999C10.873 20.9818 10.1129 20.9999 9.35285 20.9999C9.20807 20.9999 9.17188 20.9637 9.17188 20.8189C9.17188 18.2673 9.17188 15.6975 9.17188 13.1458C9.17188 13.0191 9.20807 12.9648 9.35285 12.9648C10.131 12.9648 10.9092 12.9648 11.6874 12.9648C11.8502 12.9648 11.8683 13.0191 11.8683 13.1639C11.8321 14.4307 11.8321 15.6975 11.8321 16.9824Z" fill="white"/>
<path d="M11.9585 10.7562C11.7775 11.4801 11.0355 11.8963 10.185 11.7515C9.2801 11.6067 8.77338 10.72 9.09913 9.85129C9.3163 9.30837 9.84111 8.98262 10.5107 9.00072C11.5241 8.98262 12.1937 9.797 11.9585 10.7562Z" fill="white"/>
</svg>
