<svg width="85" height="30" viewBox="0 0 85 30" fill="none" xmlns="http://www.w3.org/2000/svg">
<path fill-rule="evenodd" clip-rule="evenodd" d="M49.14 3.06C49.74 2.52 50.58 2.22 51.6 2.22C52.62 2.22 53.4 2.52 54 3.06C54.6 3.6 54.9 4.5 54.9 5.64H48.06C48.12 4.5 48.48 3.66 49.14 3.06ZM46.68 12.54C48 13.8 49.8 14.4 52.2 14.4C53.16 14.4 54.12 14.28 54.84 14.16C55.68 14.04 56.46 13.8 57.24 13.44V11.04C56.34 11.4 55.56 11.7 54.78 11.82C54.06 11.94 53.22 12.06 52.32 12.06C50.94 12.06 49.86 11.7 49.14 10.98C48.36 10.2 48 9.24 47.94 7.86H58.02V6.24C58.02 4.32 57.42 2.82 56.28 1.68C55.14 0.6 53.52 0 51.54 0C49.44 0 47.7 0.6 46.56 1.98C45.36 3.24 44.7 5.04 44.7 7.32C44.7 9.54 45.36 11.28 46.68 12.54ZM43.02 13.32C44.1 12.6 44.64 11.58 44.64 10.2C44.64 9.53999 44.46 8.93999 44.16 8.69999C43.92 8.21999 43.5 7.79999 42.9 7.43999C42.3 7.07999 41.4 6.65999 40.14 6.23999C38.7 5.69999 37.68 5.27999 37.26 4.97999C36.84 4.67999 36.6 4.25999 36.6 3.83999C36.6 2.87999 37.44 2.45999 39.12 2.45999C40.26 2.45999 41.64 2.75999 43.26 3.35999L44.34 1.13999C42.78 0.479991 41.1 0.119991 39.3 0.119991C37.5 0.119991 36.12 0.419991 35.04 1.07999C34.02 1.73999 33.48 2.63999 33.48 3.83999C33.48 4.85999 33.78 5.63999 34.44 6.23999C35.1 6.83999 36.24 7.49999 37.98 8.09999C38.8278 8.38259 39.4626 8.66518 39.9848 8.89762L39.9848 8.89763L40.08 8.93999C40.56 9.17999 40.92 9.41999 41.16 9.65999C41.34 9.89999 41.46 10.14 41.46 10.5C41.46 11.58 40.5 12.12 38.52 12.12C36.96 12.12 35.34 11.76 33.54 10.98V13.56C34.74 14.1 36.42 14.4 38.4 14.4C40.38 14.4 41.94 14.04 43.02 13.32ZM72.54 14.16H69.3V5.58C69.3 4.5 69.06 3.72 68.64 3.18C68.16 2.64 67.44 2.4 66.42 2.4C65.04 2.4 64.02 2.76 63.42 3.54C62.82 4.32 62.46 5.52 62.46 7.26V14.16H59.22V0.24H61.74L62.22 2.1H62.28C62.76 1.44 63.36 0.96 64.26 0.54C65.1 0.18 66.06 0 67.08 0C70.74 0 72.54 1.68 72.54 5.1V14.16ZM83.1 13.32C84.18 12.6 84.72 11.58 84.72 10.2C84.72 9.53999 84.54 8.93999 84.24 8.69999C84 8.21999 83.58 7.79999 82.98 7.43999C82.38 7.07999 81.48 6.65999 80.22 6.23999C78.78 5.69999 77.76 5.27999 77.34 4.97999C76.92 4.67999 76.68 4.25999 76.68 3.83999C76.68 2.87999 77.52 2.45999 79.2 2.45999C80.34 2.45999 81.72 2.75999 83.34 3.35999L84.42 1.13999C82.86 0.479991 81.18 0.119991 79.38 0.119991C77.58 0.119991 76.2 0.419991 75.12 1.07999C74.1 1.73999 73.56 2.63999 73.56 3.83999C73.56 4.85999 73.86 5.63999 74.52 6.23999C75.18 6.83999 76.32 7.49999 78.06 8.09999C78.9078 8.38259 79.5426 8.66519 80.0648 8.89763L80.16 8.93999C80.64 9.17999 81 9.41999 81.24 9.65999C81.42 9.89999 81.54 10.14 81.54 10.5C81.54 11.58 80.58 12.12 78.6 12.12C77.04 12.12 75.42 11.76 73.62 10.98V13.56C74.82 14.1 76.5 14.4 78.48 14.4C80.46 14.4 82.02 14.04 83.1 13.32ZM45.06 18.66C45.06 19.08 44.94 19.44 44.7 19.68C44.46 19.92 44.1 20.04 43.68 20.04C43.44 20.04 43.26 19.98 43.08 19.92C42.9 19.8 42.84 19.74 42.72 19.62C42.6 19.5 42.54 19.38 42.48 19.26L42.48 19.26C42.42 19.14 42.42 19.02 42.42 18.9C42.42 18.78 42.42 18.54 42.48 18.36C42.54 18.18 42.66 18 42.78 17.82L42.78 17.82C42.66 17.28 42.42 16.98 41.94 16.68C41.52 16.44 40.98 16.32 40.38 16.32C39.78 16.32 39.3 16.44 38.88 16.62C38.4 16.8 38.04 17.1 37.74 17.46C37.6877 17.5228 37.6335 17.5856 37.5788 17.649L37.5787 17.6492L37.5786 17.6493C37.3197 17.9494 37.0485 18.2638 36.9 18.66C36.66 19.14 36.48 19.56 36.36 20.1C36.18 20.58 36.12 21.12 36.06 21.66L36.0419 21.8218C35.9885 22.297 35.94 22.7285 35.94 23.16C35.94 24.12 36.06 24.96 36.18 25.62C36.3 26.28 36.6 26.82 36.96 27.24C37.26 27.66 37.68 27.96 38.1 28.14C38.58 28.32 39.06 28.44 39.6 28.44C39.96 28.44 40.38 28.38 40.8 28.26C41.22 28.14 41.64 27.96 42.06 27.66C42.48 27.36 42.84 27.06 43.2 26.58C43.4632 26.2729 43.6943 25.8696 43.9403 25.4405L43.9404 25.4403C44.0308 25.2825 44.1232 25.1213 44.22 24.96L45.3 25.44C44.94 26.28 44.52 26.94 44.04 27.48C43.56 28.02 43.08 28.5 42.54 28.86C42 29.22 41.46 29.46 40.92 29.64C40.38 29.82 39.78 29.88 39.18 29.88C38.28 29.88 37.5 29.76 36.78 29.52C36.06 29.28 35.46 28.92 34.92 28.38C34.38 27.84 34.02 27.24 33.78 26.52C33.54 25.8 33.36 24.84 33.36 23.82C33.36 23.22 33.42 22.62 33.6 21.96C33.72 21.36 33.9 20.64 34.2 20.1C34.44 19.5 34.8 18.9 35.16 18.3C35.52 17.7 36 17.22 36.54 16.86C37.08 16.44 37.68 16.08 38.4 15.84C39.06 15.6 39.84 15.48 40.68 15.48C41.34 15.48 41.94 15.6 42.48 15.72C43.02 15.84 43.56 16.08 43.92 16.38C44.34 16.68 44.64 16.98 44.88 17.4C44.8952 17.4914 44.9143 17.5904 44.9343 17.6943C44.9932 17.9998 45.06 18.3466 45.06 18.66ZM54.96 16.5C55.38 16.56 55.74 16.62 56.04 16.74C56.04 17.58 55.92 18.48 55.74 19.38C55.56 20.28 55.32 21.24 55.08 22.08C54.78 22.98 54.48 23.76 54.12 24.6C53.76 25.38 53.4 26.1 52.98 26.7C52.56 27.3 52.14 27.78 51.66 28.14C51.24 28.5 50.76 28.68 50.28 28.68C49.92 28.68 49.56 28.56 49.32 28.38C49.08 28.14 48.9 27.9 48.72 27.54C48.7039 27.4835 48.6877 27.4281 48.6717 27.3732C48.5688 27.0199 48.4719 26.6873 48.42 26.22C48.36 25.74 48.3 25.2 48.3 24.6C48.3 23.58 48.36 22.56 48.6 21.6C48.777 20.6562 49.1859 19.7704 49.5417 18.9996L49.56 18.96C50.04 18.24 50.58 17.58 51.24 17.1C51.96 16.62 52.74 16.38 53.64 16.38C54.12 16.38 54.6 16.44 54.96 16.5ZM58.44 17.61L58.44 17.6098L58.44 17.6097C58.515 17.0398 58.59 16.4699 58.68 15.9C58.02 15.72 57.36 15.6 56.64 15.66L56.5619 15.6535L56.3529 15.6357L56.3528 15.6357C55.7559 15.5848 55.2304 15.54 54.66 15.54C53.22 15.54 51.9 15.78 50.82 16.32C49.68 16.8 48.78 17.58 48.06 18.42C47.34 19.38 46.8 20.4 46.44 21.54C46.08 22.68 45.9 23.88 45.9 25.2C45.9 26.04 45.96 26.82 46.2 27.42C46.32 28.08 46.62 28.56 46.98 28.92C47.28 29.34 47.7 29.58 48.18 29.76C48.6 29.88 49.14 30 49.68 30C49.98 30 50.28 29.94 50.58 29.88C50.73 29.82 50.895 29.76 51.06 29.7L51.06 29.7C51.225 29.64 51.39 29.58 51.54 29.52C51.9 29.34 52.2 29.16 52.56 28.86C52.98 28.56 53.28 28.2 53.64 27.72C54 27.24 54.3 26.7 54.66 26.04C55.02 25.38 55.38 24.6 55.68 23.7H55.8C55.76 23.92 55.72 24.1466 55.68 24.3733L55.68 24.3733C55.6 24.8267 55.52 25.28 55.44 25.68C55.32 26.28 55.26 26.88 55.26 27.42C55.26 27.84 55.32 28.14 55.38 28.44L55.38 28.44C55.44 28.74 55.56 29.04 55.74 29.22C55.86 29.4 56.04 29.58 56.4 29.7C56.76 29.82 57.06 29.88 57.48 29.88C58.02 29.88 58.62 29.76 59.04 29.46C59.46 29.16 59.88 28.74 60.18 28.38C60.48 27.9 60.72 27.4801 60.9599 27.0601L60.96 27.06C61.0087 26.8896 61.0672 26.7292 61.1236 26.5745C61.2063 26.348 61.2843 26.134 61.32 25.92L60.48 25.8C60.4415 25.9027 60.4057 26.0027 60.3709 26.1C60.2431 26.4571 60.1286 26.7771 59.94 27.06C59.8666 27.1701 59.8045 27.2745 59.7467 27.3717C59.6154 27.5922 59.5066 27.775 59.34 27.9C59.2759 27.9481 59.2203 27.9919 59.1687 28.0326L59.1684 28.0328L59.1683 28.0329C59.0271 28.1443 58.9157 28.2322 58.74 28.32C58.56 28.38 58.38 28.44 58.2 28.44C57.96 28.44 57.84 28.44 57.72 28.32C57.69 28.26 57.645 28.2 57.6 28.14L57.6 28.14C57.555 28.08 57.51 28.02 57.48 27.96C57.42 27.84 57.36 27.66 57.36 27.48V26.94C57.36 26.52 57.36 25.92 57.48 25.14C57.5313 24.4726 57.6266 23.7173 57.7282 22.9117C57.7454 22.7758 57.7627 22.6385 57.78 22.5C57.806 22.2921 57.832 22.0786 57.8586 21.86L57.8587 21.8587L57.8587 21.8586L57.8588 21.8582C57.955 21.0681 58.0591 20.2124 58.2 19.32C58.29 18.75 58.365 18.18 58.44 17.61ZM70.38 17.22C70.35 17.22 70.32 17.205 70.29 17.19C70.26 17.175 70.23 17.16 70.2 17.16H70.02C69.54 17.16 69.12 17.34 68.7 17.7C68.28 18.06 67.86 18.54 67.5 19.08C67.14 19.68 66.78 20.34 66.42 21.12C66.1021 21.8088 65.8777 22.5445 65.6643 23.2443L65.6643 23.2443C65.6361 23.3369 65.608 23.4289 65.58 23.52C65.34 24.36 65.16 25.14 65.04 26.04C64.86 26.88 64.8 27.66 64.8 28.38V28.74V29.04V29.28C64.8 29.4 64.8 29.46 64.86 29.58H62.4C62.4 29.4 62.34 29.22 62.34 29.22V28.38V28.38C62.34 28.08 62.34 27.72 62.4 27.24C62.4232 27.0779 62.4374 26.8979 62.453 26.7L62.453 26.6999C62.4779 26.3852 62.5063 26.0252 62.58 25.62C62.6018 25.3806 62.6314 25.1255 62.6632 24.8517L62.6632 24.8516C62.7191 24.3705 62.7818 23.8318 62.82 23.22C62.9068 22.6994 62.9622 22.2102 63.0089 21.7977C63.0268 21.6397 63.0434 21.4929 63.06 21.36C63.12 20.88 63.18 20.46 63.24 20.1C63.2561 20.0035 63.2721 19.9157 63.2871 19.8342C63.3278 19.6114 63.36 19.4357 63.36 19.26C63.42 19.08 63.42 18.9 63.42 18.72V18.72C63.42 18.54 63.42 18.48 63.48 18.36V18C63.48 17.88 63.48 17.64 63.42 17.52C63.42 17.4 63.36 17.22 63.3 17.16C63.27 17.1 63.225 17.055 63.18 17.01C63.135 16.965 63.09 16.92 63.06 16.86C62.94 16.8 62.82 16.74 62.64 16.74C62.46 16.74 62.28 16.8 62.1 16.86C61.9243 16.9478 61.8129 17.0357 61.6717 17.1471C61.62 17.1878 61.5643 17.2318 61.5 17.28C61.26 17.46 61.08 17.76 60.9 18.12C60.72 18.48 60.54 18.9 60.36 19.38L59.52 19.2C59.5557 18.986 59.6337 18.772 59.7164 18.5455L59.7164 18.5454C59.7728 18.3908 59.8313 18.2303 59.88 18.06L59.8801 18.0598L59.8801 18.0598C60.1201 17.6398 60.36 17.2199 60.66 16.74C60.96 16.38 61.38 15.96 61.8 15.66C62.22 15.36 62.82 15.24 63.36 15.24C63.78 15.24 64.08 15.3 64.44 15.42C64.74 15.54 64.98 15.72 65.1 15.96C65.28 16.2 65.4 16.5 65.46 16.8L65.46 16.8001C65.52 17.1601 65.58 17.52 65.58 17.94C65.58 18.4199 65.52 18.9598 65.46 19.4998L65.46 19.5C65.4313 19.7866 65.3753 20.0596 65.318 20.3385C65.2554 20.6434 65.1913 20.9553 65.16 21.3H65.28C65.7 20.1 66.18 19.14 66.66 18.36C67.14 17.58 67.62 16.98 68.1 16.5C68.58 16.08 69.06 15.72 69.6 15.54C70.08 15.36 70.62 15.24 71.1 15.24C71.4 15.24 71.7 15.3 71.94 15.36C72.01 15.395 72.08 15.4249 72.1486 15.4542L72.1486 15.4542C72.3149 15.5252 72.4725 15.5925 72.6 15.72C72.7568 15.7984 72.8368 15.9024 72.9235 16.0153C72.9696 16.0752 73.0176 16.1376 73.08 16.2C73.2 16.38 73.26 16.62 73.26 16.86C73.26 16.98 73.2 17.22 73.14 17.34C73.11 17.4 73.065 17.475 73.02 17.55C72.975 17.625 72.93 17.7 72.9 17.76C72.78 17.88 72.66 18 72.48 18.06C72.3 18.18 72.12 18.18 71.88 18.18C71.52 18.18 71.22 18.06 70.92 17.88C70.5 17.88 70.44 17.58 70.38 17.22ZM77.22 16.86C77.7 16.5 78.36 16.38 79.02 16.38C79.38 16.38 79.68 16.44 79.98 16.5C80.22 16.56 80.46 16.74 80.64 16.92C80.82 17.1 80.94 17.34 81.06 17.58C81.18 17.82 81.24 18.12 81.24 18.42C81.24 18.96 81.06 19.44 80.7 19.86C80.28 20.34 79.8 20.64 79.2 21C78.6 21.3 77.88 21.6 77.16 21.78C76.38 22.02 75.6 22.14 74.82 22.26L74.8246 22.2047C74.8832 21.5002 74.9461 20.7431 75.18 20.1C75.36 19.44 75.66 18.78 75.96 18.24C76.26 17.64 76.68 17.22 77.22 16.86ZM83.22 19.98C83.46 19.56 83.64 19.14 83.64 18.6C83.64 18.0472 83.5381 17.5454 83.4752 17.2352C83.4698 17.2087 83.4647 17.1836 83.46 17.16C83.16 16.8 82.86 16.44 82.5 16.2C82.08 15.96 81.66 15.78 81.12 15.66C80.64 15.54 80.1 15.48 79.56 15.48C78.72 15.48 78 15.6 77.28 15.84C76.56 16.08 75.96 16.38 75.42 16.74C74.88 17.1 74.4 17.58 73.98 18.12C73.62 18.66 73.26 19.26 72.96 19.86C72.7388 20.3023 72.6155 20.8098 72.4939 21.3104C72.4505 21.4889 72.4073 21.6665 72.36 21.84C72.18 22.56 72.12 23.22 72.12 23.94C72.12 24.84 72.18 25.68 72.42 26.4C72.66 27.12 72.96 27.72 73.44 28.26C73.92 28.8 74.52 29.16 75.18 29.46C75.84 29.76 76.68 29.88 77.64 29.88C79.02 29.88 80.22 29.52 81.3 28.86C82.32 28.2 83.28 27.12 84.12 25.68L83.1 25.14C82.74 25.74 82.38 26.22 82.02 26.64C81.66 27.06 81.24 27.42 80.82 27.66C80.4 27.9 79.92 28.14 79.5 28.26C79.08 28.38 78.6 28.44 78.18 28.44C76.98 28.44 76.08 27.96 75.54 27.12C75 26.28 74.7 24.96 74.7 23.22C75.36 23.16 76.02 23.1 76.68 22.98C77.34 22.92 78 22.74 78.66 22.56C79.38 22.38 79.98 22.2 80.58 21.96C80.6431 21.932 80.707 21.9039 80.7713 21.8757C81.2577 21.6623 81.7691 21.4379 82.14 21.12C82.56 20.76 82.98 20.4 83.22 19.98Z" fill="white"/>
<path fill-rule="evenodd" clip-rule="evenodd" d="M18.8525 3.33921C20.2725 5.99946 19.8832 8.97826 17.983 9.99253C16.0829 11.0068 13.3913 9.67248 11.9713 7.01223C10.5514 4.35198 10.9406 1.37318 12.8408 0.358908C14.741 -0.655368 17.4325 0.678959 18.8525 3.33921ZM26.64 14.1C25.38 12.36 23.52 11.46 21.12 11.46C19.14 11.46 17.58 12 16.32 12.96C15.12 14.04 13.86 15.96 12.6 18.9L12.3739 19.3939C11.8149 20.6158 11.344 21.645 10.92 22.44C10.38 23.28 9.96 23.82 9.42 24.24C9 24.6 8.4 24.78 7.68 24.78C5.76 24.78 4.74 23.46 4.5 20.94L0 19.2V19.62C0 22.98 0.72 25.56 2.16 27.3C3.6 29.1 5.7 30 8.4 30C9.72 30 10.92 29.76 11.82 29.28C12.78 28.8 13.62 28.08 14.34 27.18C15.06 26.22 15.9 24.72 16.8 22.68C17.82 20.22 18.66 18.6 19.32 17.88C19.92 17.1 20.64 16.74 21.48 16.74C23.22 16.74 24.12 18.12 24.12 20.94C24.12 22.8 23.46 25.08 22.26 27.78L26.7 29.52C27.96 26.88 28.68 24.06 28.68 21.06C28.56 18.18 27.9 15.84 26.64 14.1ZM5.11914 18.5128C6.38932 17.7317 6.5044 15.6112 5.37618 13.7765C4.24796 11.9418 2.30368 11.0877 1.0335 11.8688C-0.236675 12.6498 -0.351756 14.7703 0.776463 16.605C1.90468 18.4397 3.84897 19.2939 5.11914 18.5128Z" fill="white"/>
</svg>
